<mxfile host="app.diagrams.net" modified="2023-01-19T16:58:32.453Z" agent="5.0 (Windows NT 10.0; Win64; x64) AppleWebKit/537.36 (KHTML, like Gecko) Chrome/109.0.0.0 Safari/537.36 Edg/109.0.1518.55" etag="lZZArtkV1MBN8B-o0ftf" version="20.8.7" type="github">
  <diagram id="C5RBs43oDa-KdzZeNtuy" name="Page-1">
    <mxGraphModel dx="1831" dy="549" grid="1" gridSize="10" guides="1" tooltips="1" connect="1" arrows="1" fold="1" page="1" pageScale="1" pageWidth="827" pageHeight="1169" math="0" shadow="0">
      <root>
        <mxCell id="WIyWlLk6GJQsqaUBKTNV-0" />
        <mxCell id="WIyWlLk6GJQsqaUBKTNV-1" parent="WIyWlLk6GJQsqaUBKTNV-0" />
        <mxCell id="WIyWlLk6GJQsqaUBKTNV-11" value="Dashboard" style="rounded=1;whiteSpace=wrap;html=1;fontSize=12;glass=0;strokeWidth=1;shadow=0;" parent="WIyWlLk6GJQsqaUBKTNV-1" vertex="1">
          <mxGeometry x="662.5" y="230" width="120" height="40" as="geometry" />
        </mxCell>
        <mxCell id="5MIRYiNxWabYfLPJPBUw-0" value="" style="shape=image;verticalLabelPosition=bottom;labelBackgroundColor=default;verticalAlign=top;aspect=fixed;imageAspect=0;image=https://images.ctfassets.net/o7xu9whrs0u9/7Erq6IEoCaJkBtHMhblLzS/9310518537dffc123d3d9059edace8ed/Grafana-logo-2.png;" parent="WIyWlLk6GJQsqaUBKTNV-1" vertex="1">
          <mxGeometry x="742.5" y="166.28" width="62.5" height="63.72" as="geometry" />
        </mxCell>
        <mxCell id="5MIRYiNxWabYfLPJPBUw-1" value="" style="shape=image;verticalLabelPosition=bottom;labelBackgroundColor=default;verticalAlign=top;aspect=fixed;imageAspect=0;image=https://www.docker.com/wp-content/uploads/2022/03/vertical-logo-monochromatic.png;" parent="WIyWlLk6GJQsqaUBKTNV-1" vertex="1">
          <mxGeometry x="742.5" y="280" width="65" height="65" as="geometry" />
        </mxCell>
        <mxCell id="5MIRYiNxWabYfLPJPBUw-5" value="" style="shape=image;verticalLabelPosition=bottom;labelBackgroundColor=default;verticalAlign=top;aspect=fixed;imageAspect=0;image=https://www.computerhope.com/jargon/g/google-sheets.png;" parent="WIyWlLk6GJQsqaUBKTNV-1" vertex="1">
          <mxGeometry x="530" y="180" width="70" height="65" as="geometry" />
        </mxCell>
        <mxCell id="5MIRYiNxWabYfLPJPBUw-6" value="" style="shape=image;verticalLabelPosition=bottom;labelBackgroundColor=default;verticalAlign=top;aspect=fixed;imageAspect=0;image=https://www.drupal.org/files/project-images/Google-API.jpg;" parent="WIyWlLk6GJQsqaUBKTNV-1" vertex="1">
          <mxGeometry x="525" y="280" width="80" height="40" as="geometry" />
        </mxCell>
        <mxCell id="5MIRYiNxWabYfLPJPBUw-9" style="edgeStyle=orthogonalEdgeStyle;rounded=0;orthogonalLoop=1;jettySize=auto;html=1;exitX=1;exitY=0.5;exitDx=0;exitDy=0;entryX=0;entryY=0.5;entryDx=0;entryDy=0;" parent="WIyWlLk6GJQsqaUBKTNV-1" source="5MIRYiNxWabYfLPJPBUw-7" target="WIyWlLk6GJQsqaUBKTNV-11" edge="1">
          <mxGeometry relative="1" as="geometry" />
        </mxCell>
        <mxCell id="5MIRYiNxWabYfLPJPBUw-7" value="Google Sheets Api" style="rounded=1;whiteSpace=wrap;html=1;fontSize=12;glass=0;strokeWidth=1;shadow=0;" parent="WIyWlLk6GJQsqaUBKTNV-1" vertex="1">
          <mxGeometry x="490" y="230" width="120" height="40" as="geometry" />
        </mxCell>
        <mxCell id="5MIRYiNxWabYfLPJPBUw-10" value="" style="shape=image;verticalLabelPosition=bottom;labelBackgroundColor=default;verticalAlign=top;aspect=fixed;imageAspect=0;image=data:image/png,iVBORw0KGgoAAAANSUhEUgAAAL0AAADeCAYAAABotwHEAAAACXBIWXMAAA7DAAAOwwHHb6hkAABZGElEQVR4Xu29B5Rk13Udequ6q3PuyRmDCcjAYIhAZGaYQaDE5f/F5WUvmViW5U//72/5W/9blGWRNCVStqwlylqyLSpa5DJFBQoSIdAgAZpgABGINAAGM4MJAKanZ3o651T99z7n3vduva7urvequrpn8B5QU9VVL9x77r7nnnTPMSY9UgqkFEgpkFIgpUBKgZQCKQVSCqQUSCmQUiClwCVEgcx6aOvs7CzbkcXLvfNz9OWfw8/uxS6s1I8FnOO/8vibL37nPvvfFZyfy+X4W3pcJhRYCSyJuzk+Pp4Bclpxg2Y8pAnvTQsLCy2AZwswyu/xbprxasSrHq8cXnX2M98bvBd/53e1eNV4L9d+vkeBHf17DufwNeu9Rz/zb/fiuTP272n72f3t32smkzFT+ntmCp8n8M5ZPIm+jmez2ZH6unqenx7rhAIVBf3Q0FA7gL0Xrzsx4IdMJnMQyN9ogV2XyWTq8maB4CZ4HYAr2oZVoGt0NZDJhL6gmwv+KjGP7/lyE2ISn/tqszU/rqmpeb6mtubJmmzNKawanCDpsYYUqBjgzp079/fy+fy/xgBfn6vLbcjW1Bj8DdyHj+BnAGUNu7tmj8YKkDkP2nwToP+jutrcU/jMCZIea0CBioD+1KlT/whg/tWmpqbtGFSTqaE4jkXeA/nlDnh/ckcndmTivw7Q/ybo9GW8htZgzN/2jywb9K++/MpdEFm+0tnVtbOurs5Ahg3UyssZ6A7IPsADcHM1swvaAiicgU4uf+J7Lnw4byiXq/tPdXW5L+Zqa4ff9iisMgGUJSc8Xnzu+frp6el/1djYuLOuHoAnh/em0eUsyuSJayCagOa/7Di/k+/xGUK/vAvW7T86KRZwTr5jbm7uX87Ozf3U3Pw8FfP0qCIFygL9xMTEFZDd72trb1MO/zY6Qs0EQCY7D75QsCvgOR383/Q0gn8+P99J4M/Nz13/NiLbuugqLSiJDwzeR1tamjuotL7dDmXaC/wf73ko7fPk4AJ1xT/WgGwNXnbpswq9E4H45zwAPzeb+WlMgKOw7KRWnSqBKDHo//ov/7IpU1Pzoda2tio1dX09BgZLtUzBJjs7M2tGh4fM1NgY5BuCf8HU1OZMa1uHaQZ9QCdMBOHxco2zanHCzM/nKeL8AX48tr56ePm2JjHooYhd0djUeAPszwVWmsuXVEV6BtCOjY6YocEBAH7UZObmwPnVeZvJZM3U+LgZHx8znRs2mroG+uAwJ6wZV/UdikH5HfBIX5eCvnrISSyI1+Zq35mrq2vLvM1k+XBosmZ8bNyMDg6ZyZERMzc9Y+YBeoKaL4guZnZ6yoxhBRgfG8FqQKeurg6hgk/xaKER598A+Z4e5/SoAgXKAH3uZpooeVzOVprlxoBcfAKv/OwspBxweIg6LvZBr1swcwD7BFaDmWk6aGUNWHRLgP5q0JChGulRBQokB31tzY5aiDZv14NCzPTMlJmbZTgOFVgVV+QFa45Yb0TkzwvHn8PEkGlgQ9fI8T1b/3Zy/LcrLavd78Sgn5+fryeHf1sGFRDaADSBPJcHmBlax2BNKreOmYtlR42XlumLWceBXWjnzslkOnAOg+rSowoUSKTI/sYXfj0LsRWgV9Em68XXOFGnmFt+OQ/tpea9JQevra01NVmEXcyHYTRQTHXYQJMsAkLFhC+c32LfemWF6+uJ+JBtg4jDiNP0qAIFEnF6DBAmy0LOH8ioXO/+9r9fTva/1PQC8vCGxmaTq683eQktAMDJyS235zstOfOAdl1jI86D/iPnhTqQFYY4zGQgKaevAuD5iEScHgCtwYshwgXHUsCPnlcsbsXz6qy8JaRKxFnyMRJ+kDHNzS1mZmoSSuq0ga3dOqJs6IGI9hlTk6szTa1tYrIU4Uddsj6fp6AP5Wjh7asgVXk8k4KeEVTk9omaK7KuVeTcZ13u3YK/2MKR6EGrehE4fUODaWlrh3ly3kzCioPYAvnMIwvRp76hHoBvNc0tLRCFcoGq69PN9pnB+SnoV3W8wpsnAj3HFPAsuDYqky8XaisAdx7NJTq63sUdznqGGLS2tRqGUw8N1sMWPwMTJRVbbPOC2NMCwHd0tINaPNvG4kDpZVCapwZpiI5uj0yPKlAgKeg5SOBManZbji8Xiy2PhuOWKhZVgR4xHqEWefYf+whMI+R7Hm7yy5qFSYGgA4DcGTQ1VoeTJaLwp5w+BuXLPTUhd6FNgpwpNLsVa0gU3A4Qvkwf5fj+ClFu51bzeuwhCNi1L+SJ9QbcPMsX4nDUbBnues9wjfQOa+tJOA6r2cPL997lcPqAwRczN0YBH4g03FAh424vtzEoarqjhKtK4noXb2TaeyHFYpUJDZNqyZFekssHdi7bd7sihFSwK+flC7T11LOEoF9epPE7GCz3QAGVvInxKXnn99gnWrCH1r/u0gA9gyrJzfPoSy0U23qD/cFhn6yxZpHC79ntZWIgOg2vVJGt0sxICPrFVpuiZkjh2MLAzQwUvHGE3k5OTsmGEzp2FhZqVQYOOZ50e70D3o0N28kJzNeCmTbYRWZaobzWQ4lVevCl1pxFq6HnqEViBZp/U+fUegc9luxgWJ1cvgisIgPQXT9nRkfGTH9/v+nq7jDt7e3GBasVBUSVOl+pxxD04+MTpu/CxQDgBH6BaVJlOj0kbCE8INLVgXabmPQKlqBkduBKdeZtcJ+EnH4xZXzgR+3wY+Dw2Fpouru7TWdXu4g1PPxrLrkwBGtzZB/YnzaYLrOIob9woU+4Om34EjtfuoraAZLw7DQ1yCpPvNKHpLAhaq8rckSiBwUA4GAiAnR0dASAdxzel/lXua8VvT3BHjE7wnTZLCsY+zs1NQXAXwpOtoqS5ZK4WVJOvyTogxXchtYSAAQHHTiU4zV1pF3lvX2jlxqnLxBPxCzJPbGZQGwjl1+krCwPiWHQKOXyVZg2SUEv0sly7XM/Bm75YIdVGHfi6wCXivK6VJ9df1VBjy2WM9j+QhXGO32ElSGTEGJFTi9zQiw3oRigIs3yj7tUnFNOPAt7Y+OGvA6u1FePEtxLOJBkINJr4lMgqUy/6Em+bB6Nu4lydCf3+/K/b/K8FIAfbWNxB13JA8LtV+Mln52eWBYFyhFvCh4ctd4sK/pElv9LUZ4vFi/EDAi+1Od8ECWM0DjOHS3hvPSUClCgHNAvElyXkmUdV1RX/eIjGn+TQCauACnKv4WKMxGdpTQDTi/67HaOl9+Q9A7LUiAp6JfQ1PwRZvCJnqYgZgQK3x03jDhoYil/kedEuhidRBrXw8RKmoiJ4KRXOMg+VjGQLEa4H3sjPZaYHJ0YYZcXBvOZfNEUILB+0anBcXKiaFG+Ybvg/+brXdFrlrsHLW2xNfGKkbAKN0oK+uJNE1JZTifjH9LdAd+FYbkbBHwRCCAgeR733K5o4+bupSViWwrkbTSB5sNp5KWZQby7mxA1SDZLMypjZTQPZ/njvNQ2+ZD3CwdQqqBNTsnHeye+uH10eKQTSXCRFQEbxTNmC07bgzbvxnsnrsnhPjN4p/zPF2/jYh0coZ09mH+7ghE0g/qdc9e4dzdobsDyY+PjvNYvMOEKTfC7YqWL3Lm0QrFtTFFI5ZwvfnYvdx++z6MByJ2SmUEveN00RnQSYzfd2NDAe6zaUQ7oE6JECzUo89e4G4ISyY7kxc/MfpzL1cKuHwakRWN7dK8pRp0Bzl5LZNJw04b9ch73m5qcNiNMyIT7B5MNN6AjqQ1p9+ol47Jy6VJFq6J6SBGKFEwEmdgAO3ZYhUmhsPrk8zfO53K/grbCuVvTBQI1oTV1nNVuwlzCeSfcBHLvUrEF9JsHraXEEcg2xRc+96G/ZwdHhk/VZLNHQYvXamtqz9TX1fVXcgZUHfQhWHQDisatjBuGKjhQ8nsCksFbjFxcDEgVlbgaREHqA56McG52PgC8D1RexwAxhkdwAtU3EGOlCeBxBsC1j+8EugM8nXZcedhnPLeuJle7n5tOZOOJMAXLvJ0Dz4Zilzop47Rxlc91BfMKH7PAr7XWnb/kCOMhE8T2svm5hQGE8b00Oj72p3W5uocB/p5KtDUp6BNyeW2y4/QccLrrCXjnxHKdIiAdCBsbG0AarADWweUDyQdy9PP8HBIt2RCIpSxE/B3pspGKoK5kLh9nRVhAqgSZokz1h/7KftpJbCYH4DkJKGK1tLZg0jUs6l/U9FuJAV8v98gvMLw8xAPVPxH3Ar7DVXG+C3rXvcDJXQjhfmxicuI/NtQ3PAoclIW/cuz0icpM+s4qDjoBIKG5noziPhL4fCGzb7gNzzvPAXmx6GNFFU4VcIyog8wNvP+97zMoBRhRX0O4wyAcD3d/xtwzMdQM9IoJJnUdHZOJzklM8QoDKZ99kPt9crRZjZWolL6uxjnhogqmQMbgssIJ6nX8VIQVetZA33sfilj8CfDwIBONldOmpKD3LQOJn++W/OgNFokEkgtvsejhn1esEQQJFdalDh+4iTvhLgyaV5Cuz+orCnhO8DEAfgS5LRmZyb21wuG5mcbeJzr5Lmdur1Y17bkIOkR5YJ0opKOck89vnpmd/Tw4/4fKGa9yQJ+I00cbW4x7+aK1/h4SJwDqIkkwXCr5ySm0yK4s+kHx51B3cIFwycgYrBaRBddNaMlejA00FOPI5cnhpyHaUKRpbmmGXqIli4SLREI2gvlEhXYV9I1kPa7MVa40UTCMlG/CmS8PEfOUF8ItwF/IdwP4vwjx8KqkLSkH9GUXBFZOvPQuOfe7O8fpAgIOmQqLRYJC4CA5DyxAzc3N8hy1zes1fOcq0IAkTHWQq91EKZWQUYD61hUf8EzwOm0BPzo6KqBHjS7ThDYh1bkOKpS6KEf3zJnBZLicgC9ZPqncz0OnmoUIi+zO80h0Oz83je9h4BHRRs+JinrQwQ5DxPkZcPxEu83KUWQTg96BlxGJLUiERC7oW26crM6NGI5L63eU7ZkMzHJFzw/gQBtVWAnsltYmURgpXrjn6LObUDFEMpkUbGgpFfjFz1MrjdsHzL5xmyRFmpHhETOJjGhXXLnXoIq4PlM4vONr4WpVzErjA6C8Nq791VnICaTNJHL3TyFR1oI1J+cw5s1IoNXYjDpm2He8lMY6l5//yWy+5k/RkyNxe5MU9BRtNPd0zENT29lqHdwrC/GiC7upuHd2dg4KLcPQAfBG2M4bG7HRmnVpxY1JhdQZ5R0plpbzo82qq4PdP9ccKMyO21dSZqaFyVdeZyHaTKFfU5MTGFzsD55ATBkcC0wQxYxn5PCyQmQKJcXlzJLr3WQZNS74zMiNSR6GiQnoNkP9fWZ6chxjDs7uHJNToBXEwObWCdO1abPJ1IY+F17vxgtMZX++Zv72aoKeqEvkNYPrSJOc2gIGVFyozDGbgNixVZATsYQzXeVdnE8RQEQaYfNW/mP2mdJs67Tp1zA/1SoeTgcT8yQtUgA9RRuuMJMAPi04zchrWYNV5nISVaIkja62vujIMZ4CPQb6L5hpMALSKHQuMzMiHJQwNdMalquHObezq2jlSkx+Jsg6jJX7T7FqxypSV3VOr1w7BKqUFQb3Qw0rha+3adrV6pN5IBOFBcvUobFuDxtOATkK8umsmFynINKIaRYDjjpdCvgwhmLddiVJw1YSwShe0hlJsYa5PzUWSbhZcNDMTGYxOjRgmts7JC1isQPn7cfzWvFbLNAnUmT/30/9EpGXiNNrVkfJBClcO7T0ae9dGQPdgKcVPngO02HLi99Yiw6yzSQZl1W7xinYLqzCeV0pu/JF7h/oKKvWivVxY7eSRc3C6pyDF5yrteVdmjOLq3Zoms5zlQSjiIpzvpkaOt5W/N0Wt8dJOT2fk0yRJScURmfNkPI3RBmb2JR0yJIAGYgA1OLt4XQBnicEkyPRnI1Lo1jnO8sN5VSC3gGf78hvroPoBwuJObL0mJ9YjVmDk32xrZiYQ4bAHEhkfKhmgRZaZicCgDNWkM1Rf1tedAUZN4CeLXG7WQ5qEimyeZoNMV+yiDVyXcoioC8EsoI6w9+dggd5no7nGp5n91tDosPfyeZdXCKVer5vZqSyRq7G5XweCrq8M7QZ3xcIZ0vY5kt95no8L2rOddxe2BTGPxfsI7YrPcEtoitXf4eKxW6gqM0es6IJz+qIS4NyOH0i0FNcmZzNmx+9fMp858fHTM/FIRFZvLy+ItYQ0mLbsLO9BiAH5M32je3mvkP7ze3X7oV9HavBOpLvZXDJu6jIgtM70LNgAz/T8yrj64LIyNlkxNaxjhITUcVkel9EEU80fBRTiHqF5QKjTDO0ru881FCB91pY71paFyn8kdWDDpbYnL4c0Cdjs+Bsx948b77z3HHzrWePmeExyG3SWeuVlPluv7FvarUBkMANOloazcTUrCRWuvuGfQUKUMzxKfv0olYK9oPcG8qYWqM02MyFEkedWCUan8pu67q4AQaS/hEWqRhlFRfY52mtkXrqwbynzpaVyi0tXRsKLDdFzLW1VpGN1b1yxJuEOVoy5tVT58ypnoumCeG8N+7fYfZu32A2draYBtjsFcV2v5Gv0dsdV0NjE+bIqR5z5GTPmuIlanIMBsR6i4V/W9ElfA+ZejDGvnwfa+jW78m+sulaqaugesLpBe/o3mAaYL7N1jWY+WytrOJirautx/etprWj0zSR0y9TnBukI35j19+tOqdnx3sHRhHOmzdX795sbr9ur+kfnTADQ2PmXP+I6R8eE0VnAgFaU4iFnwJXn0YuTDVbkjS67W+GHjwRE9anaOBaxU0j3BFm126ryDqRhrKOU+DWZz+STi0HfLcaFoo4WdMFUOfgLWdoBu32eXB8bqznhGhDrlOuBlzNVfRZStEXW33s+rvlgD4Zp5c+LAhoRyYI7AVz+zV7zb5tG00bwgLGpqbNibcugJufM2fOXjBHT581r/f0m9EpLIOi3Yt9y5q8QKhsmBdzuQGKiiIr/b3SYEdl18WijtsTrHty1R4r0UJczHWyBj6JxRGFcoX0V2U8MfNSwYdGv969sj7tirXV9am1tR3e6bbAehUqqiSPLvMl9LUWRoIMxKaSuUbVQZ/n7iD8PzYxbc6cGzSnzvaZeriaW5qbzAduv9bcAHHnpdfPmlaEILz3lqvNZog949NHzNjZi1LGRjkmAAD5Pp/B/lbr+l8KpFGN3/0t2xK9TSkOxCUQeaX5kPj3KHeUBLBWLAgnQaFVo5JhFIkbnvBCmdQiz2tQWUh7jwmsfG+KOLGW/HJAnyi0WE2T2CaI98lp2LFhztvU3WruvmkvOP5us6mzDc6LafO1x56FmS9vBpDi+8LACJY6KoXq2gqntCqK7lhs0go5RcEyW0SkWOuwAL8f0VVEVgYnIYk3N0SCP1EupQmgYSiuX06Ps8CX/kVMu0uDf3ljfpHrqg56qunaRWNam+rNQcj1991yrdm3tUvMl8ff6jPbNnTi1QaT5nFzHoDXQXYeWrwz2nIJWd4Hgb88FnDwwBESTpi15PDFxtNvDzegTEHso62fUaPcOB8AfIlFfV1vJEeb5xBSzIPhJw31jTa5r46zRluVLK2svBZEzigH9MlapZshRZzdsbHDfOxdN5udWzeZF187Yx579qgZhFL77ndcbe49dNBMzsybJ2HPJ/DJ0MUbK7xe4Lyos8WAW4z7+xcWMzvGpmKFLijWFsbssODDDFZF/k6Tn+4NcKxjMdevUHNW7TYcpxnsM2CoOPvFoh0sRM2+BSInx7lA5Fm2ObG4/RqAnnZYndCbEVL8zuuuNL/zV4+b7zxzzPQNjgqgB4ZHzTV7fsJ88I7rpebqwz88ItaePOVb/J2nTA9p3oWfRclRDOhRAi5lVlsrju+3z32mTM/qLbMARRuUvs7OTgF7gcJHUnoBfMIlk7GjVQP54hurEs+Va2ho2Axjn8EcxFz2T3SYVbZolWOnTyTTz+cZhoBKHfCmnr04YH7rz/6neeQHL5qLMFU6uWdkfNp85g/+VoK0roH4s7Ub9lzI9Nl5XSUk7ExkwsKAMyVYca3fycn+OT5YYnCVVQGHL8fzMwE/NARvNd5Zrqiry4bYyrY6fdGSIyU6qe/A0q0vVj/R79bvS7k4OTuBzs3xfX2IrUdEqvg0POW2BGLHxnDVOX0NBoOzpQHWmSu3bTL/6APvNB9/7y2mZ2DKnD53Ea/z5s3zQ+ZlOJ/6h8YlE0IT4qpJDBpb1B+hPtvosZQFht8znJUvBn6R2Mypw43Z/iRZD8B3faJtn1sL2UZud3TJYYu10U3kYkp9CaBZk1PcWNXA5Mz6XOwj+8uxqcN4iwBb2pJFzlc18SYRsVzrZrCcvQ47/P/41lOmqVGVmbpcjTm4a4s5uHOLOf5Gr+lHiAI5XY2VXxlSLMFolPcE9Suv4yQcHSAPPfSQefbZZ83gwIBwzhtuvNF87GMfEy7j5MhEHarwRcEktOlR2D4kOgq2IBTDwSJrT2lgqXDL499OQG05PvcNu7AN3ikGA6oq6FdGXFE6KOwphTRgRm/obBV5PcswUwj7c8hwyLyT4sWE7D4PL6xkAfOnsx1Up+H73DrKHSginT512vz51/7cPP/cc7JXtQVK0/HjJ8zhw4fNwYMHZaN2DM4Sf3RLusKp5xThtLfMzkYOL5ncggm+NNljAKWkFq3uSaFp3ZUt4lg5RqZDXJL5ff2DnrH0lMuZOnJDR4u54/r98MrOmFGIHqPw0FKepwWHdvxmpPSbQJbDOTppfJsutXq73dBf14oNOuXEc73nzMtHjkh6Px5cRo8fQ4RnT4/ZvXt3APrVHeQV7i7hl6E9PtD2dTrqxXLO4vuUq5tE9aClRKgSxY3SyBj0hcxNQ45tJ21/8aWjyfJ3XP8yPW3sbOXI2JR55MlXzLeePmr2bOk2u7d0muv2bkMszj7zU/cdNo8/86qEndbBJs0UHbJJEPSxeVbV7BkxaxWTbZlRYeuWraIwcQJomcusae/UerbceC48pXTzWGmDuopnFbP0+I+L05di50Z1I3dO9Nw4z1lFcqx/0FMF1V2uTMkN0QUWmZO9A+bMhQHzw5dPm5dO9pp/9lP3mI52Rl3WSoyOGmTokAlrE5LgGsey/EHQ79u/z/zq53/N/OjJJ03fxYtm44YN5rbbbzc33XSTKIrCRC8ROXgpoPncPk5fllP+HWWLneNPBP+8VQT3Urd2YQglP7rq1pu8ZKvNmHZk99q2scsc2r/T9PQPwxs7AqvNAMScSYg0M6YTUXhU4AwKdIiEC5C7WBQCXUxbYt4KD98s6QOZMvttt91mDhw4IIlTaS0gl/etN5cKt2ecflTEKYfjlnKtTCgJ9Av1MbItf6KtIf1iWW7YzqqDXiwweLADcBcSMW2CMnv4IHPRY9NjW4vpaIX5Cim0mTcmNFvQNh+Y8uX7gi2U8ltxGz0HhyZKvqKDI4Nu9YU4HLJktlLpEwuG2EadLnrGSutf4QU+DdwvuqNB96xyu6MaWjQeXsMivaGxAWOV7upq3a/qoFd6MdgM6e7gaTyLeJu92zeZZtjt62ozEGdmzQ9efN30nL9opmYYR1+4kbBQngm1+3BvZUiqqIK21HJtt6ysFo0rfF/XZ92UQTA6U58rKaSQLw34weoodA6v4X1pNePK6Apgk54MgaAexKwO/r78NWYYpXXWjkQ5oI+9rAiXtSyCJslaELERu6dGEVV5ASEI5y4Omjd6+83ZviFYcMa1HA+5d8DSnRXDWjlYgkeSnoUx5k6ZLRVpbrCWmiCl3qd651lIo8903HFDjQMlHTsuNkcKHZZ4+DRwn7mvlwUr6NDzK7jozqcG8W9I9jmXtItje4kYA8oBfYkkjZxmMxswXv7avTvMz37kXvN3z7xiPnDbLrN7c7cA/muPP2O+8siTMkVUnleCKvh10AvCTewjlrMyCO+zk6OY9SPq4EnWuepcxfaTA49j6ySB6fJmEpDUVwSQdWHpolJb5SuskmcSwW6cUD5D4LNoBaPDjxYxX79YY25fajfLkulLfoh/IqzuAttmVBdh6r6XsTPqTx56Agk834nAspfMeSi1P3nvzebvfvASPLHuSsbfOyVKZoBaWyTGPrz7Um746PfFJselwqXYTlfNxAc8qaAF5aYlZqd7QxdEkdIW42KmyBncx5YGCjZ5OPA74PN5tTbr9FJWoEQgiXdRLNGGt46xCC5qSWkUjVwWEI4ZAhgXD2/jEJxR3BPbiz2yZ2C+ZPq7bRs6JIkrtwur1qShxaGsqhtKih2BZccTewomnvPoejPmUuFSbCf3EDPnvTMGhOq9Wri0rJGGcPgWlqi1RWgi6bCVOj74KVryev2+MImqXOaUV4/GlwoNyxFvEoFet/xlZLsgwd4Kjv/hu25EJGUHFNt5RF+iSAJTNOO0YSzf45D31bpSqJ7Jw0vz2MXjG+v+bABbqhMWY3ChvO8qNVLxLCbOhd0MRUYHWr6jup9YatxzopPHFbQrNYHueiJrOaBPvErQbElb/FsXBmWn1NXwxNKSQzm/E3ltBobHTR8yJpzrZ2itKrNiW+B2QUW7vNiA2GvbeqJ+grY4/aaQay+mgkZlehzZe9Yiccajo/uNugHj+CkuRVcBpzuI0WDtxyA28y0H9LEfRuJlhWNrrHc/Not869lXETqMyn7ICLYRsThtzY3mCDaGn4eoM4ZYnFpEXuraoAlcyfEF8mKnT9SEBFBbX5dkEY67KDJUFH2n5GtZoWjxNr8Xvl7jsw4nttBCw40dXDGcuOjuR3Mli2mozd5a0paYYFWgXGwQlAP6RJxeJZI8MiDUmpsP7DCf/2c/Zb6FvbA9F4fNhnYWTcibHx87Y2YwCcjduR9CbNHg67I3gtc7+7Tl9lUg7Lp6BGvr0qriYolEdregIxAJSu49dWWLfLFlkajjeXh9Kw3vQ2DzXlSYCX5nrmRuGils7aUjKaovVIdq6x/0ZoGRoEjPB69rE8SZF068Zb709cfMgx+5C4prDtkPxs0//Yl7JNa+1lkfLKvnhCCb52wj/5d0cNUh7Lp5igAYnIOhFQShK10kcjjkd4KU4RVLVVWMKps+cAvMtuDgDPmlmEPbvzuE20sal8KKj2uoxF4CoJetbWrqorI0MjkD2/ywacEEYPzN85gE+3ZuQlxOhxCcyq0abzQMQa0NXsKkdQPHKjYEdCDAKYKwjE+e5WsoAgYeU9ZqWjkpVNSUG3XycfmQnYk2oVbYw1BhrmKvl3rUJQB62/Qx1GKiZWZrd7t5363XSdqPE0jodBHp/aaRBaG1qVk4zDQyHAujlzpVLIqmMTc20dk6oHm1m2DHWICPzfFSk8lxYv0tyKBmmxYVaeScSFTpUmvmJbCWxgZ9Irnc0jLZtcK1M9gwMiXRlaMA/7vfcVCsN7QWbEJGM3LyMWwmmWV5FmHzuqRrFRLOAOFri6L8qg2/tXieFDMQRmvpYi1Z+qVLe7200LekGCL6UiFNoyEaa9HfEp8ZS8qtuiKbFwcTNofAKtML0P/e158wV+3aYIbGps0Moio3dbXCQXXRHDv9ltnc3YIE/tQBrAYrcTiU63WPrL/RqETirPPTlhs7/hamvnOKK4EZpicMTZTLydiL5HrPChb1rC5v41/n5FyieeWAPlHBJ+ae5OBRib1t3w7zCx+/X4LLXsFG8FNI3Erb/YsnepDoCVxLVgWCm9tFFPzK6WwORGskLhZCoN/xknD186x6i8ih1gcu5sUzmzg4SntWI7AqqLpCQZqBdNbtI/Z2zeqGfM3I0Y9kT059l7Bo9VbQ6Vewk4z7FqS8jVq/JF8QUmJnpaSRVmW0C+hiUWcJT/VaKKsac6Urm75pdjfm1PBYRNU4feIJwxZyu+ATMFX2D46LU6obNvpOxNbftH8XkrjuNq+ePEsNCmdaOV6MltZiYMUbseZ43M8h2ZnPFAZ6lAJUGeuIhBjYs2Pcpyz+JyZZ5dgyZ4MYgawZm54z33rmBfPkkVOi+ygZOLm5gdz2U+ihsfAuK3IdVkvmDvrYfYdka2ZjA2vYqt9j5b1nZfWm7ItpuA6T9OKzzYGp3ZV+2sJVpT8qMXAVjfEPFlzRzQkL4oh6x9V7YG+eQ876YekeB6wHnliV5zW4ahYx9jLJnQ/W5rLkb2fP9pi/e/hhs+eKK8y9994bNKgYp1+ptcpUlNO/8MILyJhw3OzZs8fceuutyMXCXVyLFcCV7hnvd1VYdO455UXfuf/gdWR4/tvvvWheOdUrOpGDOTfJZ8kAAs6vzFHuhP+p8Ha2NgpN/+H7bzX7dmxyMyte89bgbA23shtDC2KvpLt8wWUc0cpXaGcyZVRvmmjCuKFsRq4bmibvPXRAAps2dbWZjrYmmQyMrrRbJFBupwGe2lbLse3VMs2xwGEQe3t7zV/91V+Zp596Kix3Y4OluLXON8NFA9EW/205LK5/9dVXzSOPPGKef/55cQT5a+lqjb30WUQ61WEEuNJX5O6ZmDRHsfodPd0rwXis4HLFtm4UN2jW4gWi7+i57lBRDHH3oC/9H99+5jXZt6CTwZU5Wq3eVOa+9OALDeQf8nxP2Vb5laVdqybeaBqBmAd4tzSdgWbN2EDC/PR/9I0nzC89+IBpB+cfQHq/9xw+KEXYcpBrr9q1GROi3ZxG1rOLg8PgVirZi8nS6yrNm85hE8qePMkuhCXI4SoWUVZckAwMWqN8tbl7SEAFedgpWXNEhEOGNsYq9Q2aWUzk26/fK8lv+xGjdBFgPgkajiOAbxqRl9NIpzIFK9jYFOR/rJCqmEIbwDtLF+kKSsmHK4N8ijmC1T7dOcEs4G2TVccRWo3CV1E10Cfi9AsopKBbAFVmzUK54g4cyvMvnjhrnnjhuOTDuXLnZtOC6tpXIPXffds2SBa03/rqt80QJgXrsVK5ZSLXUNHRwSgws0nMg4pSS1ks/O9VjnbhuHayxCJnGYAQxVOpoqKZM9e6tZEFRemHRszSyKjZhzpd77r5gDmwexuYRc4cQ+De8TcuSGrEU3iRlmf7BiAWcc+BxillRQHUAtTZoPp6GW2uwqW6p5qIgWBsxzIPr75K+kwSUzMQtxmJgPuFz/17ikUQcuMfGRvrwYROTOx0YM8W8zMfeqcoWEfPnAP3z0HRalAAY2DIiTYiHchH7rjOtNbXmv/+zSclJFn0NOH2ER3eY1y6lW6uYLuba7FTUKWuKcOZraudooLv3NFIwvCmfnxK/N4vf4U+hXqNrmJhPAv/CK1Kjz/7mnnypddNPZLgdiKrw4MfvA1KLhJmgdu3NDXA2XcNMkK3mr/9/hHJMKGFqQkcThsaBEQsEG7PSn7r+VBwW8pIODVHwzoszcJ0fa7mZNz2JwK9jExS0NtCydPY9E2Q/xlyWXZByXrihddEbr31mitMF+T4C4iyZGYEMmsGN3W1tpjbkAjqUVh8xlB8LbDVO7OFh32Chdvp8sxyzPKMCGeILuK+PZqTgy+C3/e4O2dN4Ybpxakv4hK92PkuZFqkG040vhz6ZaiFDchv44g+nQH99m7fCIBfbQ7s2ib5Pp/ARHgM9OEGkhGkUqEcr5cxv7NkGrKQt0HZAvhEyacr0eWS7uEMk+y/DHGgzEoR5nmEs1ws6UbeSeWAXtlxzEPVJ/AczNqzF4ZgjXjB7NjcaSYQksCRZfmdi1C2aK/ft2OjLG2MqR8BF3vixROmB3ItQ17l5CJKO8HsNkqzYgfDcDMsYrCEmMLzpZK33XEES7ZU+lCsFI9fWQ17tWA96I+dovZvJ+C4iKN27Dk4dGAnShYdQCWXreZHr5wUfYglSRmp+vCRY7B4kbv7Gl5QndfBx3uPOYhVPF0pwYlpVyRa7qzOPjq9MAcJOHY946qDXm0T2pUpKF6nz/eb08iAkLG7oHTw+Q8WMZajBBgvDI6Y77900vzRwz+UioOdbQhBFnuVx6WsqCO7ivBSrg3xSAbeIl7lIXl2YH8Hh8xBr+BzOFlmEUKbgwPIHdWKPXGGygLF0luedGGXmWhuuWYPNtJfY7Z0dZgfHz1j/gIb6duhE733HdeYO6+/0gyiyMEzr76BAnWqyNoEiNrvUAGUSVaQO6iKYC71UX56FhkzoYKKZ3bzWGytKynoKWzHrt+pVHcSmo2jsSYoNaMRyHjHpK4DYJsh24/BakHl9otfe9y8Ce6fR6hCJ7vJGHKPExPLTFvBTL+Sqs8tg7ylPFcQE2BKwGy/E0DhmTmkEWSobh6FI4JtclWybjjQ6wgqLdwmGR1iVUDZaFZh3AAz7te/97z5i28/jW8gvMC61YYKjQ9032j+yQP3mAvDD8Ou3y8x97w3q62rNcrBiIThVsLFxeqc6BdM/MiKWrgBRc9ajdWP9xUTpbRb9Q8kjsHDaAGcN13QX3DE9hclBT3NlclAT0eDWF9sjnl2AMqk2C3I3fGqhXixa1uXueOGveZ1hCZ89VtPmzfPDXDodEUQEBMUoRLG8No8QM+QW4lHsUugnqoWnJUOnkezp0t94Z/vb5Io5V4rPSv57xnz/LE3ZBM9zbqkHLKby5L//ZdOQEycMj/7wJ3mzhsOIkXii1BkkbSWcCfduNHbxXZwXjkbuG1MlE4FljAP2L4+FHi/S6Rx3H6LyOeveJZDUQqYnZnJYv9AbINKUtDXo/GJZPrA0QDii4wKmZsdUDEiY5rh+Ty4a5P5Vx9/v2ltbjA/gsudpjdNHSJeq4AIEodjDyY+ooVCMijIMhiKMXEJbedUAQfzAVDqJEry3JWuIWZ3beo2f/9d7zAPfvguc7qnD8lvhyRR1mtvnjfTmPj0abTWQYG3PJB0E7IxbEnAbokYSaHinu36x3R+rObNHDdzWGHr6+pNC1IjNkKQ9uvwrtTmsn73vLCcAJIAWCxRtHLl62anpzbi/kfjPCMp6An42DOMDQtcChwGK2I7GZ4lNg8d3I2SPLcjt+VuEWfoaJlGPVmxM/N6y7EF7mLM8NiA5eo+6OW0Erh8Ma4eXebjEHa1ziUdvg8rDWmTQyx9PSxbrVBiN8NDyxXzDL4/j5AOKrYqDrDGl6O8OqScCTa69jk6ufdTp06Z7z3xhHkS2Z4p9m3evNncdfdd5p133GE2btwYm67JaGKZlw6kdd6pVIA/6tDWzrj3rTroJXxA8Wo5DtuuytYNiLr839992Nx381WwQWNnlfVOakQgO+xp8cKswmFTGhROgLjEcOc7mz2tOlGRPu4EStqGpa7jGtYGk25bc73oHdyBhn02cEJxPwLFP/XAklGINOMpfuE9i4t6UR8EQzC+/OUvm5deekmUfBZ7m4KOsHnLFgF9dQ4dU3XasT9a30DcVeJsy26I245yQJ8sDEFkNPF7uphJFUjxNdP63XDlDslL7zT0UPbXVcKJRzJxIhiXeVAm8Hm9gl6D3dzhizRrJd6oQr5grti6ASvhLhExBkanTB8K0qnlCToN2t8GRX6SyW9Fb1JLt9DKbjdzoqQPlmJ0O3PmjACePg8eLO955sxpqeBSbPKvBl04nOJusQq4wN3pchTVjOmqJuiTiTcUU8RAo8YncnnmrCcH+/Frp+BF7DD/+MN3S1yOs+lLug96jUQPwz+01XIwhatRzldFtbBQl1tNnFt/ZUVWOIq1CLl3CebylLTVGNhSB80arcSS1QbLxRZUVd+9ZYO5dvcWJMy6HuHDreY7zx0Xq0xjPWw6rFVlV1EpauExBdGgJPShMAuar6R2d3eZXbt2mXPnzgkDIDPo6OiQlOdROqwWXVTvdtxNwzOcx1w5/0ITMjVk0baSvWxJOT0Bn+hakS+lD1aRFdOcuh5ePztg/vzx5xA0NWt+9qPvEjBzMmQX4IFF8Pe8VBnUbAq8ohYTYfOmTSjYVg9la8wMDA7CXKn5WBhjLo9KYFVgugsqb+RwlGO5gT3KFddCzJHeW12emZ4nsKf4TcTZPPniccn8zHTn9GHIYifKnhoHXPQm4+flG7uyRukTeKCFmWTM3/vgB83WbdvMd7/7XXPhwgWzb98+Cd8+dOjQIk6/WvSQSSjyDAHPFpMJiTbuIlKR4D2etyERcPFkgj62fTQksipYin9nhmRlwbxEEv71Ey8I0VmDSoeJmc3AuYJZroXX6DndtHmTAJP26F5wpB3bd9ocjgrTJIPB9NSDgwPShquvuUYyDrjJk+R+BTOm3D8wvh+955Dpbm+CR3vAnIL15lz/qIRwtDbVSSi2THgAPC+mYLUWOLFQLDfgieQf+SWsN66J3d3d5naUKXIVXOj/YKZiZqlIylDidl/FMuvOtAzf7RJTaS2DEEvhSqEsusJDkoKe1yWKVFKza+hXUyuMLLzSVG4Qp2Xir594UepRDY1Oqkyqc1y7w87K0qZ5Wa697lpzDBs+jrx8xLzjllsU7HGpa+/Lt2OoPMhKhDt27jA78aqBhWTNwW77Q/oRsIxE5SZ6WrtYhXH31m7zOibAMURasrJLQDRLa/lCEaT0kTcSMaSU30d+pjjDMkV8FTuqSRM1dRQ7dDrHGe5EwMUDEnH5QjQq91GOrwuxjAHeCPZTPf0A/5As265PdnOgjp/tJTkwi6YxJ/sRlM3sRflMzQNTCHtfUVvKzMlLpuDc+d73vicbL+64807TjCxfxc6PQ+RKnetodOpcn+w0Y8rDLmy8oUhzEcrsq9hRxdDioL2BCFDYApHzBSaxsFKpbiS+j2N+Fi0eG4hnk07K6ZOD3saMuwnA+Am5WaCrqOxGBkTFVLQTJ4NSyXSIt7oAL7sR1b/Jnb///e+bxx9/3HzoQx8KlK2lZPpi31OGf+WVV+TFosr33XdfIp0g8aiWcCEHXvLO48PY+Iy5ODAizqiz5wcRpDeACZDMUV7Co9frKQw4i7WwJwV90hUCzYOzRDi62CJUG2bcvF19VfyhM8pIZmPmYlf/Kr7AhRJ/QguQN0+Y6ev++++X5fgrX/mKuf76682VV14pIQW+NcKNWjH3Oq0TF1Fu83d/93fl+ve+971mC+zR0XN5j2ou68WQ9r+971azqaNNRL9brt6Fz03mZM+g+f2/+Z557rUzsl+WG6rfJkfVNoYnpyiUp7bmZmwUASDNKOJGGL5LHIsLyloauCvKmB8cOancXnzn5P7WE2dHU1xV1tJAx8ldd90lv3zxt3/b3P+BD5g74DncunWrghSzSIoLyOyyZkxr5BofnzDPPfec+drX/szs37/fvOc97xFLhZ8ZeK2B7gO4E4Flr53qMf/zqVch5oxiu+A5c8OBPWYjtlUexE6qvDCRki14l/rciMXl2dmknD456AG+Ww7uNCcQSHYGu3roRZRYuqDpNMZrbN3kFAsy8JMWTmZ0HXcLXQW79KEDu8XB7vaUMtCMVhyKJFS86E2kG/26664Tzt3dtVGSm6pYo5XzaJZkxoNnnnlGTHK3otbs4cOHxDZNBTkaWOVz/bWaBOKJhM7DTTgTCA0YwYQ9h6RZ3ajGWI9Mxds3djot9VIHc6ntj63IJgV97NkViBZo4hXY83o/4sG7sDNqYGRMBkkiJq1ooyuzzqvwQfybq0QDCi7vMtdgmyF/1VVC705QUyS5++67BbQE8iBs908gfqQuVy8x9uLEAhfkJKFpkitJCwo579hxyBx+x2FcD7u8raPkizLFxJxSR6XS552ElWYPrDUfufsmSXB7EJvnt8BiM4kcoJPYVSZtTc6WKt3c1b6f7imNcVQd9AQo86vfds1ec+2ebbLJmS2et65l3eTgTV5RfPXgt0wMRW9kExMWUfb3z+U5dMPDkkMRZXh4WLg9rTosPkZxxRUZoB5AwO/du9dcffXVIgYt5WVM4uCKMQaxTqWA9szR06b7tmuxOXyTbBG8EqlAOpH6/MIb580b2JSzfVOneLTfJgeBUBXQl+wIiBJepBQ6mmD77sBuH5rbKLZIKIGFt1hu6P632Qwo+0ikDk2RlFetR05WBrrarYzuOLPjyhRz6D286aabdNIUCSfwzZFRpbeYeLNWYo2b9BTn3oCl5vsoMM3tga/DRMmN82MTc6jg0gNb/QUxAly5rVoBYWs+tTi7YxlWknL6xKAnibILsDIF6TkUuGHIsLquXMYuISmTNgnzp2dWlTSx8DA3I+0UTr4pQv/ohCg2RFGnjDvHTZJqxZmsBB+xd4EQD374TqT/OCjOqD977Glzw97N5o0LCJtAZCX3Go9PTqy5hWmlvlTwd4K+Kpy++GZcP+CfXFWN7BaUtl20r8t32m1JoxcRQZ3JMpDovS5lJKZGBR5+LmUPazHu7L5bjnMvdU4xM2gYG+IaW5g6pFKDTBJ3g7M/+sxRbJQ/bt4H8J9HPtCdmzuQLWKPDdzWOl1iGFYLgJh9w2Qa9rswEGrFSbIcY/H7Voyeqywexo4OiLUseJ3T5JIFvSUhQ+u5dl4BT9lZqlqT9NatqN41FyPNAANea69fNheLr0Mn1qfLxuAiW7+1M9HBNQ/LUKHXsOzHhTegaAjnFIvU9cEx1QmPLMUaWsPqsKlk16YOzaogqFewuyhFxp+7b+QEG1Eq02OZ1VLuZM9d6d3vqbunT6uVnpOAUrEV2aSgLyLekIiuyfysvMZZQhjvPYOUc4s5s4OHXh/EhCTofbUviQ6gq6Q9i34qMSo/KRlCcGFoBPks2819hw4il2WrGUC6vkHE1bM9zBHq9sG6UAPH9W3AUkgmr3mlrJhx6Ru9p/jT40UMlPLI2BiOfYFtxSLQ+4xCLY4qwtBMSOAztcYILDXcd2mRbbmLRXoBMSoPllKoF+ecYMudbTcHkyZQRnuK+CNu58oDn8B5/thbCKvOmsNX7datlPiPaRHZJuartMKfXT3DqSd8XhYB2y4Zo0DODLpfsVgjO4zFnhGH1iuc65n6SrtrUkV2MSqDhKBKZAmXEauKlnjklxf7+sVe3giTI9NHy++yzKrp0cXRBbb3WOpJaR2uyFm0LkknFTzMszONHDPnz5+XHUzN2DjNBLAT8fSrkprGdB8vAPQTSH61EYmxyM0HBocwCXbBqjNkXoKow1WAOyvFg23vyjyWGqJLHUrFnyCOyZ7jh09HrVolNU7GXa1pyvfCz/71zkFY6j0rfV5S0C+GIzgbv3RWGFGVLHFZj5RgOAdQvPnmm1KftBlp+uqwu173dOqA8AaB2lX5ZbCitHOgmENmYIYx0CfAzdP0ETQiIzMzBhf4GyrwdNWa5rGz7A5z140HYKacMsfO9JgOPO95JGx9DXb6KW4TJCuBhcx5qwlBLAg2DEP3MjjGpH6RxUdSOdxX8osp/OFEqBhHiy0WJAX9IrFIFByBrG7tkTytkjd9QepGtbcjxhuccRjy6PjYGAZsHCKAKrCy3DruILzz0jnEw8sd2Dg2YRcXN1pwS9v4WOVz2pMu3C/6pb/9gfn2s0eRt7/ZtDc2Y6I1mduu3YtNJPXmZVRbp2bHUju6hVrZCJO4KmU19w3BF+QQsuQuBtKilqplhmclTh/er2JjvNYBZ1Zl4gQA6memJyVvCrOSSWdhwWFW4ixyMWZrUOtUHE20yV9KMPcHywmtDACtEcBz0JlAVQ5vg0alhpgMYsfGdnMTclmSUTyN9H037NsJI8EcUn+MmWFmLkZAGqNTuSdALTjOkK3A5z2OoujEX3ztL8wHP/xBqbbCiNRyD1qunn32WVSHOWuuwY6zm2++eYlVpNwnFVxfNdAXRamzw3Bpn0Rp9Qku+RNjaq5U7Rap83KIi2k1TRRvGpB+j2KRrAqFy90qaPkVpXQBqMOFSquWBJabyiqyDrzvfcfViL3ZAFPlWcQvNZqWBjjpuHEeNGQsDjeEb0aNqdZGpCAHs5/H8uBSBIoZGS08c/q0+YM//H1z4KoDEqjHsIxiRxwbO5V4BvoR+Az5WAr0Vuur1HjEDidNJN6AhHNRiUy3cHPjB7JiAfAXL/SaGYgxYbppnSczKJVETkgu1AGxpxZyva7AKtNrOAKPS4j7CzGsOU5CJuxR4S7oFGLRtA4kaD1jHn3qZeStvNNMIDf9QaTrpugzCtozLOnWa/eZN7DDaggBfT3YQyvmNhQzkDAOK/ZwzGhdI+AbG8GAVNKX98A6FXyz8pi4jAl+SLYjxWKxp1KYj59rPJnJMmPEOeXi37kxRGVyLO0YAO4vnRxDIJmEC+iZDgrk6vMMix0fgwKICEv5NfQvyMS5BMSdJZ0sAdCtflNBC47wBOskopLK6iwt2Jvw6DMnzENPPI8cnNMoV7RNRK09cFL93E++23zorkNSqEGqt6i9RtmJ/MNxg1IraRL4sk5CfidGfv5OC0z4uxOUZNy81dl9VpNo4bGSnF8x+Jd4o0ScHnOLG1eDzpFmTDJEQs5gj+kk7NWSD54DFHBupasSC5kpIf/xXNNZGCu5CmJwiaRY/6cJSUFD5q+8GptFrtyxxWzBBvG2xlpJ/5HDnlnh0jb0YAtMlz/97lukuMVXkAT3rfN9ZCkq1YuRoVAycODUCi6zgYKuxs1QVBMlGC+uEJpuJXQ6qQNqaVquB7E1Gac3WUl5RZJp/SJNqhlYB5hGW9Gt31mxxRGLX+XhrKK7XsQZJ6yKbExLQ5RXrH9AVquFpNU3njxinnz5JLYLjpujb5yTdObXX7ldwq1P9lyUnVNkNpL9eUuXuR7pEjcj3l7EDsvx7cgUNJtWKMrlDL+mQ5H+Fe5LoGm5Holx+Vn/rhOxiOdKxRdrvZKbOQnJu/MqAz02hhNxeoB3Vrm2Aj3sFFFrubmVDQtkc48D6G4oXR3cEaTsuQTEm2qBvNhzXj19zgyj7tarsNGThKwr9RhMmEzvdwYFLq65Ymtw2ZvYLP788TfMOcTpzGNJVnbiOLcdK9zEVWJxjIn7jd1n9bcs1hcdh+fK4HieXCP8rmqMS3MwxjgSgZ4+SJgk1eQqBMQzLetg9Y8skiOhsKOIOI4IvrOD60ANtv3lWJDYU5p0cSjuxYvRp8v6VJp3uWH+dXD0E8hwxihVhmGf6R2UsWeRZPW6wkKDWPtHfnTEfP27LyA1CAquCWVcEEKocLuAQI6RVHBZlNEt5E0+mHmu1uti9Rctk+RYYRXHsjqgR2ashTmU7cvP5XOaMo6EFEEHyx8sAVCuJuF8IhE0V4gqUfKJ5yJKMAcvYj1sw85cuRoBT5cb+jV2RhOyMq6eVKUoqKEcxPMCLDdwBEJxHYTo89B3nzMP/eAlc/zNPvHBqhvQGRVC5uhqdPmA90MS7Fyx41cosGtAIfLUweXr7sO2uFWgCkysOvH0NQvZmbmxscm5qancgiQBZWo+dW3XAcwt+XYJvpqidQaDJJnJpG6pCnwZrAQNEopAL63a6R2HiOsBvNyAvVx/JHLGioTUo0S4hDzNyEvuNOOmeWZD+Oi7b5PSo4/+8AjSJGKbpKhVEEFwDsMYOBI6AVTEdDK54/BRa4uCvjCmRhmYKs0aR5VHki6NOF9JstH7V2zkuF0wllyfSLxBt6aRZSibGRkyGVgQxKxlMxiwK41wOm3dvsOMDA2KaXIadnkqutT2mxqaTQtytjSI91LXAakswXlhqbXKik/FqL02N9IwD/VrYCUVI0LGNNXXmPtRi+qn33eb2Q6rzXefP2HODY1pKIJdCJzVRg1raoaYxC4ryu/k8u5wYPb/trJswRhFJwf/Vvk+RLR/r1Ua1yqJN4gwyM/OTuV7z7fkEWCV2QGXODmPWAY485Eqms4OyIZN4Obz4ACkQw1CD0hcav/kDsotNAS5iNK/Npha9091dl/hqeIiaaytMz9x94143SSFLcZgrx8Zm5TC0ap1qZ2d+oALShCaS9yQcmtnetTuL9arrHpqJ9ti3YvXM7KUZXoKrDl2RfDJquCPpXsuNyqxN5Ek4vRo7vR8c8uR6cGh+6ZPnDQNBL1Mbs/2iI/1yHoQurfD2e+6q04P79LA8lNg1Fn3MPQtUNGhFIoUWK3C7kRj8sNf1CoWlQGcRO6ASXIz183dN+4TwN98YJdpgb2eoHdtKuC6BVDTRukKq/YcxaF9dgHV3bh6LYzIJwQ9mR3DrJX5Vc0oEUu0YQ9iX8CL/r9f+tT8THPzGww3mH3rTTOLpElqp3cGMZ6l6bTVQ6eUlXrV1tDjWxF8+uodFhO5usj3n+82WrjvLKzdZPUaFjXThYAPprkVNZQe3rf2LgFxZKYI7QJmUkhdMQ7gtxyAdu3erWYHPLCNTPthsav8pJCO4X5Zte4oqQl3FXVkzAqArxNAQ5T5m5sYhaMR9NuKp2HP7CNWEvLLG1w/w2NJd0oEet55YmJ4HJXdzDy3qh09ZvKyYwhlLZ26qoIjiKqKVmDBsW5t0pYP528ZaFpKenpwLeatW1xDHKr7CpdydcM797yGQevf7Jury6pIti59ESe8NY+KogyLqKFKCw1+lP4yRa30mSEAEXDI37JfWF9i+WILaBwArbkxfgJZ4P4G+fyPnOxB3M2Upf7SY88hkfaB+5A7FxNFouEFxYwLQdhBRA/T4EIyCrtJaPVN0NHFdUXgJxJveNfJqalzI9u3mXbYjBcef8z0oDz7pl07IdIwRyWtCRwmpuzg2cpZUItbOYagXblHjYyARgjyOwZNETLZIs6QFXtToRPswq/tlKZG3PVSEUXbSwxrk52TTq8mDUIWwN94DfPcE2wWzJw4TkzwwSELgcrVwYtPEZ2UtGUhZDU+UianQ+p3/vzbqBs7aX7yvkNKb3s4HjJvLS3ue3pWN2zYIElr6Vn1j6jC6driT4boRBArEESbvr4+mKybgqzR0fuGDq8KDVaC2yQG/cTYxPeGO+b7N7S2oShGkxl75gXTjxjuNuSBbG6xNYkEEeSPAXo0xDUQGwl2YkeVqUDGFa4YewIn6P7iSwq8y55C51uWXHuDNOIyMWycqZUA2PWs1VmcVKCKIxmAS1yliqgwgAD8CniZRxb8vhykjkA1+TkyzoJTvI58/l/99jMScfmeW66JWFAK78l7t8IAsf/gAYl9p3k5mCRFRJFiAI/a39mvCViCXnvtNXPjoZtQgXCzZRg6tryHM4lWWJGNPe6JQQ8b/Q9Hx8f+ZrC19Wdqr7jCNLzyqpkBdx4E0Sd2bBcHVWN9I8xhLMVuh8eKrLJMy7iqKCBiggy6Cgay2luOH7tHZV8QTjYZnCA2IvzetlDBaZutAlro5XTglBWORYgZ0wJgcHuhThZXak7FHu20/OP1YPHEF+u6WGF4pgvoRrg2IlePvtFrWp6tN63IzTkjiXEjt/PuTC5/C6q2PPzww8KdWWLHVVsvNgFWMjeOIYz8xIkT5sLFPkmVuGPHjmDiLb52bRia61di0P/ipz899Rtf+ML/6GtpfV/D1q3bcwP9pgYblGdQ0GAKiu347t0IfW2GeRL1YGGelNlO0Eu2MrfoWo7mjY5MAmKJ8tEaHaV4Ed3+U9d0kc8pnsFMOAm/xCg80twSOS6vCaFJI5TODP5WxdGuZdbSIfdxc8i3jMjvoUrqKOemhlJJmQWTt/ZcHMK+WWxQd+VAHaOJ0JL1pG5DluaHHnrIHD161FwBxrVzJ6xw3hGswCvI5TyPm+JZkI0Zn6+66irD+/urY1RfWaOhlccmBj0vHh8df/Ti+b7f6tyw4VfMTYea2l87bupR/iYz/bqZmlswY/AQZhjLjXCDLGzJOjTWQmA5uTg0hHuFPE6rxyXWscukp7bStWbxBCjkxv7AzkFsyYOrU0bmPuBROOeGes+bCbwvgCHkEK1YK+ZEV0WXjyE9qPt4BAh6QFnJgZ7t0hXBXwvEy2rLDcmZIj0Vz7roc9xmrMQEJ4tPEPTc30ug6h7f8Am+c8nXM2SO2slALs+U59w19dGPflQKYjhnV5TLh3+vHVMrC/S//O8/k//ML//yH54+caL1igMHfiG/b099y9ZNpvXMG6b9f0GxauswU+Ag05u3mHmkxSCMmeesRhxSViDgUg3Wjgg2rAIakiB8cHXNXCtPjIiCqc0JVyaJyWLbLQhl0uLvOQBuFhYVWrXmEf/SgIIJpuctMw7RJrvniiOzXRs3ZLJ1WwJOLV5pgrRwkqsC656o3Fwi4EU0VBlZNt/L97p2sHkz4PCjyM7APcqBLsGfRPkuPFgP9pOf/KT57Gc/a1588UUpRMGJQDEnOtmj3ld3J8ryBPtTTz0l2Z8feOABqQ/gK+GFsvzKpI95RlQmXPHyskDPu//yZz5z8TP/9t/+BwSd9e3cs/tzSPrSOolqHg1XXGkasDew/fwFU/vKyyYLr2weUZUq3uuAOIWM1oine8+Yk+d6zdjIhJnDfk9J4LpODn/A6bLvhBJ414ErTXdtg8mB01ISs9WxJBZ9BqCnKbFhftr0NzfOjR7Y9wdj07Nfm2ttbUBM4r8AdLeoNK5mWoZj6F/2oCVETDWq8/BgXE17e5sog5rPkxYumgjwZNDL5bg51z9i/u6Hr5hJ6FaiCDst2CXB9WjKfpHjP/jgg+ab3/ym+eM//mPzAVRwuRMF5pxTMQp2B2behgFm3/jGNwT01BE+/vGPi9XG5+5RwJciOsYc9thLRtmgF+B/9rOjn/l3/+6/YYke2rxly6c6OjsP5hF4Nl2PDcuQ57NdHeDiEGIwYKHS6imMGJiOzd3IEd8Ha0KP6UUxhRma0XzZNiYlyj3dDZy/4rBa9sbt20X2nWlDOj3JmmwZjSiX4PQEPQAHuX5mZHLi6bHZ6d+Zmpr++ud+7fOTn/70pzehT2NybxFb7GGv9RV5Cd8Tbk+ujpz7EDsOXbkVuSrbsXMKxgIUYOAhOpBIRiqWzZHTT8BYipvDPyraACdQY33O3HNov9nc1aZX8X9OGqwAzIbw/ve/37z00kuyqftl5PO/+fBhs//AflRw6ZbYHHkWVzL0j2ZOFqP70Y9+JKsCC93xReAvLc5oX4spxEJBb2X15n6BKLfEmMaWgysCegH+pz9NY+9//63/9JuPTYyN/YOW1rZ/3tjSvDPHwLLmFje6MjDB4T6iww2mC2XfN5rGbdtNFwoXUyFcyWJQLrBXvF7AGRpPWV5zA+Tejs4O8TdPOv5sxRCJNJybG8VuomeR+uTRqbHcX37yE584GmB7bn4CHLmhYJAXNcLZ9H0Ghq15yCLBnPMff/9tkuBpZHxa2uCsOSrrO+eVil0EvRamqzGtzfXmHoQrbEeWBImIDVaRBYmFomjDRFV89fb2mp6eHnMOxagJanJvVnThO0HvKrhQD+CEoVizDZXFkx6+jlLI6Epi4msHetfhf/Hz//IsPv/6f/7ib3+1tbXt3obGxv25XO11UNa4nacBvEcFRkU/Jc0aWD1Q6lx3hzc21C9s37pVJYbwcHQpNFoUzCBlJN7sspqfte4FxkX52/pEF/0mWgUg436X21kNhO1lIs6JoYHBSXSBfjRs8l2g32fG6uMTkHF7kcD1ZWQ7e+QTn/iEbKsMDsxi3IuFrwq+Llzy7W8y38LzyJHbkK/yI3ddb85fvRM56JkMlwuGyItKTlvCyGpFIuuLWRMrLDn9JiSHqmWqEOvaUhOCHgQ3gct0IKzaQsWUL27yJ8g5EajoUoanksqSowQ7s9U5HaCgU9X7ozoBZ6X055//X//nGZz3Jzz313/11xpgr2c2ITExYyxDU3MhsH0wRoHpg9pNGveu2Cw8HBqizV2WfahjOFxryegdw7fmcQlpxyGqokgJfEEz//l//f8Uz9tvW5CrzaFyfdb6tDzxrsBEqV0JAC+CuXaFyn8t5uM2cGsNSVBFVixggl4XQKEbenxrvuhR4jVGw+XRDGWwQpFVjJ0DieBmtUaaNOWuEZPlUkptOSuzuyff9XMpKJNzYtc0rph4s1wTf+EX/w04Irni2/vAijcPHUdyBvkA8c2ePoXEXOigrJNRbDXKnm3sj2Xyga5kA9Vkf4PnudUsmIz2pnmYNjSVyUQk8hDmg8997+Jzonb3KMjjKKlybhGJnb4O7bdt18oSzvrh9G9veBfvfW0dbD01NdM2vkC5qJ0AAYdTPBfayq1S66xduhLYEy04BCZOHLK/qeRDKxABbtcFXZe8wL5CK5mzy/uK/FKT0vUyCYfX58gyEtDArSpBz2RSrnjEBn1sJWDFJqQnLEkBDcnIyIoneHRczRMvohczajGIhBROb5EQSGB6hR/2K2cJmGRKiRVIbThW1bUOr2IFlov5R/x2FutcIp9K0A14saEnMJWITtIQ5iWKOLF3TqWgr+Ik5c4xACRIlOVW7kWc0v5AUyHBMItAPl0T1Fojooli2WLEyfKWe8rEsDexWo9nILXc02okkf67GKIluThVDE/BLmbajUtSWoTo1ZVOrSzORG8fu6RmCvq4I1TG+XAmkY2JRUdXdk8kCe6rSiutNXQQTSLr88QEMz+rnKuKqwUHgK1mSw8pcrkDvBMhtCqjH9Agk6BYba8i6n+oXOpkix6+w6pk8tgucCVjZusJxCeJ442Z14QuIvmUcsQutFYVRbaUlr8dzqEhiEPqg8Tnms5L60DfjGjJ/ov9AgKaCZlOW4LxLPcW242Yw2iScWzfeXIZvmylGyf+BF5uF7zgJkUh9QtXHj4jKvfzfBWh5FOJckjBU3DNPByWI8MjZmAAsUn4m3E/LtJTFVnLHZYHRwr6dT15tDJCAf9ygGHYhWQJclwO6G6HB3gcXHAUEZqTyPvZ1oIqJ0jmVMuEWlZmlxuKTuACIazeWiKbXAt6iecazsdRJPkdH2N+pLw4xRT0EtRkqVRSKEoK+rUYxBjPXHIUGRLgHBO0n1PpZAWXTRu7kcCp1oyiSN3g8IAZGueuKS1AqvxWOW3AdUtijjFavEqnEuhsN73BdHB1dnYiZCVQvYM+lbCKBOteqU1NxZtSKVWB837uk/9H/tuPfmsJK5zCmAUtplDBBZt0ILEQGPTooYILshy0opBFlnEw4jELFwzrPKtAC6t7Cye2UXep56Z2y+Gdjb4EwLsGlyb927NT0Fd3nAXXxR7JmTCHILuJ8VEzMTqC8GQorxIXr3tqa8ERWZWxGWG7NcgQR4XPKawiybipVPBH9TsX54kuSE6bX5Ios9TtSzDnh5emoI8zSpU5tzjosdyPjQ6Z4f5+M8MidKHwIp+mIdtPw4rDMjtNkH9rsCnHenU8LcGiP9ikXpkGr+5dKL9bu5T1W8R8XizA896pyTImhStw+iLQcxmfmUVWMgR6sUaXGiLVYh7uBGEhi1kziD2os7Dd65zQ30UMEGePJhWJIRZUoDvJbxG1/iRycunjY4k3KeiTj1nSKxdxJoJ0FLWh5rEpQwfE7ieW+BSNp7fb56V6i9aoDZ1EogAH9j3dWbXej2icTjFb/2pN3hT01UfHIkRycCXNNfLGBGEysnmEaHYv5egLcOYgTTryg9qAzsBWHhrw1z/kFxO9GJcvkfMXhIGXMpypTF8KlSp7TlFMirEuwqH9EyUTnIg0lsPLKqAijuNc7vzV4pCVJIP6s4IWlyOSMaxj2ZDuaLtTTl/JkSzhXrDIWPEmNC/TElOHZLcwVEv+eU2I5cUDeHmDsvDM1sJ6U8MCZ9Zk49z2wawooR1rfkqRcIfibfKjhgrPsLcYxreFm3VW6FwK+iqPPsQYibIUO7uLJ6BFBhu0a5BqL59heXvLBCWqMjTscXI0tHbCclMv8TYuwUGhIhvbmFFlCtjHhXLcis/XUKNw3ZPKN/iO0ZlgIr24Qay9GinoVyR5ZU8YnJrtZ/KxPKq3MLmtgBcw5x5Y7lbCvmIx5Mt6gAkACz0+MGAMm7hR2mjDpo2mAZvuVbKxIcRRsegSUGRLpSqijsw8+kOakFqkC7M/TGIrDpNbzcxMH8McKEzGucLNU5m+VOpX6LzJ6fnJgYkZJH6qM3WMMxEZXTKzIgcoMhVAbMkhsGwK+1KZSkSKHSBJVCNc9a0d7VLeSDLFcU7YOPwKNW1d3sZFFCl3thtiFubMG0OTpiG7MLG7rvG5XE2tmrNKPFLQl0ioSp1Wi3o5P3xjyNyVqzfbWuttsihu30NRg9qs5KHJgevPwQE1jyWBE6IGMTg5FF/gRHHpBO2W76LNuhQU2VLpGRZ45prI9G0aVdozOmPac5mp3Z3meKn3cueloI9LsTLPX5if6ztxcdLcsG3WbG3RxAh2R6jcmQWPa2vAzRGPoqWJQgtHNJY9uoHjcgK7I3Og01vdhu630YlZBN7NmPrmmmEQaSjukKQyfVyKlXk+UoOcY0aDgdFJM4wiChxESWUuGzqcRUfNl6rrkqerKdplPii++SR0VpXZxHV2uVVh7XaBKZTufLVn2MzPULzJvwpa9MdtcAr6uBQr8/yF2amzOxrnBl9D8ePXzg+KU4p7VdXmot5X5qvky9mxA14vlszQOhN141+OnF4II9uossjEnDdDw6Pmu8cvIIHSzOimxpqvQvnnPsNYRwr6WOQq/+SZycmBA60LZ3sn8uZoz4jpv3BRylBmWKxBshJzq6CWypR6r14iVsrzPtB9kBebDOW3du3vwMS+kgId+2iHEapxFFXSZ5FDtM7Mvt5Yk382SQtT0CehWhnXTI6PD0+PD791bUfGjE7nzSPHh0xP7wXsjEKaPtrjbO7KcE+gmitZHFmmwQqRiJebRacGXH4atLmIbZNHzvSZ77w5ZW7ozExta617CCU8X00yFCnok1CtjGv+zS99aq6/78L/6jLj891wwvbBrfIogP9mz3nT3z9gxmCqnAVX04J1mpNSBB/rftSgA5f9oNBpw/PUkbvW0TcuZ8NiEU17Y5OReM2MxtmwftUkQqn7EGpNpvD8mwPmWP+U2dmSMxtrZ77d3tjw5T27dycKwk+tN2UAOOmlfb3n/2tLa/sHtrQ13DcL58vp4Rnz5JlBs7970mxub4LZssHUItwgJ0nww42BYrST2PPQh6+GPK4QXuiOyMFJW1eB64JJR3EsDJdgI9k0ybMfNNFpM0EwtQTVsfDzJPwU5yHDnxycMRenUBW9rtZc1Zl9rSEz94WbbrzuWNKWriVpkrb5srjuS7/3pX+4ZfuO38w0tnW/NVNjXuqdNvvaMmZjfR5levKmBWnOW5HPn6INrTcaY8+tgrRV839budHG0rusIEocQmqtFnGbfc0l5ZHAOAW+JqFygXMuiNpNBVmnZFJPTM+acXhbJ+GGHZzNmmOjxmxtrjXXdWafbTRzn2tpbPzGrbcejhVv44MmBf0aTqE//NLvf3rr7t2fytXW1czlmsyTfQvmzeFp05qZNTd2GrMFA83Som4rXZAL35o2NTOHmjLzklBZBKGCOJVqdo+P19TgOuWEdwv4+YcrJaqQs64m+aT9Ymco1uXM2ckFc2wkb85NZCTT8uHOrNlYM/vDzPzMz8OB98w999wVK6oySoMU9NVERZFn/d5/+b3/e/eVez9Xk6ttmkYW8/lMzowv5EzPeN70T0F1BXN3gWUi1xPmBBCQND+OnDFvnTSnj70i4oCuCpoaem0OzaOzwPz3inPJ68zUsVTEt+09YHbuv8ZkG1GtxE1cmSNac4ype2bwT0sua7Ygi/+GBnwxO9VXnzGP1Gbyv/Hud93zQiX6lYK+ElQs8x7/7b/815/Zsm3rrzQ2t+yuQbjBLEAzNruAoCoC3gbaSKShSsKuFm+emRPGh03vW2fMORRRYNIkysHhzpMyG5bgcgJKNA7rTWaOnu6uTrMFue+3bN9p2ro3oFOqSiqHV77PQ4y2WL4aMMtbEGLQAJPkfH72DzFn/ua973nXhQTNKXpJCvpKUbLM+/znL37xlraOrn/a2tb+QFNT44Za5LpxthmbvVI5okjGNGGqOptB8NUUNpIP9A+akdExyX2px1pxe/d0bR8zlrWhVBHL+AQZzITPh55WncgO/NLb3oV8/mE47v7j/fe/P5FZcrnhSEFfJlgrefkXPvdrDW3t7fe2tLXeWdfQcC1EngNY9jcDI3WAAlMeZ2sW5rMQFVBmVwQJ+LGkRoTVYzVugRDy0+JE2uibhCrZfI9nB/Yl8bZBeeUXVDoYDTmFv0ZQTZ1LEiPtGGM9i77NItfnJFa2Hpz3NOLkf/+Bjz4AFbbyRwr6ytO0Ynf8D1/4fGtNNtMEXbYN4kIbwIKwTDplXS1BqcIB/02mdn6BUed01vNHvlldMpR1nCGT13AZ8d+Z+ZfZlhioD++BvPidnzKP0oeAFq9JvCbwGrfv/I5LDBohyisVTYIZ704T4W/cRMDr8uOohjKLCY0Zm0V4fE0e/cxna6HP19bN/pOf+7lE9veKET69UUqBlAIpBVIKpBRIKZBSIKVASoGUAikFUgqkFEgpkFIgpUBKgZQCKQVSCqQUSCmQUiClQEqBlAIpBVIKpBRIKZBSIKVASoGUAikFUgqkFEgpkFIgpUBKgZQCKQVSCqQUSCmQUiClQEqBlAIpBVIKpBRIKZBSIKVASoGUAikFUgqkFEgpkFIgpUBKgZQCKQVSCqQUSCmQUiClQEqBlAIpBVIKpBRIKZBSIKVASoGUAikFUgqkFEgpkFIgpUBKgZQCKQVSCqQUSCmQUiClQEqBlAIpBVIKpBRIKZBSIKVASoGUAikFUgqkFEgpsMoU+P8BW5ArGw3Qg4gAAAAASUVORK5CYII=;" parent="WIyWlLk6GJQsqaUBKTNV-1" vertex="1">
          <mxGeometry x="10" width="93.46" height="109.78" as="geometry" />
        </mxCell>
        <mxCell id="5MIRYiNxWabYfLPJPBUw-16" value="Bluetooth" style="edgeStyle=orthogonalEdgeStyle;rounded=0;orthogonalLoop=1;jettySize=auto;html=1;entryX=0;entryY=0.5;entryDx=0;entryDy=0;strokeColor=#000000;" parent="WIyWlLk6GJQsqaUBKTNV-1" source="5MIRYiNxWabYfLPJPBUw-13" target="5MIRYiNxWabYfLPJPBUw-15" edge="1">
          <mxGeometry relative="1" as="geometry" />
        </mxCell>
        <mxCell id="5MIRYiNxWabYfLPJPBUw-13" value="Kinesis Wearable&amp;nbsp;" style="rounded=1;whiteSpace=wrap;html=1;fontSize=12;glass=0;strokeWidth=1;shadow=0;" parent="WIyWlLk6GJQsqaUBKTNV-1" vertex="1">
          <mxGeometry x="4.55" y="100" width="95.45" height="40" as="geometry" />
        </mxCell>
        <mxCell id="5MIRYiNxWabYfLPJPBUw-18" value="ScreenShot" style="edgeStyle=orthogonalEdgeStyle;rounded=0;orthogonalLoop=1;jettySize=auto;html=1;" parent="WIyWlLk6GJQsqaUBKTNV-1" source="5MIRYiNxWabYfLPJPBUw-15" target="5MIRYiNxWabYfLPJPBUw-17" edge="1">
          <mxGeometry relative="1" as="geometry" />
        </mxCell>
        <mxCell id="5MIRYiNxWabYfLPJPBUw-15" value="Tablet" style="rounded=1;whiteSpace=wrap;html=1;fontSize=12;glass=0;strokeWidth=1;shadow=0;" parent="WIyWlLk6GJQsqaUBKTNV-1" vertex="1">
          <mxGeometry x="170" y="100" width="80" height="40" as="geometry" />
        </mxCell>
        <mxCell id="5MIRYiNxWabYfLPJPBUw-21" value="API key 1" style="edgeStyle=orthogonalEdgeStyle;rounded=0;orthogonalLoop=1;jettySize=auto;html=1;entryX=0;entryY=0.25;entryDx=0;entryDy=0;" parent="WIyWlLk6GJQsqaUBKTNV-1" source="5MIRYiNxWabYfLPJPBUw-17" target="5MIRYiNxWabYfLPJPBUw-7" edge="1">
          <mxGeometry relative="1" as="geometry" />
        </mxCell>
        <mxCell id="5MIRYiNxWabYfLPJPBUw-23" style="edgeStyle=orthogonalEdgeStyle;rounded=0;orthogonalLoop=1;jettySize=auto;html=1;entryX=0;entryY=0;entryDx=0;entryDy=0;" parent="WIyWlLk6GJQsqaUBKTNV-1" source="5MIRYiNxWabYfLPJPBUw-17" target="WIyWlLk6GJQsqaUBKTNV-11" edge="1">
          <mxGeometry relative="1" as="geometry">
            <Array as="points">
              <mxPoint x="460" y="161" />
              <mxPoint x="460" y="80" />
              <mxPoint x="650" y="80" />
              <mxPoint x="650" y="230" />
            </Array>
          </mxGeometry>
        </mxCell>
        <mxCell id="5MIRYiNxWabYfLPJPBUw-24" value="UOFG Image Via Flask Server" style="edgeLabel;html=1;align=center;verticalAlign=middle;resizable=0;points=[];" parent="5MIRYiNxWabYfLPJPBUw-23" vertex="1" connectable="0">
          <mxGeometry x="-0.269" y="4" relative="1" as="geometry">
            <mxPoint x="20" y="4" as="offset" />
          </mxGeometry>
        </mxCell>
        <mxCell id="5MIRYiNxWabYfLPJPBUw-17" value="Laptop&amp;nbsp;" style="rounded=1;whiteSpace=wrap;html=1;fontSize=12;glass=0;strokeWidth=1;shadow=0;" parent="WIyWlLk6GJQsqaUBKTNV-1" vertex="1">
          <mxGeometry x="304" y="145" width="110" height="50" as="geometry" />
        </mxCell>
        <mxCell id="5MIRYiNxWabYfLPJPBUw-19" value="" style="shape=image;verticalLabelPosition=bottom;labelBackgroundColor=default;verticalAlign=top;aspect=fixed;imageAspect=0;image=https://miro.medium.com/max/924/1*mRuCeuTtn3Nncus34QmdDA.png;" parent="WIyWlLk6GJQsqaUBKTNV-1" vertex="1">
          <mxGeometry x="289.05" y="40" width="139.89" height="60" as="geometry" />
        </mxCell>
        <mxCell id="5MIRYiNxWabYfLPJPBUw-28" value="Txt File" style="edgeStyle=orthogonalEdgeStyle;rounded=0;orthogonalLoop=1;jettySize=auto;html=1;" parent="WIyWlLk6GJQsqaUBKTNV-1" source="5MIRYiNxWabYfLPJPBUw-22" target="5MIRYiNxWabYfLPJPBUw-27" edge="1">
          <mxGeometry relative="1" as="geometry" />
        </mxCell>
        <mxCell id="5MIRYiNxWabYfLPJPBUw-22" value="Virtual Machine" style="rounded=1;whiteSpace=wrap;html=1;fontSize=12;glass=0;strokeWidth=1;shadow=0;" parent="WIyWlLk6GJQsqaUBKTNV-1" vertex="1">
          <mxGeometry x="10" y="390" width="90" height="70" as="geometry" />
        </mxCell>
        <mxCell id="5MIRYiNxWabYfLPJPBUw-25" value="" style="shape=image;verticalLabelPosition=bottom;labelBackgroundColor=default;verticalAlign=top;aspect=fixed;imageAspect=0;image=data:image/png,iVBORw0KGgoAAAANSUhEUgAAAggAAABwCAYAAAB7EojmAAAAAXNSR0IArs4c6QAAIABJREFUeF7snQd8ldX5x7/Pe292CCMJhA1uHCiQgDhxzzpacZMEd7X272ytWqVWO9Taqq11QgJunFWrdeIWAlLBLbLCSMhiZN573/f5f857b5J7k5vkJiQUNOfz4dOae94znve85/zOM36P0Ft6JdArgV4J9EqgZySQk5+F2EksmLOiZzrobbVXAj0nAem5pntb7pVArwR6JfAjl0D2tGlgDWZh4e0/ckn0Tn8HlEAvQNgBX1rvkHsl0CuBHUQCE/NysXUwi2b/eQcZce8weyXQJIFegNC7GHol0CuBXgn0lAR6AUJPSba33W0ggV6AsA2E3NtFrwR6JfAjlUAvQPiRvvgfxrQFVOB064cxne6YxVwH0K63NNXT9WfNk3NN32YMW1lmWPBFFwHg1spgK4fe+nFh3JmD8SScCPRDtRT8r7DoifJu76m3we6XwISL4rAaDkGZgCUBhI+YXzB/676z7h9mj7TYCxB6RKy9jW4bCQg5uUfiaPa26W4778WyzIH6L4oKv+jSSCedk0bA8/Mg6OpiEfmKhbNf7OLTzY9l556H6sBOtyOWg9d5l0/mmA18+yjjzhuC13kPdOfggAREXyF51SnMmxfYPgbZO4o2JCBMyLscj/UX1PGG3t8WbE7g04L3f/BS6wUIP/hX/EOeoJCTdzfIL3/Ik4x5bmKB489l4Zw5MT8TXnHstIEkxs1FnH4oWSAD0Y6UEeawoxr4HqUKS/7D/Jl/6lL/4Q/l5D+BsA8qwxD6djgOM3d0DVCCo39hYcGTWz2G7mogO+8sxJoNjQeMCxJqcZjAooKvu6ub3nZ6QAL7/Lw/SXXzUB3bovX32ew5gW9mbumBXrefJnsBwvbzLnpH0mkJhAACvQDBPXMsUHsaRbMf7bQkG6+2e16aQkJdEnYglXhrfyz5Haq7BK+9rUodwuNg34ttr6UuUM/AsvpuuRUbbQZOEv7kPlh2NhaXojoJiI8chTig8xHPHdj+RdTHV5P5/eZuGUMXhdjqsez8aYjMbAEQGrDtcXw656vu6qa3nR6QwISzMvAkvIvqnhGtq87H0/do5t+7uQd63X6a7AUI28+76B1JpyWw7QCCHTKrS5Rz0tXsh4oT5cZtbuGmitXDrhJbDxBavgBh/LQ98HjeAh3c4mAG1Vls3PBzlr3a0Ok317kHhD2nppCSfD8i54RpE4yw5+L4LmPRExXbrU143Pkj8QTeRMQArUYo9iJ2/FQWPejvnCh6a29bCcywyF5+NZb1OyAp1HcVaudRNOelbTuW/0FvvQDhfyD03i67SwLbBiA4DmceO5n0tFQ2VG0mHCPUNfj58LNlbNpczd47D2PfPUZiIdQ2BM9Mj+Vh95FZvPbREj75Ynl3zTt6O90PEIL95OS9DhwV0akxK6jnVIpmvtmzkwprPefs/SDuDSDD/atIBQHncD6dvWSbjaGrHe139q54408BJwtYQbw+zUdzNnS1ud7ntqUEZlhMXHkScACO+rCst1kw653tFpB2p2h6AUJ3SrO3rW0sgW0DEAI28x6+kUPH795qenW28rd3v+WT19/ksZvOJzU5MaoIrvv7XP5c8DKEaxu6W1g9BhDyC4C8iOAIkbXU+/dnyWPG7r9tyuSpSQRSXgU9NNThx8R7juHDH7gdeNtIt7eXXgm0lkAvQOhdFTuwBLYJQPAKfPv8nYweEry4hpeagPJcsY+xqQ77ZjZqIFtLdNZL73PezQ+AN+QI3RNC7ymAkJ3/FyyuinQUtIpBJ1JUUNITU2mzzZw8419xjqvGUX2Mmtrz+HKub5uOobezXgn8WCTwvwIIM0yY88lpeBoyEU9/Av5lzDig8sci9t55do8Eeh4gqLqmg3n3/4b0fqmtRr3Jrzyz2sf+/ZS90qNrD8xD7376NVOm/x4S4rpn5tFa6SmAkDP9D4j+ZvsACLl/c6NWRATVf5Ky6pfblUNiz73d3pZ7JbDtJbCtAIIBBAknj8AOTHBNOcIkVPuDVYKwGI/nfX69378Qae3kpSpR/77tpdXb43YmgW0CEM44ehKzbrqQpCiHe2mdw4vF9WRVrOSkyZGOzuGy+vz7NYw/9yb8jc6OPSHIHwVAMGGtXN4LEHpiAfW22WMSOO7yBMo37o83fikfP7Lj3IS3BUC4delw8P0VdY7CIgUVG4sbwCrEt6mKGVNsQxzS9G5uX7ozvoZTQQ9C2BklGaQe1WVY8jb+LY8x47BeErIeW8w7TsPdAxAal160QD7H4eYLT+Hmi38aNc7vq002j8z7nLFxNeQef0Cbklu7oYoDLriV1evLjXNdz0i4FyD0jFx7W+2VwNZKICf/WCx5HPH8lE8enre1zW2z53sOIAi3LdgX5QqQU4EURBbiOI9gx81lxriNTXP84/v9cZKPwtETED0I2Knd+Qs2ynyEZxBnNtdPMhFOveVHKIGtAgjmmO4Xb7NzPx8bfR5Wbooj0IJEMM5jMfPmCzn32MlRxftBWYA/PvQsU8cOJf9Es3ajl7oGH0dcejsff/Zdzzkq9gKEH+En0Dvl7V8CMyxyVjyCWLmodTRFj7y1/Y85NMKeAAj3fJfGlo2Xo9yAkIjqSvDeTmnJLO49vjlkesbCDOLsU8D6DdoBKGhLoMIy8FzC9ePe7jVD7DCrrtsGulUAYdzAOv5y5HqG9fGxxWcx67MB3LcoAyfsgt8nPo4X776KwyaMaTVoE8Hw8hoff/zzP7n8uAlM/8nBbU5MVZn6m3/w7FtFvRqErXn9LnNmr4lha0TY++w2lsCk/P1x9BVE+qGeHzdA+OPiHOzALGAPUONcfAsBCpgxMdLZ+baFl6P6f8AoEy2+lW/MsF0+RKZcx8XZvbwjWynMHenxLgMEj8I/jlvDCTubtaO8vSqV5DjliS/68fKyNHwhlJCRksgHBTNcLoOWZUW1w6tr6rjnT3fz658d3C5AMM/e8vCL/P7hFwhEI1PqDqn3ahC6Q4q9bfRKoPskMHZaCgme2YCxUTo/WoDwwMI4yl2SsztA0xH5ALVu5MZx7zf5Fxhnwz8umojD74EjQLuLWc5QwS/D4hdcn/Nh973ctltyqfEyMlJxvMPBHoF4TF6ZNETiUScAshnLLsVxVuD1FktpaU1brWlG1gnYukqqSj/v7NjdcaQN64+nYS/EswuiQ7Dog0MAlSqXnt6rXxMf/62sWVMXrX0dkLUXwglUlNwp3ZKIr7Oz6Hr9zgMEhYykALccWspxO2/GE9IW1PmFK98cwifFKWz0WzjG40CVoQPSWPzkH8js38cdpZuq0Hbw2zZvlcPqzX7+9se/ct1phzQBBH/AxnEc4rxegvmTguW5dxZy7g33Uxfoofw8vQCh6ytp2z4pTJjgZdGi3tvMtpV79/Q2daqHuWUCMSTayp5+MqJPgSYg8uMECE8/7eGb0b/D4jrUbKFyD6Ubro80J7zjxZt6FXAr0B2hXjawBJVZiPc5btxvbfe8/PZbUbDIyNgFtX6JWKcDmR32qxQjzITAA5SXl5iTp/EZHTQohYB8gejdUl761w7bCqugRvOSkXUFyvUIA9p5VlH9EpVbqCx5JhwEaL9R/fDULQZrMcIfsPUwlwnQFEMuHA7hGv+7MZdv428R9exSqSgr7Mw8tqZupwCC0VOdsMtmrpxYxi79fRE5kd9YkcoFrwyPzGOoyrBBA7jrirNISYpnWXEpC79YTvGaMmoafDQkpjJmwr588t4nzJh2JJPH7sr9z7xN0Wff4vcH6JuazB67Dme/3UYwJLMfS75fw833P0e936zdHii9AKENoc6wGL9sJ7yeQ91FrQmz26Q4npKfyGZnNzyeseCMcjNb2rIcy/kMTfpmq6iR980dSrzJJyGnI1Z/cM5mweygA9WUKV4qhyd0elUsmV0b4eHttjXDS+X3sbWVUu/w8dz6dlgBhQnThuM4u+Lx7oHQP7g5iB9LV2DzPfW13/DlXHNL63yZcFEylm8vHA7Gsitxkh6LkPHu5/UhzR4R7LN2DYvmboqpE5OiWevHYDm7Ynn2QDFhsQb3r8bR7/CzgiWdYLI0moB42Q2VE/BaR+DY8ymafV27Y5kw7SAs62kgRFNuAIJ1Ij7/e20+t6S+HsqEsZ1cC5X1DmvmRr0BssvlCSRvjI2AZff6eubObd6gttYHYYZaxC28D+VChCqUiwm88jwzZjSnhP/L0uE0+P6O4xy31eBAWAjWQ0hgHr7UlczYa5txpOiArOlYnAeMc50um4qai8AXIN8ilOO4u1AawkjQcSBpblWlEtEPUO6lovQt94qaPuhPiPwK5Q6pKPl1TGvfNJU+6HAs+RvKXmHHuIFnqxFdgrIJJBFhJzcRmYhZH+bmavht3kLlA8RJBOsc4CDUmHX5HPTk4NxkPGD+daTlUdDPwFoEzhbQtVK+4c5Y57G19WIGCIkeh7x9qrhmUhkJ3uaImYAjeG2H1xanctH8kWBFhtkaJ8WxOePJGjaE9IwBJCbEs2njJmpraileWcz6FavZtKWakw7Zj0XfFrumiSGjRzB02BASEhNJTk2msryKLZu38NVnX7BuzdoIYLK1Aoh4vhcghIljhsUB32cQ8I5DnTOCVNEmM6TMx447nEUP1kbI7qCz+9OQcDTqTEM4BLH6NAN5g6mdKix9GE/cnzoRpiZMOmsgTvzeqExFmIKwe4hPwoSz7NNENDVx+jHg/BqNwd7apJSy4miwp/LZ7PDbkTAx9yyQn6PuRtRBkXVsti5qlZXQHLCe2j1xPBcichSWlYJYJjGR4NiZrpo4qGWrAS1CeZAEz8sxsVoaUIBvBOjRWJwEeiBiJYJ8QH3gWJbMMepWYXzeeDzc6ibpMtuQI1+g+jQe5z3s5LUsGlIJYQdNI9DaMuJgxLoa4SDESgE1jm/xoHGhMRtA9A3ooxQVtr1ZmXFK7XCwjkLkZJT9EQmSoYg+zYJCs66iFNcpcQxYc8DZLyzRmbk9LwFtC+R4QH6BowOx5DedU7HLclJGXci8GZHqSaPtWJVym8stYByh2itmXdnODSya80FTta0BCDMWJhPnuQMNXAryHY73VG7arzkVvTEp3LdqD+zap/AH9sFcnGzb1dx2rmgVyEJU7uS32YYWfpuVoMZg8DhE70UJ92Q3a+xLlKfwOIWyYUNptEGpWZcDBv8EUQOgJkIIgCtGa2BMEfuGwEOhVJTkdzSxoGlj0E9AHg8DKTaqi3DkFqkqeaVlG9pnSAbxeiXoOUHQ0qqGH4dDpLL0k8Zf3HkPyDway7oHZNc2xrUJhyulssT4nPxPSmwAwYFLs8v51f5lEUzHxhXg3WUpnPBdJc+t78tF9SZ6JnJxJiXEc8WNVzN6l9HBfSFoeXC/NUcdGuoaWLViFd999R05B+aQnpGO1zUthICV+ehMkwJzHpjDB2+/h/aGOXZ9sXTkpLjn1HjikkYRZ13pHsiuk5Oa23TwWBX5BDv+iCaAYDbQlSnHI9atqLM7gkHSftQ9UFqgY7ERfYtNntPaTfNrxpCSsi8YJyvJAcxh2DyG4OwjAUJ27jgsudZkvkDF1G+RtTIkMnNIO84iLOtbsFZge+5n0YORB86EaZOwvOeBcwBYo8EJu800iV4RaxOO/RQL634JYWyU7q2+4Y8guYhWE7B+g9R+zCZvGenmELFGgPdMxDEq4Ub6UB8q/ybAdP5b0Byi1vymDXAZgJ+T8Vq5wD6g5uYUdrOV92mwj3MBwoRpI7Ask3fDbD7hccEBRIzWZA2q/6Co4L6mLowWZsuIm7DEyN0c5PNQ/oLjr0S8aViaB3Jac0ZQeZuigiNaLcaJuenYcjqWnAlqbmB9W4yzbYBgxlAz4kywbgc1jksxxjS7adNX0eAciEfT8Hguc29usGcQ2EQr4gP9BpGPwPqI40c8GnEzD54swsQ8EwlgAOj+qGcPcFprlyypwtG3Ue8MFj7SbOveGoDwt69uIuC/GUc/xaentFLzz15/qAQa5mLbmQQc1JheA3bzP8ckam0XLPjdg9DiT6zkex7ctg6Irgo/fZC51f8aCWkBgjJfD1xMvOctWbcu8iLSxs6n5jvoP2gMHrkXaKSSD6/9mpSXGA1Lu0UzM3dFPR815atxTx99EHGukbKydrV8mp4+FPEWgrT4JnQjtmdfqVq3umXnmpFlxhotbNdB9QoqSv8ebjLpaPzd/XuHAMHs8MfttJk7jlhPanzzhcq4BsxbnULil36OLtnI/9WPYFagtbnIEuG4U45n8NAs1qxeQ8AX1Fh5vHFkDR3MiNEjyByUSXx8PLXVtaxds5a1xWupKNkQNLcBffr1Y9DgQbz0zEusXb2mN4pha1ZBRwBh0vlzUOenqCZGvYE1AoQ+3/qoHrEP4rkO9BiEDSAvo/Z8VMxL2gmRg1DH3PyDavVgMaj+txSNur3V7dX92WT/W/FzLOt2VJPcDTp6iQQI5niYcJGX+CovdtKxqHU36PAWj36Jen5K7ZYVDCxzmDfFiT4GA42meGCUl2pnDCJXgZwRdtDUIvIIKnfgxJVEqPQnXJSB1WAQ/7GILCLgXBQ1GZbRMEjdmVjmhqiDQuNURF7E4zm/lZbFTZucaNIm79rOgRcECA1xFn2dOaiaBEnR5SeWj4CexqcFoYyKJqHS8ktR68+umlqdBwhYv40AK0bV3m/zGQimThbIlxQVGADQXCZc1BfL9zoi41H1trwwBCuaw7wNDcLEadngecUFmOZ5IZJ+ValGJJoTkoMym4Wjrg6+0yle18wQL8dhyR2o680fVkyac+cqUqwHYGWAefPM5taWxqh5PdTYx4PnwaAGyC1mk3oc0VuwE1ew6EEztuZTuUsAQYUHvs/Fce4nYC/Hlp9yxR7fRAy/oPhnAv8EDW66BggYQGCAgh2gSZvQCBjUgIWIFl4CvZPPVn7I3NN7yGbbxpdrhtt3RH/iGv4ETAdpBHBmhC+b7LJSWVnc9tPttOv6HHA9yDVIRGr7TykvyW7vsHU1AQnOx0Bz1ljV56koPVvAaDQ6LDpkSDI+5xlzbDZXlu8oX7+3QCtzjfbr1w9vwkoQA6LDSw3qz5GKiv9pOvsOAcLu/Rt45qer6JsYWkOq1NsWxudgbUUcV61cy+KaFE6v34WqtrS7Ru1litEKNN7+QwvaAJDd992bUTuNYNGCxWxYsy5YLzy1s1FVODZ4jAYxxgtFh68ySoVeEwNMyP0tljUFscaiTlqrm7hYH4P9ExzrPCyZgRp1r96Fk3B3FP8CIefcqeB5wFBmNElcrI2Ibx/mR01UJUw8dyy25ydYro1uV8QajTrJLQ67lgAh8oVOyD0by6iow7UY+ipFs0/odBZBcyNWM29zOLsHy20Uzb65VTvjpmfitV8EmYywhlrrAD6f1f5Gl513GSL3hI1TUbmKhQV/i5jQ7if1IbXfn7Fcxy3zXqLcikMahATJQ6x73HejWonlGYi6WpDmcDdhJX7PgSyeuc7tZ3zuWDzyNrg6ji9wEsa16S+SnXcllvwFZBkLZu0WMU4DIvpXnQbeAxAdg7J3SO0bruloGyBMOicN27sPYimiE1C9q1n7YGTP5SD/bfX1Bmwlbsu3LHi+NalPTt7piBQGQW+oCPWoTKaooHVb7e8dQnbeXISfhd7/y8R7zmnTNNQVgDB72UCx4z5176717MOlI6uahmTMCnNWThTHpJAPt9OHDdrsrWbPDdhok0ahUbvgVCJyNTdMMAnk/idFDQBNz3oYwWjCwgf+MuWlpwhsNWDR9EE3IGKiOYIHhupaKkqHtwsQMgZeDNb94QNC7EOlrOz9zghKMzN3QT2fmrttsG/ul4qSn0drQyGB9Kz/IiZsNaKUof5xUlGxTZxD25pf2wBBYc+Meu4+ai27pzewsd7LF+WJfLw2mXiPsu/AOnavruOND1O4xz+I0ra0eDFIdmR/H5cfVMk1z2dFKExjeLR7q/QChOANfs8NycRV98XLoViuyq7Zg1ekFEfXILIzwkOodT+jtqyKcMyKeCvGnrzyBtDfhZkpbFQupGhWe7Y1YfLUREhLIlC/M+o1G8rYsKbbBwiTzx+AHTAOS+EEHKvxy6H8t2BlpxbOnlNTSUl+BeQQ10EJPbzJObKxIePYWLPC5Lkwqm2jHryJhaP/2IaGorn7/fL7Ec+bqBoO/cbyLVbgiFYAyphe+sQPxO89AEtORFyHp6CDllvkPTRwEZb3X64joeO9AqndiMfbB/Uch+h5IGNxufe5lwWjr2kaX07ub8G6JWTPm0tRgQEi0cuEcwfj8X4E4m8FEBqfMKandX2SqaUP4j8Br+cfaOMm0Y4GIbzHnLwjQP7dBFK7GsVgtDVWgzGlXNAsKnM1sS9kweyHO7UWmOohO/kZRE4B/Zxa76F80Q71c2cBwj3fJdA38VVRPUgt6xxyhz4T4UQ7e/Ux4uhckODh015xL2FNYEHVdl6lpv5XXBfmx9BRG938u+szkJFluFgujORn0HU4nv2lcl2XNActhxmMXrDmIGpYJk3xUV6S3B740PSs1xCOaWrL+AclxWW2Fb7YrujTB92GyPVuHdWjpKL0zWj1XdNIRpbRWmS3+H0dljO+Ld+Lbn4tbTYXFSAYyLVT3wbuO24t/RJs5nzen2e+6ket32JcVi1njNnI0LQAl708lJJ6L4FYzYRRhuEV5fenlDNlaDVX/juLT75Pitnq2O1C6gUIkSI1tnRv4HUc+8CwH2w3+QvM4PjRr7a22UZ5KxPy98DDfNS1mYeK5z6KZprDNLaSM+0msGaEaRHaBwhmFeXknwg8E6kFcW4lpfh3nUpQlZOfhfAJSn9sjuHTgiZno6bBj889Fa88jhpmO5ahCZNZ9GBsfPY5uUeC9XLIz8LdUkBvZVTd79oEXqPyExloGZNOs71TrPmg3wPD8XFSK18GczsPxI9BnAMQ/4sUPb68afwT859H9ZTQf79MUeFP2n0xE3IfxOM9lAUzW+dwb/mgG0kRMAxnobqxAgRXLq9sNUAw4xmfvz8emRfpPyD/wYn/Sacia8xaQN8EMU6Uv6Jo5l/alVNnAULB2rME+zFFH2HliIuZ4WpNgqWweKw4jkm4FMURrp1RiFSr7TxCatKNnD4w9mgZkwDKe9JwxN4TR7IR9kF0BCpGm2c0h9/i8C4iH/LbbLPuOiw6IOt0LAyvRbgfRzV+mSKb1i/qsIFOVNBhw5KoDywFdnYfc3x9pbLSOAq3KjpgQBpW/LdAo7nPfIbfS3lps7mhM32nZxmHyfcRanB8o9rs1/XDyDL1WlINr6Ge8VJdUtaJbru9amuAoHDI8BpuPKiExaXJ3F2UwfrquLDAUhjSx8/dR67lP6V9eOyz/tTVdhSp0fa4Ez3K+QdvpJ8VYP7aZN782kSAxDhPG7weSG40f7TxWIPfoqHBgrDoi6hVewFCC7EYu/TqF1HbHLTBIizB4z2sE5EIYBLtVFR/iTrhHPBvUFR4dIxvGiZOOx+1/hkWxtURQADX2TH1E3BM2FSoWOU4/rEsetQ4QsVWsnNPQ+QxxPqABdVHQ1gYm2nhwPP64HPedNN3uzKSP7Cg4IbYGgf2On8AKc5HrpNnY1FZhW0d0GQCaNmYuaGvTnsVJ3BU2E91rn0+wNFRQUxbA3IjLvzzUOOU6U6gBDtwMJ8+uqzNOex3Tg5xcWdTVHBlh/OcPDWJQLJRiYc2wf8BQAg6jj4J8pMmY7wxM5hIjfmFsR9MOXmHgMxDKMXj2avD76AzAMFodgqL54uyl1rWOPKGmQMrWArXpIs685sOuw6F3lTBp+LJJXfI052iSr5twX6uo6iaCBkS2okOMn4D5tA9mhtzFrQ3LO2XNQovX4Y55garK89SUXJ6T5AI6YBB/+eGK5piWyOjOQq6Q+iTsTsJ3s9aAJcqykvSu+IkqP2HjMDjGNPBN1JWEj3PQPAmsIMBBGBoinFCh3Vb4qJHaSqkJdpceeU6vitPYO6sTPx2rKd65BLqn+jwznWr2NVbz70LMrjuhcyOI0ON8S3e4dZTyzhsTC2Jce2H9ZixFS1P5PLHB1HjawfM9AKEFt+3AQjFL6CB5tuk8UGw445sFebY3s7geqaPfNJlw2uyCbKEhYXBEKRYSlcAgmnX1Tx4fhfmoWWjznQWzpkTS7fBw99+GZFDcJzzWTh7ZqvnJk47BvU8CxpCt2pCC40ndGzFEsMs9ocWJhQTWnU3tXW/4cuwCInGFqMDhACqt5K6+rZOaUiM2nxS6ps4jolaCW7Zyht4fLnMfyJqeFlsEwvV2h4AgrsW8k1EzOugzf4w5rD31hzPx21wILScaE6eIdsxFMa3UTT65g5NSJ0BCLOLfyrKU+ro7aya+dsm7dzTG1KlrsH4UBh1eewbrch8Vecy8kfGBoDu+iiJuvhTUWOKUQMWY+MCCcqolIBvLDMO3NDW2tD0rNkI01r83oDtHCFVG3qEoTHkBLjADSW0nX2lasOSaOPT/gPHYslixBwCTcXGo7tJaWmzpi3Gha8DBw7CsQzvwXNSXnpxmzLZEQFCtMkkJjouAK2v87gOs+MmVXPCaZXu/392TgZfL012/QeTkmwCtuBr7yAOdWDq75SZzIv/V8xwanlkyUB++3waNb7mfCNRBatw3oEbuT+vlHq/8HVpvGtqi1ZMH7tm+ElNdLjqyYH8/e3+bX9ivQChhQijAYQWYY4xfTCuh/zvUROb3rjBWcspmhVU/cVSugoQJpyzD1bcG9AUKWB6e5OqtBNZdm8HC81YBnOPQ8TEPi/H8h3Y6sA0B/WKpDmInNU8DWkwtEKxTKupjuvx39LL16qlvmE4Sx9vdlJrfCAaQFD5hjrPAe3axNsaVHbeEwhnhs0h6J0fsH7VphYj1gluLwDBjHdi/suoGkfVxlKDLUfGpHFx/VqcD1Adiq2H82kMmodYAcLTGk/tmtcEHaHJn+zO6WGRBYXF1wn6B5esKraiqvIctQn5XBaDScHQOG+A6zM1AAAgAElEQVSK2we/z/gbTe5EP2HLRQyb4DncmPNEtCFq30E7ESfGcS/SW1/1TSpKj+kJ7UHjODQ96xcIdyMyRcrWR3U41LTMXYn3GPDQ7MjqNuBcIuUbjJN1p4pmZmahnqUoN0tFSXMocYtWdkgNQitJ2HDcaVXsvEcdb7/Sj5XfJZL3i1IGZQU1Dd9/k8DTszLZc786Dj5yE5//N5l3XunXoSYgKT6OObdcyEn7D2HZ5gDFtfE8WvgKc155PzKKoeWAFM4/aBP/nFbCp2sSOPqOEdT5o2sG4kR59KJ1nLhfNVc+OZB/9AKETiRr6kaAkL3iFsSEHzVucrKcooKeBwhu2OTKvyFc1hwpYNWC/oyigtc6+OqNH4PRNJyJY/+aRXPM7TEyFM7wDYi812QXVgzoeAmjvt7aImJTb18WIj6KbC2qBiGMB6GzfefkmXCzmZGxcK79eynoLymq/bCVaSXWPrYrgHDeqajzZJhfiokaeZCFBZd0vBamnwNagPAR1TXHx8R+GStAeGjNMInXRap6D/kjDDFTsMz6fleROGNaCA8Vbm+ojorcS3XCjTGBA6M1SMq8m/qGs2nwpbg8Cl0vz3JjjuHJiCghyuIXDRFvi59MaOp0qSgxPgk9VjQjYzcwMtRzpbw10ZHpWBmSTIa9DCTE2hkajvI16pvUlg9BW4PWAQOGIfH/RZ2TpHJDm9rEHwZACMAZF5axx951+H3C54uTGT+5GnWMMzTUNwhf/DeZcRNrsCzlq6XJPP1wJtpBDrHk+Dj+9derOCJnDEs32mxoUObOfJQHnn27fYBgCLpTbT65YSX9khwO+/MIlqxLaK0ZUBjSN8CH168iKU7Z9+ZRlFa3w5jaq0Fosd5/CAABmJQ3AQcTwhfu8f8Yo2ry2o6+APY/cxRO4nwUG0cPZlFha0esibmTUc+HhqYwJLzvcHwHsOiJ2BwUu7otdjdAMLdjf2A2Ise14r8QjGPb3djOgyya04rspcMpbE8AIegv8lpIhR4aupShzjEsnG2cb6MX14fB/y7ovqhewMJCAxw71hLFChAKVh8iqk9rnCebc4etCYKDqn5I9XuC7tOhjE0FkYCqcxf5IzumFH5aPdQWGwfXv0kgMEYb/OAL/fN3OddNGQnxo7l234jESZoxZHdwDANkyxOhFoeJUlnSzA4Z00Q7VynkrPga6twtFRuea/NQzxj0AoiJDGoJcZ4m3jM9VtImF3D0GZpOfOAaAvW3y6ZNrTWATfhjB/RBaCUfAxAuKGOPfUJU5WKcrIV1dRZlDRZj+wXcL6UuACleZeniFJ6fndFhLrHkhDheuusKDjcAocphQ4PD3FmP8+Czb6PhPAjR3qgN9+WVcvEhVdzx2gCumzsITIrJ8KJwyaEb+cc5pfz7yxROuWcYdnuf9LYGCI5/Uqec5Tr3XUSvnZ33T4RLQpSW/yRl1S/btlf/QACCyQ9Rg9ncg06EbpESqgPj+apNZ0UT7/4QYk0HfYKUlflR5ZSddxaW9TiGiCZYPsFJOLYVO2N3vLvwNrobIJi2x03NJC7lVVQN/0SkOtvY6hz9HseezqePGirhjg/HxvFuTwDBjGl87ol45NkmRkh3btzFwlHXtulTMD5vAh7eA2s5NdWTY9IemL5iBQiFqy4Hayx5w034X7DMKb5IbDVx+bGYFozm4BZyh93SoTOi6wy59npRx2j1LNdObDuoCxB8YMBC10BCAJzJ3DhpYcQ2nJmVjxItpLkMx7dLZ2/nXfmUlFGJkG4LbSd40/TMfMQTbZxmrf+O8pJbuuKw2N54d1gNQlycw5HHbyQ+QVmzMoHRe9Sz9741TeYps2JfXJfA15s9HJPlY+kmL33iHE4e2sCSohSKVyYyZFiDu/Zef3EADf7INe4R5fYzysmbMpj0vqlUbHIoW6dsrlvP/R8GKPioX4c70PF7V/PCL9aysjyOI+8czurKSHbdzNSg9mDXQT7yHh7M7PktyapavLqeAgjZebdiyQ2RtKeyCcs+kflhvO1dWfmdfSZn+ovgnBQECNxEUYEhE2mj/EAAgtlgJ+YdD/Ii2qTXMk6AN7Gw0FAitz7scs7eCeI/QEgkoEe1aW/Oyb8UwcT4B/dx1ZdIldOZV7D1Job23m1PAATT355Ts0hJvgmR6RHEQk1jkU1u3gif/buopo9oY97eAIJLaOWYhE9h5DTyPU7g4DYB+8T821AMa+hdFBUaSu/YSqwAoWD1NWB9Rf6wINf/o2uGie2Y0NqhMXRkmOsfxOe9iouHtE9N/PjyQeLzPhhi+msm24oACX5o8HURJMjp3Jg9NwIgZGT9C4gWNvsu5SWHdfehG4O8olYJOTSacNxooY3ufiEVpX/oavvRntuBAYJyyTXrGZBhqNuDm184rbc54B9cnkRFg0VAwe8I+6f7XbBgGX8Vlx9CqCjz8vBdg6n3RQKEeEt5/ZpiDt0lqJWo26SUrVD6DRbu+zSD65/PaB8gKAzv5+fTGavISAtw/9v9+O8ak1wrWMxYdx3o4+pjKqms8XDQbaP4qqyDLKg9BRAm5l8OGGa75jVi7Mtq/5yiOQ9154Jrty1zQ/QkvxnylvdjGxrgOe0wqv1gAAIceFIf/P3/jbr8/I1lNV49gI8jkjUFfwse/Pe41K8LChr5AVqL1zAhWvL3sHdbhF+ObiOfQve96p4CCGaEJuqkephhwPxtiOGt5Q3WLOSXcJzLYzI5bG8Awfil5Hx/PljGeazR5qiocxUL6+9t5WsxdtpAEq0PURmKBI5hwaOxM+vFChAKiy+gNvAmPx+90t04C4v/ItBxCKmrypFnWPnIGR1ykjxcvIt41UThHBz9hAzXJIRAgsnv0KauyE2GZOiDja3Z8H8IjpzDTdkm0VFwHx41KpEtdSVIKypho7W5WSpLbum+j2LrWwqFOxrwODBKa/Xg/B/lG2aJyTfTDWWHBQjGPWnqeWXsObbWXa8ti3EJXLTR6+6LL61PcBfRmSPq3aRxa+stcvoH3NwNnxWl8OIT6Tgt2thagGC0A09dso6Dd66jrkrx1xtQ0phPCBJThYTUIDuzMSv8d3UCx98znA1b2nGM6CmAYDzhLXkWbUrME6SMdpx7WbjTFR2GSnXDQnSbmHDueCzrAxDDRlWG5RzJ/NlRw36CXXYjQMhZYZgUDTdA42L6nKLC2GyrZihdjWIIl93E3KvA+kvTYe7Sdjv5LJgdmV/dzUwZZ5gTJ7mZLBfONtzq0UtLgCC6CrX2b8oy2V3vrmU7PQkQGvty02tbhlL6/Ch5OUzeiDeorvlZh+r27Q4gGL+Uc9JQ7/toODunmCRZY1q9u+y88xHrQXAWUlN7cNSw07bec8wAYe2ReGoXcO6um3mxrI9U1i9FtENCJHVTCFtTyBvWmmI6fEyF60aIBgwXRfvEP405HRr8IZODMTf4w0GCCWf70M0Kii7BsaqItyxsewIqt+BwHDdlG3KiIEAYMHBycM+JktZYOEHKSv7dU59IV9p1szmmDzwHZFYohXOLZtRvqNClouTvXWm/5TM7JECI85hvH3YeU8ep55QT18bF2wDLpRu9PL82wa3fL06pCUDfOOWC0XU4PounZ2WwdnVCMI9IGFfC1gCEPvEOT16yjmP3rmbTOqguMxE2QdEn9xPSBoE3XoLpHELHkYEP736bzM/+MZTKujZAQk8BhEkXDEKdxagd6SELi3ESDuoUp0CXV6W5NS2/oYlO1yQSWlAzqX3P9G4CCO6NdPiTiNXMgwAfUlQYfptvf2bdARAm5e+Ko+Z2YLIENpaXqdpwGstebQx5NL4HZyLWo4hhJXQmt6JVDh9p9rRpWN7ZTT4IJoeAY09o1+Gty+8w7MFtARBMd2OnpZDA2YjnZje8L6KIoZT+J5pwZbtshNsjQDDzyM6/FtHbw6ZkdpHLKCo0hFzBYtZu7agXUY7Eck5n/mzjjR97iRUgPLAumYsGG6IrpbD4AlE1ZoD2fQ9EVqnqEeSPaJ/F8JFVB4mHp1t56Lc1i0aQ4AuBhKBPgg/Vp3A8/8TZVMSMw1p7Mt766UhuHG+cWJt0Dpqe9XOE6GF+Ht25KxwDsQu/azVdkBAkWLojMgtpqD1Voz24iYrSO8VNPtf1ssMBhMHDfBx27Eb6DTB8MtA/I0BcG0REZh29tSGeJZu8+BxoMI7cCpPS/RyX1eByIVRVel3wYEwNb77cj4qQmr/LAEHhqD1rePGXa0gQWPe52aOCL8gTB1m7WVhtBSp4lLMfGMIT89Oif3o9BRBcleYKcws1qurwj74O7J9S9GhH4XZdX4GNT+55aSqp9R+gdpCcyLJuZv6sDtR73QgQakYaO2R4utVtDxDcQyHvXkQubb4Riw+xJrJgpmFRA5dV0Pcq6BSUsykqfLpd4Y+bdijx3nkuAnaL68x3KYvCDpmtf3utW9hWAKGx53F5h+CRJxA1ILd5DYtsoME5mM9mN7P+tRztdgsQzt0diXsfnLA0tPIRztIpLAo5sxmacIv3EK2ipnYyX8yt7NTrjBUgNDb6tMZL7Zr15u7dfj/qV6zp5A9/rJ16wiPLdxOP1+QBGNapcZs91axpn99Rv/8r6ux8fr1PhPNhLO1pxuC7QKOYStShvDRVIOT5Hktr265OUJMw+FbEuTYs22TzAFyQIFdRUXL/1oCEHQsgKIzcuZ5zL96At51owEYpmYP5+xoPQ5Icnl2TwPIaD0mWcsQgH2leJS1OGZQY3Djr64UH7xxMVVWwYRcgXLuaQ3cJ+nK5PgjLgz4I/1yczm+ey4xq+jJ3/z+etoFrj64i4IP1XzenMe2TKfQb0j7ofnxBH859cEj0CIseAwiuTftYUHP7iPSkRD5DnCPavaV2x3dhMtohs4N8/+JDnYNZOLtdatRuMzG4TIoj/gUmhC5UlNdZWNicGKWjOXaHBsH0MXHaaLCM81ejjdEol54kdXQu82YEmJy/BwGdj1gbqA8cyJI5bTLDuUN2nRnjDAtcuFbiTZyEk3tUM7StAYKZazDjo3FAC8vgKA6OXsmiQkOyE91avb0CBBOKNTHfpAb+XbPzqjSA/pyiwlmYBFzVK2a4DsY4f2dk3RXthsVGW8OdBQiziqeI6DsdfQ4q3EXSJ7+KIFRq+dAjy3cXj9dcPlqkuu6o9abf6zRg/x7b9xAX796lsF1NH2RIxM6N0mMd5SV9u8uWH/OMOlFRjVkkI+smV1sQ7UoZBAk3SkVJuBaqEz3sgFTL5ng99tRKJh4UW04PU3+TH2atTGKj3zIxM3itoN1/7zSbU4c2uED0g3fSXJKlJh49Ua4+uIIrJ1dgTBq2X2mohZKGOK6fN5i3lpnstK1LWrzDO79azfgRDQQaYP03zQBhwAghpX/7AOHz9fEcccdwNkTjQ+hJgLDP2f1Jin8b1f0iZhX0RbiBhTv9qcd8EcZPG4PX+zrqhG4R+hxVfc/umEmwmzQIwVt5Eaph1MryJEUFYeyDHXxX3QUQ3KyLq54Cx5g7QkXWEec5gKGb17Ay+XGwTgPnLopG/7rDd2LyPSQnPx5K/9vYoB/Vs1k424TSxR4OGCkCYyCLJGUK/727AYJpb+5c01+7gcBMzD8IVeOEFlpLbuTGM8TV5rZJV9xdAMGk2laOZWHBG53ahdurbDJTWh4DlMNv2O9hBX5CvacP8Z4vUMeD7RzG4jmdvkHHHObYOMbC4l+L6p86mN9a9Tg5TBvVdj6Rx9aNxG+/IuheXZOVfK2W5wqmDX69w7DJNjoI3sKznkZoRZ7k5m8oL8nYngGCmZabmjojy0QuGHrt1sZ2xYfI5ZSvf6Qraap3LA1CSCLxXuXkc8rZc2xdR1YwFwi8VhLv+iL4DD1CCAGYLI35o+oZkmDz0bt9mfdKXwLGBNEUZgA5I+uZecZaRvYNMjKas/KFL/vwq39lUdKGM+GQPgFW3Pk98QK+GqV0WfN+ljFKSDKYtJ1S6xP2v20kS6MRK/UkQDBjmpB3NBYvtdIiiGwh4OTx6ewXtuJAiT5rk0mvj/0iwmFuBZG1+DgotpTH3QQQ3DTFfb7FsZudrsR6gAWzOmKva55TdwEE9z2cdzSWY7InNn7wxo54E6qvYVnvouoLZm2MgUrXtOcmc7LmgIbRtMo31NRM4cu5JZ3eoM1hvSrpDGyZH5WcyTTYrQBhqoecpF/gOO+z6FFDh9t+ycm7BpE7mkI70VdpcKa2GfbYbQDB3SbOd2/33VWMHFcm34fIRc3Oq1TjyE9QZySWzALrBYqqp3aJSbKzGoSC4mfEsHy2XXyK53Dyh7adu2DGDEtGnW9yTjRn+oxdXqrIJ1hxp5Cb1b72rIM23Rt4etZTOzJACB6JE+LIWFMI4XTqEZOvQ/WktlI6tyemHQogeDzKrnvUsetedS6N8uDhvqCjXzulJiAU11ouUDC8CH4V18xw/OAG9ukbwHaEtavjKVkbz1dLklm9PMH9216DG3jzmmKy+kRSe/p9yoLVSRx91whqA60P+0N2reXta1fjQWioUTaEAYTM0UJiWgecIh7l6DuH88aXUbJG9jRAcG+bSXci8ovWKispA72ZFJnVbTH0k6bviWPfC2LAgUFnRp1zLYtmGw/cGG623QQQJpyVgSfxc9RpTqVqDpgFBb+Ked+amHsBKsbZqfFQ7zibY1uNG8e7ROslNASagvX+C5ikLheCFlJUcF5UfoRobU7J70ct81poSByEV7EDF3aODEsl6Dwn1yD2NBbM+U/UabhamcBrqH148+9bQbU86bx/49hrcRIu7TD9cTDp0fshc5VZSo9RJhewsg3uBxcgpJhsl43ZIs0zT1NUeEa77z87dyKW513UaQZeIjNZUHB+m89ln3sUmvxhp8w72bnjEOvtyCRO+hRYAxAOR518imY/GvNaDa/YSYAghcVLUd27zb5EntPcYSa7aPTv957vEqy0xHsUNTLqgMu2VS+OYv0Vy3szuVkRbIhdmrt5yxmDHgU5J8rz272JIXzMITZGk5OhZbKpUDVdS8A5UTaWmX0k5rJDAYSUVJuLriqhr2FGjBLa2NaszZH8Zmk8H5THuceQ8S8YlKCMTAlwYLqfRI+5uCqbqjwuJ0JNjYdrjq7gT6eVNysUjD9MnVJZrFgDPIz5/S5UmRTNLcq0SZsouKAES2kFEAaPETd6od1iKZc9msX98/q11t/2NEAwA9v7gkEk+Z4D2T9K6I9BS3MIeGfQ9/u1ncvI1zRrYcJFaYjvJERNaOHo0C8moPkfpOx0jWtrj6UYQJPa59+oHXYTkQU02IfHTJJj+jEmDo/nE9AQ1bHBKvJrFsyK1XYn5Ey7BTw3NuMaqcQJ7N25wzds0hNy87Ask3sguMgUc6DbGDW2Yx3Hopkd2oHDWhMm5U7HMXH1xsejsbhr8Q3qfZewdLeVHZorJkztizfpahzrctB7SFn1+zbXgAtyvO+gjjmsQ2UrAEJO3qOIHEg1k/myoH2tR07+fuBmqzThsk6QD2F2mwlpQiGFi9DGEDvXLPECCwt+2i4Im5ibDp5lqBOWfZEN2BwfRbtjUtcfjMgLOM5NLNzpvg7l3Si2Ri0CGBbDxg3EfItm51pHwHcAix9fFcsn06pOZwDCPd8lSFriatBoMfim6YDiPYL8ISYSJ3opKD5H0K6AmXqFa8gbbrQpMVweYpOGZgz+K+gVUWpryAdhS2wt/e9rufTJCbYxbxkzceuDRvUtKkqP6gzx0w4FEMyMTZbGY06pJL6FK117r+e7LR6eW5tAvQljDBNbH4+SO6qOjASH+jqL5x5LZ9nXya4mb+KoOt65djXx6tCwGeq2gL8ePF5YF5fIQbePwmgnWpYbj6/gllPKXGaOus1K+YrmtTx4D8FrQhvaK6L87fUBXPtMJoGWIGhbAAQztr3PGkRywuOohm72EQN2QMoRfQvbuQ+SltLn25oOwIIBBUnYvoF4nDPweM4EZw+0MTOZITPRh7AC1zP/MZO7PbYy6axBaLxx6At3clpLgn8fPoiSYbCtVieedyqO/YxL6+oWs06sq1kw866YBjLhor5YPhMvfUATQDBEU6LHM7/w9ZjaaFkpZ/pwN669JSGKyhJqaw7sMLa/ZXsGTKUk/wPEpMoN+9UwiqixFf8VK+5R5m8qb6GqFiZMTcOTdDDI9aiMB/kzNdW3tRtvPzl3KAFrIWiYc6R8huU/pFPvuHGkOXl3Ivwfyi8jwvyiCXdS3tGovObeIkRKUN+BFD3edkrc8fkH4+X1SGZG/RYr/hDmP9x2OumgTA3V8PSwYShiLcDfcEbEoe1yfHjNGokjEDicxY8Go1JiLW5ODeudSICHg8pDLBx1acxgo2V/nQEIhWvSRZ1lQDggampRRZ4jd9hUxE2i1boUrtlN1DGmh4xYpx2qt0k93ny+/+blqOGLnWwsvLqmZ12GEJ0zIGCPl41lbee/2Ip+e+pRzcrKxM+7CGNa9aGGOEqnSsUGYyqOqexQAMGdkcJue9Vx+HEbGTjY7/oFtFfqbfh8sxefYbne6KXSZ+EVGJhoc1imn11SbNasiufd1/uy7OvEoKOBuTqLckZODX/KG4YG/Cz+ehV1AR8V1R7mfNSXBataZN0MDeLBvPVceGDwjKvdqFSs6iRAAP7zRTIn3TsMX1N+nVDj2wogmO4OmDYQvzUDZRpCahQZGx8f4+z2PWLSpOoKVEtBmglRRBLAzgKPcbDaG2E8SkoYqY0RzjpU7iR11N9j1hyYwUyeOgB/yg2I/jIyFljqse1fIkkFHaqiXYrj3F3dTRYOiZij8AyedhzbGiu7PhSBsxHrnrAMfKFf9Vsc6zQWFTQRs8T0VZpKbmTFyJsRfoOGVLFCAEfP6rJz4aRzhqHe2SCHhFE6Ny4us6mvReQdVJeBGrtlPCLDEA4EGYOyEZzb8NY92KbDn2nNkPwEvDdhYW5m4WrkzYhzOgt2fqPTB1pO3o2I/B60CpszWdQG8AqaCx4Gw41gklhxN6mjfh19bc2wmLByNzw6C2VS5K3LDQe9lrra+9sFY+PPPRiP5+XIRFsuAvsmyO+v32DJ7igXg4xyzXRFhcaprG0Hz2iLJGh2eg7lqKZxilSBsz8L2gnh7GjBdQYgPLAuQxIC37UBEOpVrcOYPuyTqF0aHoXEwIti+Bo6VzYq1sXkD2s/nLdlmzcvHEE8+4AMRSkjU1/m4uxW7ILaf+CBeCyj8WitDradi6Vqg+F72ObFdT4EcwXttLZEM4ccBM4LKOlRBv4t8da4WBM77ZAAIT3Dz4FHbWbs+BqXiTCWsqHeomBlInWO0MerLg/CmD42tg2LPknlk3fTqKrwRmgYTLrnl/56NYdn78E/XlnA9X97gi1VleCJjkrMX+detpaf7RuMsOgqQPiiNJ7s342ivqWGYlsCBHcGJhXx8mNA/oLI7lHY6lqI3lXNR/6tOUlQ5N9dKmd9G9u+lE8fNbeSGIo7HhNpMA6RfJCDo34/JqWx6ExEX0StNaSs+p5585pzD5gUyB7vWFQPBHKBIVHaCaDyOmoXEIhfhthV2L5NLH18I+POHoE3zjC+jQDOAjnSzQ4WrYgUo04BysdY+jUL5qyIYaLBKkZD4iR+Cs6Q4B+sIhoCh3XKfNKyM5P1TxqM5/bx7RPdmOk088mEgOAlFBWarJNRNq2pHsYn7+euE9HzENpyQNsEPITFG6iuxB8XJICyNm9k0VzzW/Ri0j2LNTNE+LQB1YvQxH+HgUBh7LRkEqw/oHo5YhaivERVn6kR0TAGQNiJe+FIJsgUhPw2aGsbzTqvgzyF7f+azZWLwwirguM0vhbU/wPLaGZaqnVD30PwGzBsafNI8J7MhzO7prbOnrY3lvdj1AkCdpH/sGDU8Z0GW+ES7gxAeLo4SWpZBRrGy9DYmK5QO3lfzs+MPreC4p+J8CSqMQSoh9oUqVYn7iimZ0UHHa1Wigp/WJyBbd+JxdQmZtigSeI33JD955aPqAnrzsgy3BGtw9KUZ6WiJFqEQ8yfcFcrakbWSwTkF7JxfZdMR5o+cBpiGWfZliekg637SVVpTJeWHQogNJoYDj9+IympsQFw24EvNnt5vzyOcl8zSDRahDFpAU4e0uCe95s2enj9X/358r/JTZ95eLrnzzfaFK0oZeZ9s/hg8bdGxdDq3Ru/g7d+tZopuwa5NboKEL6v8DLp96OoqG3xbrc5QAhN0XC9J1hHgRinrUNRTW1Wx3fiExCjcaAS4QX8Opdkz4JObZauM2GS8X7eufVtveU4XDWnSQxTg+Ocw8LCoFe12dAt/31Y8lPUSWr3kDQbi2q96zxpAI1j309N7e2u3wM6NhTtEeTxbqu456w7ljqUBRTNMgdz7CUnbybIdPfoUecmima3k7wqxmaNLwEpZ2HpDQhZJvK3jScNl/1qVP+OWM9QNKu4zR5y8rMQCRHehPs5RDwREpS7YdcaP96gjd+d3J+YP/MfbbafnXsylvcF1PGHfDGMunQ+Iv8l4GzE4x0EgUOCmg7dhMX9BHx3t0prPXHaMeB9GNT4JyR1CHrFHOzGBGa4OezTKCpsbV83GhPH+/tQpEFr1aJQh8MDNPhvYWknTF+thGEIzVa9DM5xISr0S1g42zimdb10BiCYj6Vg9edAq9BEhfvJG35pVP+Ah9YME6+zEKHZCbjDEesWhQtYOeIZZrRhsghv45Gv+7DZvom6ulycKD4Shn7Z//Ih0fJBuIcxnBhlSCV4dBcpLe0Wh8gOpxyq4CZliktchgZGS3l5l8CkDhiQhhX3Lkhk2HoQqJ4qFaUxMW7uUADByG/n3eo57qeVoSRNHYu8OiAuQdIXm7x8Wx08cONF6ROnZPcPuAmcDMAvK43j+SfS3WiGxhIOEJZutNnQoMyd+RgPPPuWYfpr1bnJ5rz098sZkxXUZG0pV6rWBGmhTYnJBwHcEMoDbh3JiqoWYa3/K4DQOFNjc01MG4HX/zPUOx5xRuKQhWTfkpQAACAASURBVCWp4N4MGlGT+V/jaGhI0jeish5LlmMHXscTeIcRgfJOE7qYMRiOgLpVu6HSQVarsFcTCCj1qcv58r5G4gxh3Pkj8Nr9MbTDsRZ1BCe+lEUPljAhf3c8VpizX4yNiFPL/AKjoo295Ew7FPFe6R6Kav9mq9TJkb0a88oAVE5HPEeBMwI0lE5UqhBZjuP8h4D1MotnlXU84IviyK7bHSsuRp1eWItGtg32unZJn4IRA3fiOCYvxdcgRyEyEdGhqKYghkDI+Bs45gB7kKLCL6NqOiZdnoavajRxnXBiMkM1Y6xJXha2jiJF4kZt+A9H1TgS7oZoEmptRoypwXkEJ+G9GExeHYt5Ym4eahWAlmLFZTP/4TUdP9ROjU4CBApWPyVwekSLJk+e4zmG6UOj8z8UFP9OUEPmE2MRR5FfkD+smVK6vSdnrdkfnEeoq9uTzTWGMz9KbX2eG3N+Fs3pVAdkTcfCJIlqWWpxyJHKErOWtlnRzCxD2DaHvqlDZdmyRor1TvevGSZngzW7lflE9AIpK30klgZ3OIBgJtW3r83EQzaz5z619Es351DbjgjmArDRL7y0LoHvDfmQwAHpfg7L9Lmag/LSOJYuTmbRx6nU1kTubdEBwqM88OzbUQGC14F1f/uOzJB2o6sAYUuDuNkdl5S0JDW0QO1pXQ5pimVFxFrHeFZ/k5hISnwC4vNSI/3wesJ8FQLlOF5jx/aTVNPAx3ONij/2AznWcfzw6xkHTy99hijzZpidr/tlaA63xEAiUh/UJFT6/exFXZdAXI+9D+MvsC6RRUPqm1Tqu1yeQHplAnHqoS7VIb7K9z9fZ0aW3pokatVDWmKAuOV1XYz2iS7J7NybEZlhCFspGn3jVpkXTA+dBQizVl0hIn9tMbga9STtyrTM1sRIM76Il1F9jFktZCbreIGoygxWDbuNGdJBNJMKBWvOFtQ4GfYzSZvUAIS6aGeqdS43TohK+6yZmbugnm+i+CEYFs6LpbLU+LRss6IDsu7AIpd+qSO2CiBAKhlZ5p208CFzLpHyDTFpnnZIgGC2yLQ0m7Mu3EDW0LazWhrug882evmoIp7KBmmyEidayk+G+BjTJ8C64nieLcwIUiy3wBmdAggKIwb4WXLLCvomBPdwY2KoqdSm3AuGZtljbBsdFJM34rA/jeCjlUYDHlb+1xqEjgbe+3uvBHol0IMSMIRRKSZ8czcC9lFdYk5sObrOAoTCleNErUXhtzI1zslxqbtxbnrrCKTC4utE1ThldrzxBVNDv8LKZafEFK1QsOp0wTLmoj7utBxFq2thS40JUw2faRlbZFf+nB3VxyV4CA4qRKLwISjz6ZM4RVaubPZh6oE3HBzDwJNJ8L5Gg/0CyAT6pw7ZGoBghqkZWSY51fCwIatxdJbK0qdimcYOCRASEpQLrighY2DHKa/9Dm444rIaD2sNYVIIJo5Isdmvr+1GK3z1eTLPP5qB3x+5hjsLEE4YW83cn68lyRu85q3f7GFTg9VkYghfs219LR5LSUtQrnk6k0c/7hv5WfUChFjWdG+dXgn8MCUwIfcwLM/LqP0pCd7jO+W/05ZEOgsQzElfuOYN1GmKRlAowduwu5sKOrw8WpEmgRrDfLlzTC9EKVOvHMC04R07Lc8umSSO7/1W9ML1DeimapPdMaxL61lunNCus6GmZmWSyBdASwdMRfQsKYvtQI1pni0qhXIqXA1cgkcnY4uZ13AI7Czl5W3TVcfQWVSAYDkHyYYNBmh2WHZIgOD1KvtMqGH8pGr6pweIj29Gi74Gobra40Yk7Ly7iXiDlcsSSc/0k5TiuHUbD2dTt6I8jqIPU/nqs2SXQTG8dAogOHD1MZX88WdlxFnw0fJEzp81mPWbQv5fCgkJDoP7Blhb5cUfMOaC1rjaa0ic+tjsPMjHS5+l/ngBwl7nDyA5MBgN9ANPLba3lMUjSrZapdrhJ7GNK4w7eySWJtFn/bJuVUVv42n0dtfDEjDmlP6bnwc5AtWrWFhoiJ+23tzUBYBAQenOQkMR0D80681qxe/aivp41pr9RPRD0OQYpGMUvheSPyImmmopKDaOwuHZV4Nd2HbQzFBbH9IiqI3IcdyQ02F+DM3IMumTr4ky1kWUDzhA+NIXwzw6XUXTBx3uEmjhXIMTeBUrbilIH2wnV6o2tJcNs92+NDMzFfWsA4IaFrfoZizdTTZsaJvfI6zVHRIgBOeJm+a5v2FCTGr+TgzhkYlIMCDi0l+vx+8THvjjEDROSetnkxjK3miaqKuzqCz3YhvNQRTKZgMQXrrrUg7P3p0vNtqUNShPzJzLg8+9C54WD9jwyHnrmX7gZlZXejnh7mF8sTahqd2BqTYFF6wjI8XmxHuGsWGzl5HpflYZdscofUcEmTW+sB+6BsFsggO2TMTRs10HNNXRWNIvGEnAKkReot7+J0s6ESrY6c+1hx847vIESjfuBNZ4PGIiGvYH9RFoOILFT5qPubf0SqC1BCacsw+W9z2UcrQ2u92Q0M7IrysAYYZajFxzlwQ5SNytSj2ebKYNjcyTUbAmV3DMgd8BIb474JUap+M5Z2RVh8N/YF2yJATWRuFjcFDHpzX1Fltq4nEcczDM4YYcE8raIZjStGEDiA8YhlITodSy/IV+qTdsrcq/ZaOamTkOtUwUxaeUl/6UjCyTQdZEGBiHuCJSEw/pqnlD0wee6kYfRchfH5HyUhOSG1PZcQFCe9NT6NPX5pJrTdpyuO8PQzBrpjPFZH288cQqrj7RS1pSPPWOGh5RikuquWRmMu+1yOZobv5vXLmGKWNq+HxNIhfPGciGTV5Kq+LcLyi9T4CPbl5JggUn3TOUL9cmMv3gjdz7xgDXmd4sZaPbMDC6zZX8QwYIJptkYvxDLtpXk1QoRDEc+dJMSMgC4qyjukW92tT2DIsp8yw2ZAYXycAyh3lTnG7UVliMnZZEvJyLWOeF0hGnNc9RivE5k/lsttn0ekuvBFpLIDvvBkRuAet2imb+pttE1BWAYDp/ujiJOn1dlIPMf6rIdeQNj+QZmFX8NxE1WQY7LOqRi5k2PDZSIuP4ODqtGG0KZ1Q14a5i3U4gsIB6397U1L1IfcMaEjSHX02MOSGZpg8eg+jHxhe+xaDV3PClfENs7KodzhiCoYjxi1wOlXqZLNUlZZqZ9XeUy0KPK45zrFRu6DQbq+6ySwJVW+YhLmV+sChVVJQMFxP6HWNR8JKe9aGhlGuxFa+lXsaZMcfYVI9UM/zldwMGqcZeFDcM8oIr1rtESvfeOpTq2tgBgjnQT953C09cso5EE7vYLGCXcnn55nj2/8Moqo2ZIFTMM2ftv+n/2bsOMCuqs/1+Z+bO3C30jnQQOwJbVGxYEzSWaFAjbVGD/nYjiCyarFGKJdEYuxFYUCzEaOwmUTEWhGUBCxZARCD0IrDlzsyd8/3PN/duL/feZdHEcJ6HJ2bvlDNnynnP973f++Kkg8qDym4BDB1a+sGEv3mXiV1lBlqm+xjQzYFhMlZvtvDPL9Kx8TsTUZ+wYrOFMoewo8wIVB/rbT9WgJAz5hQQxLSpJTSeBeM9EA6E4rHgWgJNRBFAn4xFs+UlTr0NzGsNQ0ozOQvER4KNLvHyPgnDxcRSpG6dsQviYsl6GxhrwLoI2lqHMt6Br2ZIyWTCFUlwrJzRp0IZN4A5C4y21Rwaq/V9P0BI/Ub+D+2RlXcwDLwBpgPg88lYMkty1M3TmgoQ5Oyz1vYF6BUCHwyihbwrciKuPbCqhGDm2heJcE4SHS3lUMvuGNE6cfSg4mCz1p4N5uOg1FqwsQDpXT7FBaJXAeCJNeejrHwCdpdeicnZid0/q3Uw5vDY8VyAngBRbUnpMjDdhzTjDlq/PiZ208TGbTseA6XEkyIMrYdjx5YFQD8L7UqWgXBwtcMuhcE/pc2bU3Ku5Dadh8HACwCqyrGZp9P2zSmBS8mMo13nJSAcWutSN4H8QbR1a9Lgq4lD1ehuTQYIPfo6GPGrLcFn/MEpXbG7VgljY2eVaX/SsO24/ecxsybRSfCjQNlOxu4tjFAXE4cU9MXOasJLwfFkyqgQ1Av+O34WOUjFnF/haC8nqe45kgx++dEBhAKFwStzYYaeASME7V+I4jnvV94bkXt26T6QOqcyjykAQdFQfDRzYdIPnKjnOeFeMNSZAOTlzwUhFGc6R0FUBlAEFP/AxG6mVMhKJENAg2hwA1rvAqEITO9AR99DyF+BNHsXnDYEtUvysXvqRDZEARA0CYrSwbADkakatstyrv0AIel7+b+2Yb9hNtp0nAOi4WBegtKyE1P24WhszPYGIMhxH1yeiYyWrxH4cIadg7xOX1eernDdq8ScjDDYZzym+4DmNGHa28eE23WUaJ/oMNSVmWe8CXg3YPv2FYSA9550465d0xHRZ4D4z8GcoHg4bdkS8CO4TZseMOw19VR8LIVW52DHhvXJSC9zx459odV8ACJxH5uZmBdgu3EaYYOIxyXduE2bVlD2apAsbmq0HYjS4KYqPSbdgQQbNhkg9D+sDL8YvS04fOGDnQNL5+QKbWI96t/BxfyJa9HWiCIaYbjlgO8BVhrhnY0tcMGjXet6JTTXVTd0nB8bQBDpWDJeBbgdSJ2NRT3n1wnrD80LYxefDgMin5sD8AvQO65C8cvJPOiErFHHQimxJz4eHLg1Sm5PoNtugF4A8ztQvBLl5mZYZhUL29QGtNce0MIXyAV4RExLP3iKNEiVAVosnZcHXglEA6H9KVgcWFVXNeFVdN6ejt1GCOloBw+HQ6nf1yw92g8Q9vWr8194fMIxl7aB590GUmLxTdA4D8WFYviUXPQqmYveW4Ag55j5TWuQMR6kVmJMNxGyirXCdY9RTDgq0Wf+Dc7rXpdwmGi3ffh7EElo2ykXRE+DapjBxc8aCMC9Bda/x44tixIBhUDSuW3ns0GYELgtEq+FgfOwefNnFZM+d+h8Bhiv1nNZDBaJaxRg+6Y5slSp79IDvkDbjqdAKTEQq3DJlU2Lod1zaceOlEW1uGPHI6GVGFbVDmu7IP9U2rq1+aJZTbifTQMIGsg+dg+GnbczWP0/V9gBK5aLsmryPZDF/eBeUcwen4t2LcN4fv4SrFyzIUgBvPpZJranEJFI/qyJ3qP/IKGkvb2oQL7ZfA7QJ4BpJnqXjmtUmEfMagwzHeGSkkaNgir6NXhkP5iG5D9HgCvZ1mKXvBLQc6FpLna1XF9Dp7/BaxpuIDdN/Ld/AVLjwDywhvNjRTmK5vEoLpTJv+EWs+59pKar4n6AsLeP049m/8B/wzoRUMcC+kyAegdcFVIfw+WhWDbru2a91uYACNKh59iAt74PRnSvUgot/HYMMYlCYYL4KD/PeT1T8zyY8+/BQLQd2P4QozsnnVNPdey4Vce+MNUtcfOvuvKbDElrrACx2MV/CcbmoOoq1sSYTgSiDgMJV4N7BPbj4Hkg/VvaurVGOSe363wTCMLj+AKa3wNRGgjZQNyZMXBjpC9Akm7CchBvDyTg5TwafUF8KhhDQVQhne4APAtO2WTas6fKRC/JQeBWrdogFJbU74h6d2EugsG/oi1bUnMmTfL8yWzWZIBw2tk7cewpe4LUwD9eboOP5rdI+JjW7lD1MseF63fj+t/PRvGCJfB0cj4QyVxgStv8mCIIOaOnATQxyLNQdCgWPdlMSFQU977OgVJP10DRpESq+FGUlk/cqxDtQWe3QIs2j4HogppEysD9LzFAkBuePeYOKJpcJeayHyCk9B78WDfOGtMXioSQ1qdGkEA8QTQmYvGse5o1eiDj2FwAob578tS3fcgjEVWq1x66ahd6lfO61+eFUPeoUkHRa93vCMgPkrSMuRjbo/4JrBmfE27bthsoNA+kBsd5RCksN4OORMFYASCPtm+SEtE6jdt3mgum42DonOpliNyus0Qw7wuilDFOQWOAS6JLIgLxGci/kLZuTVraPQYIMjoCbiZgyMLtVlDl4qqh0fTBeBKEQkBtgKkd2rRJ0iTfS2sSQLAsjYt/tRW9+0WCtd3nH6dj3swODfntNXghtXUQ1pd4eOyPj+HFdxbXK7W8z0fkxwIQcsZ2B4L6aFH4+hdU9CwsfKquClvqA0rIHjsOpO+o5Tn/b2i6Glbpm0lFHxKdV6IZlhJeQfVJPgWAMHoKlMrfDxASDfT/0O/ic5Ke9gRIjayTQRCTL8VnYNHslFeBCUdwXwIEiSqUrn2YiBKlGVaz0/1gXE6Jle8K15xErCTNEgZRlDXyMba76Bfs8xakCdp0PBiGMQTgk8X6TSx2ANSSvI0DAvA2MH0B8FtBKjNEHzdm/MTtOv8NTA/Rjo1v1r6YwNGsVadeMIMSzKNANCD2/SQxB5MV67YgguFzEUwuwtatywlBdCPpxh06XwDG1cmqXtZ7YMYq2r5pbNIn3csNmwQQQiZjQHYprEDymFFWYgQgwattn5ygc3WEkiIa82bObdCsaS+vNfHuPwaAELgpug8CLLW4GhoFKC6UCX0v23ADWRm/gmJZZVVZtxL+jai+FEvm1Hnp9uqEh16ZiYyyQhCfE3AQAhJjshGE/QBhr8b+x7izvBfkPAyiS2tGD7ATxOdj4Wypz2/+ti8BgvT2ia0tYJS/Q7HJtP5GxMz+TejZ8z6cVI//gkQNeq/vAtbHEkhkm0WZcSNDPQH2pmBs730qg9xQtxn9bLTd0RFkdQZFO0KbaSDtg9R3QHQDotHN+O67XckQC+UcUvxGsdV/0i3gHcSo8T9QWDvpru6TDZsEEKQnQfynIgjUmLZAI91OSUlxn1x+rYP+GABCjJhYFDD5iUrBfA6KCt/ay+EjHJU3EprFLriaapgcHxdg8azXmz00Kx2OaTcsBrjPfoCwl3dw/+5A7N34G4j6BMPBvAmM0Vjc661m1OSoOdL7GiDI2WZs7ADDn0XMP23EXttjokcRsu7AnnU7AjyRuTYTDk6BoX5FzJKLF+35XSwl0RR6CKM6bf1PqnzY/wh//yPQZIDQHF3dW4Ag+ESsvXfu3IlKQ4ZEHRPDBvknHtEVPtEV+/woAEJePoinBJdE2AKKZmHhUymza2sM4+CRx8M0XwRz9VIcP4hOtOg9HfMLUkLliW5Rtd/l+fw1gLuDm7U/gpDC0O3ftN4REM0D4kFgthDiRfhozhf7dKSaFSA8ZwDDdV1LZSY8Wmwi3PEMsLqExMeB0JD8soTFRXxH3POEu7CHwV8EJEDCe3DVB7is+459Oib/AQe3rCmHE4XKHeemqrLRH6Bftn1XX611pudFPt1nIHUvruu/GiCYhsK466/A0qKl+HjREkQiLpikJLXmiCgipIVttGjdCh27dkLLli2xccNGbF63AWXlEeiKHf7bAYKIFIVYan5lNSBzahHIO3Wv+AdHjWgJHfobwENrjir9Axk4G/Nn7dvw41GXdYL2FgPUbT9A2Is3ff+uP8wI7BVAGG5kZOR0iEb985h5mFLowIyI1hBW+1zPC30mTouWpYe67s3PxKMihDmbe0F7eQCfQkTdwLDikQVZGbkMrAbjo4CwWeovw5VJyC//MKO3T85qWXcPANwigBzDMA4tL5+4dwuoJvfy0ZBtb18nWjDM/tGu+xsxs/qPagIQGjLQ2Ocd3dsIgqkUrpt4NU7KORRL1mxFZNtmrPh2I9Z8vQZrVq5GSUkpevfpibzzTkbffr2w1WgBTQSSxWhUY9WKVXhm5tPYtDHuq6GkzDH6Uyxq5nz6Ph/J+AkCN7qApR0rwxGd8PRvftl0k6IChdw1UwEeH+MBVLYodPRMFD+VskRpykNRUKDw6jd3AjR+P0BIefT27/BDj0CTAUJBpm1bdwE0nBlvaM0PGQYCEqXWaKMUhKg2BEA6MxW67qTb61zqO2yiHAY2brMQLjPhaoa73UWbLAcXBOV7/5PNsqYfRqQXC9gyTeOwsrKJP5BHy7iQbfdeDXBLZuNo1524b6NZTbjbAhBuBOiuRnJX9R9WlC4C3ljTOZmt0w28dM+lOH5AP3yxx8c2h/HCU3/Dfc8uAMtknaBJiuHn55+Je685H4u2RZHb3sSbG4WoSygvL0dk80ZcdFQ/bHKAT3f6gSQXM2Pjvzfi7TfewuIFi1FeVl6VapBzejobSwqldOi/rBUoZK+WUp1rYh0P6oGnoqjw1iZfyDGX9kPU/xfAwiSuaOLX8BIi/gh8Mmef1UfX6HPu6J8B5vNgfzKKCoUk2XjL3k9STDRE+3//nkagSQBhWptQiJ9VCscAeoLjfPw4MK/2hE6h0NQ8Ijwo/xwnXwSC9rckR8C2p/VTSkW+p+gBhcNTRkUi9CqQX6NSJhye3kNrynDdiV/uEx5XkuPR0GaEnNEXgtRT4heW9LEY6No6ilt/th2lDuG3L7VHaW1Z5AQHCynGAxdvwZjjNeyQgaiOgY2t3zmY9momHprfJrGcGTMO7Ncbbz+Wj3+7Coe1MvC3dR5KfRHGAs7oauLbUsbnu2LvlmEovPfW+3hu9jMoL4/Uw1ugPYi6R2DpXFHV+u9qx9yQBv+7t8E6Zh5CVA72zkLRU00nKObk3QfgmhrgkVACj0/H0iZ6NTRlVAeN7QCDbwbwMhbPEonT/QAh0Rjs//0/YwRSBggFyrYticydAvCfHce7vOHctGwbelhedsfJH/efccH7e1F3BAoyLSv0lml6Py8rK/iBohVNuy+E7NG5UOrdmMNfck1kkl+6bj3+UtQSbdN9kAFc81RHRCt8EhIcRlb+F2bvwexfbUComl+CUAFKtjN2cAgDCvpgt5c4ipCRnoZZ909Gbt+uSDeB97ZEA9voDjahX0sDC7aIOBbgui5eef4VzH/zbTiO2xCpsTk1A5IbzOba6vBfdkKa/THAnWKHpK0gfUiTa7uPyjsQPs8HQZTKqhrhE6RnHIv5D4mh0vfXhhaYmC+lRgWJy432RxC+v/uy/0yNj0CKAMGy7riQSAmfYBdgZiUm0d3b2rbLb3Oc/KRcHfffru97BJ4zLGuVlI5ebpruof99AOHI0QfAUu8DLDr4CZtlmLj61D04onsE1z3ZEf06RPDI6PU4674DsLlEytUTC2DJtH/1yTtx70VbYn5KDHgRRsl2oHQnI9Q1Ztb0XRJRCTnb2T8/A/deez7WlTJKo4xvS6LoYjNK2UBJVIygfPx17vN46423GotKiPXndBTPEQWxH6aJr0CrTWG4IYV2VnlKBMDsMceCIATFmKgI432UlZ2Cz+elJOZReeHZY8ZB0aO1GJ8MRX/Gwl5XJDVR/zCjCDQ3QBD55q/CYYQiJso7+EiLOih+LLHoTDLXL/X5LUwbe7YaMC1GWiuNPc1w/KFDTezpbyEcNbA7YqJlOIqI6aO4a2Sf3zsZr/WwoFqYKNUGMpSPPZ5GNOI1+XlMZiz/E7dJDSCQbU8T75Rh4uLoOJPOSuaSbHvqzxwn/5Xq22Zm3t0xEokeThTtSUQRZusLzzO/An5dzSVRVnTTW5umHkjkl3nebxZmZNzVORqN5mrN7QH1sec5HwNSpVRghULmAEAdQYRdritCbJPj5C05c4EZDmceoHX5INf1/w508Sxr20HMyCZSpaap3y8rmxw4E2ZmTm3veZytterJzJ9Go5mLgWsdYHyGbXfsyswm4FMoZO4oLb1J9qG0tDu6+r6SEmsFGOy6i1fE0i5yDbe1MU17AJHe7XmTl8a3PYqZWhPxh66b/1XN8H1B2LKsXsx8tOe1eDp27uptajvT1IcRUR8i9phpued5nwMF1b6lj4Ysa3tfQB/ETO1IIqvAl64bbBev6goiB9cQ0RRmlCllnql1dKtlhbaVlEzYAjwaCod3dNcaR7kuvQbcvKtmPwoyQyHzYCKzPzNbzP7qaDT6GVBQq8rk7oxQKNpfKb+b40TFa6KlaYZyiILxXR6NLl1UT4oqmUcLBPmQlPV6Bcw/SWaP408+DsMvGgYyQ/hul4sWpR+j98Z78dsFpyPiaHz9xQp4vkjyNw4UOqT7eOW69cjqvgdeqRBvjGAuEhLhjOI2GD8v+YhEekY6pt52PQYd3Aebyjz85aW38Unxx/jZ+T9D/8P644WnX8Q/X/k7oo1JOIv1cBRnNqvVazIDKtuIG6KXJk6IZ4NoEEhlQutikP8HFD0ptssJzGOGG8hOnwrCjXGzJHmnngEbdwHV5jENHxReheLHEhkxCTfleaF41LwEcWP0f4GiOS8ne2k/yHbNCRByRoluv3yocwB0BPMOEJaB9ZvI7Pdak0s8s4a3gkoX+duhIBwOJjG68kBcBubPQFgEn/+O4jlrUxpDqTqJ0skg83iAjwChPchoA/a2gkn+fQyJxSzs/c9mBwoik92q7SnwxSaYDwKoUyAly2K8gz0gfA2ij0Dev7Bwbv0StaKiGTIPAomRe5It4m3AZ09XTVaBEif1T3Lv2GakGNpaUc+7QcjKOwik61Pzq3sKDq9G8WNVH/qUAEJBZ8sKfUFErZkp33UnTUvuGgpUtXtJljX9bEDfSoQnfN//Qinzp0R8FUDvhUJmXmxyuqd9OOyMZ6bzxdiMWd2plPGe1p5onciE105KILWmaz1PPW9Z0UKATpDJhwgGM4pct93JwOVlodAdRytFtwQursKQNvkIz6NfE5GoVkpptMWMfxPhVK2jaUqFnmXmrkSBpkqECPdFIpPygdtamKZ1pFJ4gEjksPFnx8m/Qe6ObU89kJmGE/HNzIi6rtsb2OVYVsffAnw+EXow4zatudgw6FEgiHyGAN7m+3p4NHqrGNUpy7LOJcL1zBhABOU41BOYVGmDHQpNyyHiB4jUXCL/M2Z1EcAXMWOe67qyMHIFlFjWtAIiXMbMN2rNa03TuFZrPYxIPek4S64F5uk4R+R0AOKDIZHPeUS6jFm9obXaZhh6EjNyiGAR0cBIZNLqivsd4ybw00S82Pf9F4hUH6XoVmb4StFlkcik4Hps2/oV/hvHnwAAIABJREFUM64gQj8Aix2HfmVZ/BTAA4gCFcgyGRfXzb8ruWep1hc/+L85o84CjHkAV3lbN3C0NNvCeUNs3Hyui093H4SjD9iGVSUDEAmMtDRWfP0tXnz5HXy0cCmssI22bdsg6kdRVlaO0t0lAUlQygoFDHRvR5h325no0s7GrFc+wKJPV2HTLhOfb7BQHk2cXqjsomZkH52F8RMux5Llq/DuG+9gxRcrceAhB+LI3EGY82ghIpJWaLTRcmgrN4nJsynjXP8+gRCQfW5M9ZAHQ25oZY1mYIQt6DkfGd/OqVGJkPXL9lBpJ4N0bzAfBMIAMOSDWE3ECAICagEBtRJRnIOlM6UOuuEWHN+WqNJBtR6X76DMg7Hwz9VWDs03HM12pL0GCCwulYOgzJsDgxaoDDF0BWkTLAk1aVrYrUUgfRsWzREVvmQnNIXcvIvAwqkguXd7APoGLAgZvUBoHSuzgYbCOjCPRlHhvxKOTdaoHlDqAtGiB1F3kByTPgGimwDVEhx8QLJB1ArQJWAplaM7UVr6Zq1VPQEFBMxXyOpP2LVOQXZd9adaq6yKHoml+OrDoSD2veeAIIY5Mj7rwbQ5biPeAxTU3Ms1Cnl2I0DvAnomdPjdGtGYwXlHI6SeDzhRzFJW1PBKQ/w/xExH8x0ominWwbGWk5cDoucDTf+g+qax3Kd4lYi6HpUj6lyAJXNrEpQltVW29hUQHx70h6VCqJ7jEWmRJgbjEiyaWaUqmgJAMM1ppxoGC/+AtUae5+XPSXjfa21gmtNOVgpvABjjupPEL0VW98JVEIDwB2b803XXnA30zgyFdG8ieoQIOcx4kYg+JMK8SMTcalnu9UQkCqzrZGLTmj/2PO81wM60LDxHhGyt9Q2eN/mPwD09Q6FIByL1JhFCzPgjwMtd13wV8FrbtpoF4GRmPC0rba2NxzyvfIVp2rlK6WeJqMxx3IOAguB7ZVnT7iDiyQAedpz8K6sucXor29bfxQACdQQ2lFlW54OI1PRY1AVvAfQZMz3uupGtoZA1SSlcD+ANx2l3NrDRD4XSByilxahLXGH3VAcIpjn1WKVYZKYvd93JsbJR3NXZsrwviNBaaxrnefmP2/a00wF+PcYRmXx5fIxb2ra1AqC2AB/uOPniCwEBYpblfiP31DTdgytSDLZ914FE/gHMLM+KS0RHVgCE9PQpXXyf/sHMC123/RXA5cEqLxSaepRSkG/NVmbjp65705eWNfUIgAT0FDDzaoD+pTXPiUa9paGQdZZSeIIZrmm6/ZuS3oi9fGL5W8pSW9sw6mZGp66dcOOtN2DtipUYhDdxXP9y2N0uRLdOuTDiEQMhGpZFNWb/aznufnQe8q4ai+5dOkLBh+t6WLVqLZYuW46vPlkOpzyCZ+4Yh6FZh2DplnJMm/0GXv3bayh3Uo/ehkIm7rj3dnRt3wZRUli+fAXmPD4HO7fvDPgHCRvTI1jc66pmX1XVe+IChaNWHgwdegKK+kDLjRWLY/QDc4cadSFMDpR/To3Sy+wxv4RSjwdzUgAoZPBZVjjVPqZUFv8x1gOSjek5LJp1acKxGDTySISM4lqljXK6JXD1Cd9b9ULCjjawwd4ABAmPr04bCcN4IAD9jGeg6C5oioD9i6DoBjA6V401lYL09VhUPjNhGE+idaU9rwfodvleAHgWLk9EenksZFga7gzbeFjq14NS1WDiwrlYVFifRW3FxROyR/YHmS8B3B9EO8F8I/SOZ2tYdsu5d/c4FCbNAeOIWP/JA/ODYD82EYUohKjqA6aeUNwXjENgGN1A/rX4qPClOqMdRL7Cl0OZvwNrAadekNpiPQkloc/hb3TRIVPBT0sHYySUeRO0LxUx8edUiRveM4i4N+DTubFVnKRcjLJDodW5IDUaYLHVrQsSSK0D+49Dqxfh+atrPJOB3HjJYfCtgTD4QhAdC+bq4LniUhiklkNHp8D3F0B9tQHFxXU/PgePbocMzoDCkSC6CiwEwkpHP+neLkC/Cc1/wK5ty7Dq9SowlQJACIWmjlUK4s4oa6jzXTf/xdRegWBlK66Hh7quWKdXZ8wXpNu2JdHIAdGocY7vTwzup21PfwjQ/wfQA44z6doqoHu/bdulpQAbWlO2502qBE6WNfUXAiSY+VXXzT8rJtwkIMT+hJm7KaWPjERuqSR6W9ad5xLpvwL6NceZXM00Ssr8esmEd4zjuJ2Agm0xgHDnRCJ/el2AUGDZtuVUAYTYyt+ypt5MhGla0x89b5IAgnhjSdlIpdU6xzGygYl75Idw+I6ezEom7ZJqACFI7xAhKxJR/Sq2jUcdXifCUIBucZxJd9v2lGsAuo+Zp7nuZHGiDJptT3sP4GO1xjGel78w9tf6AULVPlMlQtimOkCwrGl3EfHVzOoo17350+rPgG1PeTzmVIv3HKfdKQIeLOvOQ4h8mb8/cxz3uAqgFevTVNFWOFQpfVR5+S2LUnueql48CSkLY10ekAZbZkY6Jt4+CV06tcf6nSU4uVsGhnROgyH1jrWazFsvfvQFHnx5Af404WLsdhm9WliwQwplUcbmsig+37ATGRkZOKBVOPibx4xZDzyBp159P2bWVLEmq354o55iC63Ro3dPPHb3BPRoaeOmBVtxWq+WuPmK8ShPGDmQjlMpED0dRU9+mOoAprx91rh0IHIFDOMGsH4jmHzS1nyDDh0YX9u9YZi3ADy61kfxI+w2TsdXM4IHHIGVs1FFHmT/CJB6IhZSC8KlgK9/BkX/rtE/Hd2M4ic3JuizwuBRo2EYM+ssiglPw7fHNFv+PeXBS3KHpgKEQ4dnIj3tNigaB6Yt8KN5aLl+QbXoDSF3VC8EGvU4qVpvdkuYE0Wz/9loDwNgRzPiwjXPwdGX1QFb/YbZaN1xWgBEIPazCQBC9uhfgAz5yAuwXAdFF2DhzIV11fbiPcvJ6wzw4wAqPtQCHKtFP2qsjuXNK4dBI/HRrL/WuLbc0e3A6jGAJf0SAmgTtL4ZCM9rIApHODqvJzTk+R4TW4kHD6soAy4E+DoUzaruwkcYdFEXmGkTAX1VVeos2GcXSA/DotkfJY7cDDeQky4iX38GUJtntRZaH4/iObJKTi4CJO8vRWbE3EZBEC8S6NFY1FdCvnUJtKkBhFFKYXYMINAFrjtJ0nxJt3D4jhOY1dvM+Mp13SOrcuFyCKZQaNp9Ssk3ntY6zpI+Amgt6667iaLjmfE7183/bfWT2fbULQA6AH5/x7m1MiVkmlOPMQzIt/I9x3GHxq47CHcvAegA09SHl5ZW8RPC4WmnMvPfiWhuJDJpZNU5gn1kxf4Tx/H7ALfKpJ0yQLDtKTfEoyOTXTdfCIGVzbanbgA44jjeYKAgsPLOzCzo6HmWRGcrAYKABq3Vp0RY5Dj5p9Yc9ILWlhXq4bppK2McjumtLEuf5rp4F8jfGuNf2EOZWVIbvX0fx0aj+QLGkgAI01ZIGXk1gCDplE8A7qyUOah2GWY4fHtvZmMFM3YrRVmRyKQ1QEEf27akTPIDx3F/Up0rYdtT5Zt0CpE+MRK5JXEkstbTVjX1Dh5xNExLyuQazLXJxkNOHILTL74I9yxaj/ZhEyP6t8bknPYw4yCh4n+DR1KWSO8vR6sOHZCWkYEZn+/Eg0O7ItNSsSAkAztdjTWlGl+X6KDU8dOPP8OXq9YhLS0MUgRlKPieD611oF/w4fz3EfVj72FMarklco/Nwbjhp+Osgzvh1gWb8cb6Mhy+azWenfFU47yDqsF4HaVl5+5zAlVsApoKpa4A4yFsxc1YU0uJ8JhL28L3xHXs2GogwQNoHIpmFdb7IcvKGw6DngNXfp+2I6oOSZhKqO/TE6xyuz8IqHrKpuiPOLPXr1GQRCVB0p+1fbBhUwBCsOp0xB77tqBHWk9A8ex76x3vgXkHIsSyqj+wWu8XwNGnNRhdCVQuIQS0IQCJs+aptSbEqkMFky+9EveqbziCcPTIwdDmS2AWsCjEn1tRNEv87huf7HJH9werDwGWPHP1Vp+qSV2AIOkMAZDMApJEeWwPtL4Ei2f/JeHdjJmJSQRlfDW+jBzlc+joeVj8pIRmq/ofA8N/B/jIymMTdiLKQ7Fk9icJz1exQU7eeQCeiVsJx/9KX8E0hmDBE6lJC2eNGQ+FaSDaAc3nYXHhBw32IwWAYJpTjzcMni8RQSK6IhKZ9FjS1xdbSd9OhFuYUey6+cKZqfEcWNa0EUT8pAx2KOR0Kikp2GJZd95F5E9oACDIJNoJMPs7zk2VACEU+t1RSpkSqXjfcbwTqwGEYmZ0D4Xcw0tLCwJCorRw+M5TmP1/EOHpSCS/mnV0wAmQVftPHYf6ArEcfKoRBNu+43pA3cuM+gCCqCS6jpM2GLghDhCmdvA8SJq0EiDY9u1nAIa8039xnPzhyYx7ixZT2zkOif/FeUSQSIAAi8N8Xx8Xjd4SX2wmjCAIgbJrFUCY0sm2Sca61DTNQXGSZrXuVIorddLazPW8m5YB03rZNst7Ux9AkBTG6RIBiUTy303muqpvUwUQqlwAG7UODZkGLh9/NT6mdvhsaxmGdg2jx8oFyD7iQKzI7IFJ2e2RZlbxB0pdH2t2OejROoyT//oNLEXI7pSGs3q3RE7HMFpaMaO+qGZ85zFW7xGw4AcRhZh6QayL2vcx+7HZ+KxoKYxQCH0P7odjjs3BSYP649hebdE+bGDhpjJc+Po6nHBABhYVPoGvV0pKJmFVRRTMv8Di2X9LdfBS2l6IU7aaCeA8MD5B2DsF78fDqrUPNGjEoTBNQXvxD3hwDW/C8c+vdwLKybsZhGlV/AX+J0rLf47P56VeihjY4qa/DIKQa2pNHzQZi2fVQOgpjcH3tXHqAIGQkyeEzDnxnLkDn3+BJbNrMMNrdD8QGINMxrGQFqkykD4BCxsQ2RI/CyM0H9AKytiMzbpXHXBY/QTZeaOgIOmGC+tNMQTPk/GmhDTju62Htg+vQZBreLwVsvOuBfEfqoFQmSSXA0ZfEKeDWaJR8k/SEGOwuDC2mpXnIyNdUhLyEZUHMwrW12Nx5JGEKZaK/ghQzkh/BEC1yUI4HsZKlKkT8FkNjgsha/SlUCSTZZU9HOMKLC6USEgqK/+5AU+iapdyaByB4sLU9Phzxsj1C+fiASyaGRcma2CwUwAIQEFL2w59DVB7rfGA5+U3fuxap7TtKY8GCwngS8dZMwCoWWkTDt95ErP/tuzmOGYX4KZNPw6AMOW6WMi/6QDBsqZcRERPM9PHrjtpYKJPVXwsC5npUdfN+BNwzR7bniociKF7AxBs+86DAH8ZQCVKqToRhDhh8zOhA2jNR3ne5CXfD0CQEckaORiG+XdwnZVF1XgxIyt3MM4ZdykeX7oBx3a00Omrj9C3f2/M2NMe1x/ZFmf0ahFM2OU+Y/UuF/1b20GE4YsdDhZuLsNn2x0s2BTjz53WPRN5h7RG71ZW8PZLaiLKjO9c4DtPY4/HKPMFQMiizkemycgMEVqFDLQNG7ANkroX/HNdKca9/W+0CIeQ42/BnAf/DNdLgssgrGoXw7BsVoAu90kLrItLfw/gEoAkzzYMRbOWNXiuWK76hWphYEm5bIDmLBTNqkTmlftnj34CRJfEJiqhI+jbUdSnoEl8Cim1bFuyFKwPqds/lY+imUkyq/fJSCZ30FQBgqxSw8Y7YD40Fm7nf4P56kZB41GXHAet365akZLknc9F0SwhiNVuhOwxV0LRAzGjMAhJ8NxGXTZzR/UGzH9B++OweLa4ZdZsOZecCmjxyIiZ8hDNwaLSsUlP0seM7IeoKTlT4VPIASRKNQpmyUsotdohzewEn9pC6UyAl2HRnG+AoFrmWhDdWXXd/CE8dWbK74+IX4lvCFeLDAjpg3EPFheKKFbVxC9Rtag/P6jKqGikVsKPDEHx00HeOqmWMyIHMIUEKIRJaXKOx9Gr7ErMq6NUWP8hcy7pA0TfBVQLsH8cFs+Rj3XDLSWAEEQBZhNhFIDVjuNmVYTFGztFenpB17IybLIsS3LxYtS223HcvhU5/Yp9hcBoGCyT2E7HcTpLKLq5AYJ4ptRNMeyLCELAWQgiP80RQTDNqScaRkAA3G0YfEhZ2eQ6qdhQaPqRnnfzx5Z153lEvpD/7nbdfncCFwRrWdue8vbeAgSgoK1lWV8TwdZaHSPnq3XvJQUhHhzdAJXlOJNWJQcQ1ImRyM17kWKQXkj+s02HGQD9sl5iULyntmXh6puuwmq7Ixas340TumVgQ4mHz7c7AbumfxsLQ7pkYFOph4Wby/GnE7rgtB6ZsIyq1bxEDN78tgR//Hg7tpb7+P3xnQNOQ6rN9RmvrNmDiR9sxk7Hx3m9M/HWjCewelWQzkrUdoNxRqMhwkRHSPy78DtkhX97nAH/EIpmSU61sSb7XAFSD1WmDUjtQtQ5pQ7LGkNN5PZ+E6xPjh9Q8tYjUFT4XOKu1bNFr7wwOqkvof2edX/9kQKE3NHHAPR3sKhP8nMg7w8omltZclTvOB499ij4LDLUVux35YD9n9c7mQvrPXeslGv9Pk4qFST8F2TSqAa1LoJ3sd1JEGOeurwRQu7oF8B0duV7SjQZi1KI7gTEZEj/JRQdb/wCdm79ZQ2SXfWLP2pEN8BeAO13C/4sJErGtSgqrKogSOWhyxn1K5B6uAYZltR3YD69Tvole8xNcWASOwNJgJFHY9HsuUmfMkiNqCIwOlbuI9EczTkomik8hMQtd6yw1h8BeC7Se41JWOaaIkAIh6cfx6xlohK3xZscZ5JIizcSJZGafltKIn8bCk0bqBQLL8PyfRwXjebXSH1UpBiY6RbXnRQ4vjY3QGiOFINtTxP+jUS3Hq+pEFkQtm2rXFZAlkUd9+yJkTCbAyAImdC2vS+kLFNrXOZ5+RLtrdamdLIsutp1+xXY9sq3mWmQ69IAQDgAsVYFENRx0ejN9aQYjINr+z7Y9tRaKYYAJC6KVYnQjZ43SdKc1Vpg8CST2x7HCWUDE0qTAwh7m2Ko6IKsXFgJ0oh9BOprzOjQqQOunjwer29w8NX28mD1XxHND7SPYuz64G9pBuHU7pk4q08msjqkoVN6CDGsIJECjd8t3IIPNpbjL2d0R99W8e9tglfVZ8Yn2yK4d9l2vL2+FJEo49TerbHt/bfw9qvyrU+UWgh+L0RR6aVJr7oSfz7qbjFwRA5CIck9C4msFETDsGjWewkPlZt3PFiEj+Klp6RKoflndaSGg5WYfjdgnAeNtgPuqSia23CEorGTSwg5M10UpY6ru1mzAgTR4Ehe3ruhPs+fH1hs1Pg51QhC1pi+YoqDKL8M05Za+MShp9oAQSYsjSuxuLC+vLGEya+Goe6vVsYqL80t8K0/JXW+6hd41C87Qduy+q/iQBDdiEWz5KOaXItxLp4GpA6+YvjUV3CiWQ3yKHLGCIlZzlGRVlmPSLC9kNlSb4FTqCmT2OFVO0vZIc9Az7LLa6zqc8YcBqIPwSx6ERXtdRQVnpHUiaVccc83v4eiq2v5zkTBdAkWz0pcUhi8Gxkvg1k0Js5OSEqVjqUIEGJkP/MKQEnIvITIuNBxJgrRrB6QMK1NOIyHfV9P97zJ8r5LFYPUzl8YrwCQhUh8P8n3248T8amOowZUiPKEQnfeo5R/IzPucN38Gr4ttj1V8vQCpg6qKtuTcrs7j1bKX8BMH7quc3x1kiIzujXCQXgmEsm/uOp+SZ9CrxHRTxzHPRAoWCW/WdZUKdt7Iaa1ELDypQxNqgzkeu4XwiWR1SsSGR9UStj2VLGE/z0z3+K6k2NW9/Fm21OFg+A5Dg2u0DvIyJjSKRoliRCUOo7bsyISYVlTZhJRXqyMEONc130JKGDbvr0/szFbKYyPRNwFlmW/T6SzhHvgOLcEmjC2ffuBgHBl0JMIJ0UiUmLslAJ2hmWx9NMi8o90nFu/CoXuGux5Ny2J9134Bp0Bc2CFama8SuL+WPWFmwtU8TlCoSmDiWgBoMa67s1xcHx7X9s2xOjpQ8dxT69FUpQ+nUbknxSJiBZEaq3+WTQn7zqApaqh4caMk356Eob+/Fw8++V2bCrxGk33C2AQ98WQQsBR6JxuIs0kZIQUtkf8gJtw4+D2GNYzs8Y5hcgoYMDxGRGfsX6Ph+XbI/jHulK88+9S7HH9IH1xdNcW6LzzW8x5ZFYSmgdyCtoA1j/D4tlLUxuyFLaOEaykXnZwfK+3sHPLmQ2u0KofevCoQ2Ao8VGIGyVJCNi/CEVzarLJs/KOgGJhzMbCL1L/vksdWVnxkEJ3g00rJw6IgErt9jCKyq5pFkCVlXcuDDWm6gMW/44ll1GOZaOJNaK4BcWzhMFb1VIFCPGjxcVMkhux+gAC9NVYNEdy63Vb1qjjoFR8ZVjxs5QZ4j4ofWdKktiDR/aDac4H8wGVJ0oVIEg555r0R0B0WSVoIbUWkWhOvRO+sPcNtyiWhok3AbCLC+tyVZIbwdhWuXlXgFlq0quBRVoJbeXU4FNIf79Jn4FY+D3+3ZLyQv8cFM1JTL4amNcLIcjqWip7WtQAV6LJsLPFTxrWeohf0MC8gQjx+yD6GuXu0MrSzMauN2WAIAcbbljWoIlEdAMztyLih4gMIYCuNQzlRqN+JnMghPMTpXh2eXlVpMC2p/YH+BWAemiN6zxPZJuNqG27QwD1oNaY6nmTRJdA9BEs27b/CvCZzPy863oXV0wuUosfjdJqIoQBGuY4k+KpswIVCtnjlGKJGq12HDU4BjamtbFtCPu+jdb6ZM+rKKmT6gkp31R/jpEaQ8Niq97g/JmWZb0tOgxa4xLPcwtjYOPOFratv4zJxvMDWqvPiHiIABKlggocaRLif8113VcsyxItB3G3fNRxll5V8X1KT7+zazTqf0HELqCHVFRiVFRVxNexR7hu/udyQMuaejARvwTQgWIFzcyfEEHASX9mPOC6+b8TcGLbUx8A6EpJFzOzuCGHiUg0DbKkTJIZf2XmbzzP+w1wqGNZqyQiMBjgF5hpGTOtlXsQV60UcqFFpE6NRG5+Pz4uovT4BBEuZMZc0zRuLitL225ZJX2FaEsk43jgNbHUhpS2Tv0lEc1hxueum3Z8BRkzNo6+zA2Hac1jPG+yVMik1OoHCMde0gKu/y5AgxqLbsnO5170cwz56WmYtWwjNpS4UAlX7lX9s4Ww2DGMQ9uH0atFCK1tAy1CKpjwd0aElA2s2eViu6PxxY4IlmyNBBoLco4YX4GDEsszD2yP9E3f4LF7H062akE+zJdhcWHKA5bS6OaMGQvQE3FhFRmc/8PCWVLnnLjFIjkCEKQOXL6JEejoL1D8ZM2a+Oy8M6DwajVJ5KUo6p3dJP5B8G2SiSMtH6Df1dPJl1BaNrxZqj2yRwwDjF+ClAZLaR23AqlDQTiwlrxzPd0g2UfCgV9A60lY8mSw8qhsqQOExPej9hapAoSAVCjiPVRbsVQg0cfQ0dEofqpGzXODnaoPICj1WyycWd89a+Aw4v655m4o/LoaQFgNv2QwiufVknyNiw8B/xRr2qoDqntQNHPvXAQFCJvqAzDaVB2XdoH5zDqpP4n0KEg9fqv4OyFfgeews+XohJP74JHjYJqPQOtrwYhAqUerRRLEue3nDfBHYqcSXlBJj+eh1NnQ/Gss7v3HpN6xJgGE2AsPFPQMh8N3Mmsh0AqAksiWULSUsPZdNzINKKiHiPxoum1vL5QVLqB2ACwf0y3MeqTrTpZnjEWpjzmYbHuL1kEcHH+jtc4nUhKVOYsIooIorVQmNtf1b7Us9QcS0aiYDoQ8uxu0puVEPJhEtTPGI9tDpN5xHPqNZemHAS2rXhHhk+03ATwFICHAjgekAicgTvnM6gPXnSQTvaQ+ziXy58Wt67f4Ps6NRjOX2HZJOTMvEAVDz9vzhW23nAmQcFOU6CMQYTXgX8usRgB0DhGC55UZO4hISIUHEPlnABSsRJmxTaorHCc/viCe2Mq2Wz8dF16SOeY7QF3pukueq1oY3ZBm2+2fEoEiZpSLuqPjtH8kFNo2Til6IA62RlfoEcRKE01ZvXfwff5NNNrv3nB41WitcRWJ0misH7sB9YLrRu6IR2Qs2w5dx0y/jU+pu6QkmFlPcF3vL3H5aykTlRSEgHQJvQvBaQOzfsD3yTVNGd+YZotIPRNJlUP4hppy241/+hqOw8uLq9SbIHRv7BCWaeKYoUNwwlln4rPdGp9uKcWO8mgSxQOxo0qEoColgYCnIKRDiRbE3hLRc4ktGarLLQjXoU+bNJzSqxU2fbIMf3vmr9i1KyYTkPCSif+C9LKxmN8Eln+iw1f8Ljnktp2EhHV8/GO2FVE3J2mnyKPzesFnYRzHAAKpEvg0DMUz4igz/tEq7fk7gCZVE42Yi6JZUmuc7Fq87hXljj0ZrCWsWfv5WA3LGIgP4noMyY5FMtsFwCRDaq6HAFLXX2E6VWNnuaZlgL4BOm05irvuqPcj/Z8IEOQyAq6DehHMVTnwqsvbCMYMGNG7sPApKYNsuMXKDMVgrXpd/0so+vZ8YH5cBz7BoEvIvXR1IaAurnxUGO8gk86olxeRM3okQAKoq1US0EQsniUrqKY3STOwvQjsV1PtFFVCfTkWzRbtgqoWRLfk46iFexF/rSSlFj0Fi56sTeaqvl86DEdW1QPhcw4M0Vw3FoArjc3kQzQLfcoua5CsKKDMkNI++ZDTiclzFsaMhs9dUDxbKl6a2KTuHt2Yo2lEqsR1w98m85GXFarn6Q5KYVckcnPyWg9N7GXz7xaUCHZ0XWNdXLhIVssHuW6/lRXEwOY/pxyRKRy+s7vWfkvXNb+tEk2qfjaRt85oD5SWVAkTyd+sdsDSHXWjrAUCqKzqIkbJ9b2gpWWp7kSm5zjhdcnc9+SOm9xWjSXqxQr6/wDjD4BuXIJZJusD++CivIvQqnNXLNxUgmWbSrDHkbRs8zYBCW2lUuGAFji8lYmF89/Dq8+/HKh5w/NtAAAgAElEQVQ0JolKliPqnZn0RN3U7ktI2TCkIiSmK0HqY5B7QsKPf8X5Bl+cBSMkEYTYaonUDhAfjYWzqjTspeKg9Z43QCxCMBUVDNNRNHtSU7sd7BeT7RXRmpoTGQVRjIFY/KQQa/ZRk5XtN5eBSIhgNZ9Pou0gHFNjDOrrxfcBEHIvOQashVkfI80EpLlGUgyxfhIGjzwOyngUhIPrAjCSkOEnEN38nuWLGmbWFyjkrHkLiN/32L3fDOjDkk5VDLvGxrbd8nzFyySD6o2bUFR2b70ppNwxgRhNtegOg42JWDxj7wBCLKX1bLCCr6GMxvegqPfEOgAwe8zZUCLFrONCS8FOt6Oo920NrugHjTkFIXoNmh8H2zegfCchPe1hkLqk8pySmiszj6lVYln1dGWPvRxKVCf5MRQVVpP/TfAapBhB4IKhJlpubQnTMuD4ZTThkyAcz/f3s7FjlUcFzf5J3Ufv8f7D7t0ICNho1RLYtTupSNXenazBvRtn8sVq4qeDIFaiCc0RwraFoaefhNN+9hOotDQs31KK4o17sKnERXlUpMolCpCIPFizrxW+DRmWga4tLBx9QEv0bZOGjWu+xV/n/gWrvlyVwlI5kMs9H4vniHrXvm25o+8Ck4R44hdsvI5ee85Kupwqd9TJYENIivFxpzUgnV1jAhDDHyPzE7DuEZ9/6l95pXylBSZyv/07WFdXC4xNgpom7fWqMVF/JF9s8gd1rKZBLyNjzXk1fCl+CIAw6NKeMKPi+imSp7H7kxxAiG0paozauBeKz6xSFKxxITvAPB0cvq9BAmPO6AvjK/o4q1c4Kvp6FM1+KNHwBr8HKSzzfUDHFDmJVoIjp6DomfrZ/Dl5t4LwuxrpHzLuxKIZUpLY9CaRo2/TbwNock0fEv0QMvpcV6dKoN+IlmgbEnO5eGQuWPBtBfvZ9RpbSaSk/NunoflEOOp4fDIjBm4DTojxSpDaig2ArGWuQNEsiVrUjL6JbkNmxnyweJ7456b0/UgBIPCDOZ3Ly30h4eUophINihLwV1LRZ8Hq6rKourXtzcV10z9NH/3/gT2fM0KhFYNMMwjBV7ZoVPme5xb9kJNvY4Nv29NEgEnSFfmuO7lpFWnNcHcTz9bCkje1sCVryU82cHZm9OzdAycNOwUDBh6OcGYLbCpxsG63g/W7HWwvi2KPF0W5uL9qIR6KBUFV1DJsKIQMQtg0AhGlDhkhdG9po1vLMNqnGVi3+lt88O6HKPpgEcrLxS8n8SXEP+AlAOcjfe3DCSeYvR1YAVYtMudBV4ZCxernPizuPT7pBzJ71KVQ5p9jZY6SouNnkElja4R/RdHPgoRKKwSVJPw5DEUz914yOnv0b0GqoK7cMr2KktLzmoWH0NA4B8An4w0wH11zE3oKRaVjEpIk90UEIWCwhweAlSjyXRTIfLKWUtDYA5g8QIhdUiDZ64yFmMnEjJRqNdFV4D+htOy2egWvggqAkBBgh1TuSFQM6J8kjCLEdDZkYhfVSBVMjlrnNxoGrw8ggCSdVV3sqAlvDotIlRhMzagJEPAQMnrVBQhyhtzRlwEk5ZHVowiTUVRYV6NDwFxIfwDWws05p/L9CzgFPV8EQVxUK9pKlJlHY3ktZcXc0T8Hq7kgrMAudVxKBOAkAULZnQO6kTIkorMKhCvD45euxf2D2kdcdS2Yfw3CknCPvkPpgiT1GppwJxrbZeX9/ewDnBZvEeCFS1sNo4L5kWY+RcLDmeb0IUrx/wESPSJLom2u6/2+fh5GxeECUqWQB08mKTUPnnd+SGs91/Oii5L+HifsXfNuEApNHUOEPxGpSY5zszhs/iAtudk1a1x7GO5b4ECoJLl9olF07NoZx592IoacMAQZ6WkwTCPQSSjzGE7Uh6cZrsgmV+ED2AFAUIEAUnrICIztXM/Fyi9X4fUXXsM3K1fHBJCSBQaxYRXXnSdQ1EfsOps761H3xgUrjnRZcWTFf2SwuhaLZ8qNToIbUKCQtfoRKPWr+OZREF+GRbNFarmq5YwdAmj5qIitpzz7GxDFwCZJLNe+itxLssFCVEVMiKeiUeBRMDAJT4emP9DDhtnY1vllQJ9W8yDfJ0AoUOi23EYnuzUMdTpAY0A0EEwefH03lCFcCClfTSXFUHdMZAIzorOgIGWttco+SfzPb0XxTHHVq9sGjx4Ag4QrIiW0cZBCf0D6mvxGQXBs9Vwh8iSEzzfh8vBGTbjqphjkjJ+iqFAkkJN4pht8HAiDx1wMk56sARBIT8Wi2WKEU/fYOWO7A1q4OPHIWXDxRSiaJYCy5vudm1cAYCJ8fQWKa70/MbXKwhhJNjiGeGiej+JZVSZJMdLubJBxAbS+qFJRMtmnO0mAUH7PoN8w020GcKQ9YUkNCemyuwc9RYyv0m5amgIJNdkOJrcdX9PPLu/RcoFoEHxXqk7oWlCcyDI+uQMnvdVdnW07KmZQj8XKMW/LEP8BZnWz6978ZDKHse1pXwO6M7Of67q/EROj/+AmKYZQByB/S4O+Kt9D75Ob7KUjYsNq8LM1X8oEPRS6rVLIbJGJzl06oUffXujbvy+69TgA4XAaQpYJQxkIp4VjXwGxga51SPFgeONvr+PNF19HJBllxLpdYjDNhOHdkHT+f28HXlbAKk0Mc+LEq0rSlRgqJf6YxkRs3gEqV9DL4e06DsterKn2mDP2QpB+qmpiCT6SRyV1jkTXKPyGNruFlFYhqRvfg3ww34/eZROSTpckOlft32MA4RVA14pafQ8AQSIFrdIGIqpGSzIAgGgkyHdxCWA8Dsebj08i23F0ZnYNoaRUIwjVr1mqhjz/WjDlVyojVvwu3IKoPr0B3wGxpc6FMqS0ckA8HSVqZfciLXpXHSnvIHLQYyhISS5dnB8jYD0Hyh+f8N3IGXMBJGIQY7xXPAubA2BTnReT6r0WnsngvDyY1SMI8EF8aR1AXHls4WCsngKiCdVAVTkURmFhXBJato0BCfE2cKG8o+pcY9bILoh5ClQBjUCRcpaYpcVacAwWrQYXUTomZfCdLEC4e9A7DBpqEB9mj18alN1VtMg9A6/zffogY+LSxSkPbzPuUHLf4Z3YU9xiwidN073Yi77Y9pQ/AHSd44S6ABOC81vWNBEz+rfrTqp0VGzsFLY9VbQCugF+tugR7EV3/md2TR4gBC/LyCGAORtgqcdMvYl4ktYwDAOZrVuhdetWATgQ0HDgIf3RpVsnWFYYZsgMtqloftTHK399Bf987Z+BaVMKzQfjDbCbl5IkawonqHfTIESevghcYZ8tAIHHYVGhlDgmBgixci5hTEvZEAPqJhTNFEW1mi1nzFSAJsYnBkFXj2NxYdyffG8vAkD2pYNAvpS2VZQ7VRxUcuSn7jMNiR8KIIjNtWneFEgmBxLGahug3wC4EBlr59dYlada5pj4dogc8yUguheoY008Dzu3jGpQP+O4i9sgEroVis4DV052C6FpLthfDqUcEElN+U9A6uK4z8KXULgfUWtOUkJNordhQConqsoRBRQxX5s076G+MYilO+4G0fWVEQTGTrB/KoqfDMRk6n/HRnaBYYouQ5UWBKMYXHZKZZlmUHmhJOp2DYpmSd1+PdEI4Vbwb6uB7M3wcDSWzVpTTVr6DyB+oo54U+J7mrRQUvndg+cwMJLA08ITlk4WSFpx+Mg9g39ip0U+oKs+r1HSGIh239/Pwo5uNG/5fO+CeXH7mviOXAA1H0PVSQWxypaAAHnoFkUXfC61/TUaP5oVgrXdwLdrXCFC8nPDjdrpjGCby4uFF1HZN+lD8bgsM/uxmE02Mwi3DbWB+cFx6pynAApt+4XQohvN/xbRir4lGkrbniL6BD/TWg/xvFs+Ah7MtO1dH2vNtyVb398IQCDg7nTRTYqXD0pUMB3YUFrTz6IgHQiHgMie+iPR99tAaTrgiHhbWU03zepXOC4E9BFXXxnHRrYrCANtGbi2yj4cElmQiHGBRHCkFDYjFkC8srT+SINsn5YBlMuEKueqc+8bG/vUAIJ0KCcvG2Axbmm0/DHRDZff7ZCJ6y46HZ9+vR7vFX2OKAOt2rdDi1YtEA5L4USsewIKdu/aHbg5+n7MwinJ9jzMtqOw4N7yJLdvns3qAASkkGIoUMj95jowxLtBCjw3IaqysHTGhjqdyxkjKYATYn8PbHMvQ9HMWhKhe3FJsRXnnwGqbT8tn4iZWNz7sn2Ssvn+AQIhZ+wJgH4KQGzCYXwK8kZDZy6vdwJtfoAgwjEK2avPA5EI2VTXHd+OqJfVaOVNrBpgPEj9DqzXgpSsikXKVPJxckEKrMUDQgRvnoHjv41P5shHJjFglfEITJrSPgAou+qJCo77Ena2vCChDkFDj2FQDtz5HbA+ptomy2CWDcGCeY29tyJHLqqVQhSNN0kR8DAUF/49EPwynBcA41hwJKtB6ewjRx8Ai2RlXuFJIa4vd6GoMB/HjWgN1/oSrFtA80konrMw5bcp2QjC9KzjYLCQksnXfHnGxGWzKyZiHj7coFpeEXz3gI4RNq4CqC8TehPx15ESvrY13DIvLTRQm+YJ2hcjL34u/aalT/M9g3pGGI8QUQdb2afTrxdUOli69wzMibISMvpuBVrH8BcqTdq+aenT5dMG9jIsDPWidJxS1D1sh4bTtQt3l98zqCdAx0HzUHnK0iYsvYwLeoUj6W0mQ9HFxPzH8ISlogZY2dy7Bg70DbpBMVmaScSqlAe+PRTlwPcgbOqtFVUbtcfZsqbeRoTfMKPQdd3LQiH7LqX0oY7j/aJxDkLVkeoHCNNb2bY/mpmuZ+bzPY8ilhVo1xxEhE8dxxgB9N5s2yuvAAIL9lZE9OdIZJJoxVSou4mCpWgu/BrgMmbqTURfO44zDigQJcfKZtu392VWdxOReOocJNblWrN4mzhE2nHdW74E/mRZVolwYyZL5ZDrTpLvEsTIidmXCjXLddeMsaxeNxJBKmpMZn2j697ydM1xE02HVlOYqVV8EdlPvDq05rWAwZ4XWZmo7DJVgBA7f86oEwFDnO+aDhIY6NUBePH2M9CvR2d8snEPtm3Zgrc//BRPvLkFe9x6VHiT5x0IingeKnQtFtZwhkv5/W7SDoHqnCf+CBVyxfIgPYKi3lcnnFBz8joLIQnMXQLfeyHEFc0Sy86aH/KDLmmBlix58D7xPrqAcSaKZkhOuvma9AeBTXGFGmTs2EHJoz8evSOPNHuq4fsGCEdd1g3aEy5H//jAbUGUz8XS2XFP93qGM1WAIBNhenuz0Tx/fGSRM0Ykb2O208FYG8J7GFBHMTKoMgr3B6lzQepn4MCFcSaInkZUKRjRblDUAdDiN7AH7G9HC7ukQf+HRE9NkGYQx8vqjHDaCo1TUDwrOZGn2ucYdHFPmJbktuOKocFzPh1FvW9J/K6MOQGk3qpW8ihHnwltXw6KHA4lBlz6BezcckWD0ZesrBBoQCFIi/9MrDG+ALsngEKSjpG06qswSy9MAFjqH70kAQIXHGpF0u3JTJJmgsfga9InLJ1RfbUedK1gqOlk7r5EM37q+3xfZqTVh2XpewYQsXhMXJzWoeXfynbuOpyi9FsAJytLDYbnd2fCheIFw8BYAo1Im1AcyPTyQ0e0KS8NLSDoK8I9l71XtibrSFL6H+xjbMbEpS/xvQN7Ob46SAuwJLySduOSs4nAkbuy+hJxlo45oD4RtvfcUO60nE6EMjBEEvmTtAlLgsWL9Lk8Y7d4kdxAWk8Itzaew8YWRnn6d/eIkieB1jNYLMMvT5/48aL6BzKQE17GDI8IYjj1ruM4jwFWK9uGXOshzJB8/Yuua79Un15AXYAwLhQK9bpYqcDg6gBmTIoJKOkviUj6filz8LyvEHMyZlqvFH4Rky4O7LgDnY64MuNfo1GM9n33Jcuy5DsiHJlvXdcVKeqAr2GaU49RImoHusp1Jz0NiOBSRxFlEuGmfwK03HHa5FvWzjOY9Q1K4USt6VLPmzTDsqYMAHAxEd3ITIuAwBa8jEiXiGcHM9KJKCdm3iStoLVth16OHdO9EjiUbHvl9QBNZ4YYjC0lMqdVt/Gub9ybBhDkSDl5A0E8B4zDkiYuVutBS0vjnYlrMah7BCQL7PhvvkN4aXkLXPRYV3i6Kd0Lyr3mIqP86n0qhNTYxzQo3cqcDdZVuuOk3sOOzNMSrrSyx4wD4RFQ4Gz3IDK+vbFewlnuqGxwYPcbD/+L+lwS7nKJJoH6fs8ZfWog8AOu7aa1OxCtKZoj3h3JrUSTOf/3DRCy8y4C4amqklJ+E0Wzf9poV1MDCITsvLEgfTp6lY9ICKiyxnWBckR5LQZYlOEhWgsgHDKyCzKNmwC6HARLgsJQfE3CCoZkxr+hbY64uA3C1rs1XBVj0YnHsHPLtUlJiNc+dvaY80F4Jq6YJ7+uhRM9Fp88VWPlVW+Xjj27Bdw2UgJW/V5tg0enwWQxdzoDUf9ULJ3TeO4+e+RpUKHXqgGNcmh/OIzQCIAvgPbHYvGcxF4N9XUySYBQsWvk7sF3a+BGoaeC9JjwjcvmyoRc8bv7+8H/3951x0dVZf/vuW/mzUwSiiCodBBFKUISqoLYu7iuoq5KX9e6uCg1wBqlG5riWlnp+hOFFezi6iIKmgChKKIUKUqTGkgy7828e36f82YCE0glgqC5/yiTN/fdd96bd88991u6hx08G4JOrtR/hauJcmh00rXKwDua0Smh/3JXEjknLfFtgJqokHMjPNTJ33/F2JxxLTpDqzc8ykk2H1/pSsxb4xJvczTN8DjczhyYuVK2CHLHJs0xiIfkYSFyxiW1BWMxND8a1z9zUt5Ycp5ucQlILSSgu0Fopw1jXChsHTLYWAXCF3H9MmUyRe7TSR2YsJDAr0qlIe/72aNaJpJHLyfmQYH+maMLfzRTPaapLiTyyjuonuh1WNZg8QRx4+LzjRIlwXeZ+S7bTskvRR/TaWFbDD7fSKEGP6i16hYKDXTVdRMSRlYLhbCRWZT+VccjropuxeEnZiyw7RWdhVHl9Y6cpBQelDpbnmeFzzfqfWa+QindKBgc4npG+P0jZzHjbssyagID3Ipwns20JA2WNegwRdk0R/6ZCHPyEoTI95+ow+yTyf2AZem2wBCRDYfXO6qnUjxZa/57KDTYZTyY5qjORC5m8CbLSnFp/aKeqbWTSURfWVZKLHun0NAfzwx8pLOITOpEsCv1WKp2beNsvPePnyKwbVdoE8jex8jayfDW9qBRyrnYZxUrvXDUOZWwFVKRnT2hQGpYqUZYxoNbdesr2doRUBdthxVqXeSLz+XXOzLpy8QwFdk5vQu9DndSY3lpRaleaifCaFZqEFVJLlMSng3xt8DDk/NL4oJBtBmMB4uUqS3JOWKPKXOC0G0MFPWPQcVvha3bYeV09weVv4mFcfwEED8Sk+jOQcY09+VWaCt1gtCtC5QxHEa4HZYUNI7YM7liUVIJ6Bp9B2aBdIuI5XKehoES2WZhECgwf4Jcz53H0PNKG/fijyck33sLyJgJit0CURbC+g5kTptffBcxR0Qo1FIdS4x+KpihwgyvCu66ZdfrQerNfMkr4z0o1RqslyJ+c6diac0RGWzZ485zRJVzZQAkv8NshHBJBJNwHK2UCQK/lBwXPKDHMtEDIN5nMF2ex2oIjk9qqB3+UjEN9fVf/opLfn661dm55LwHwvoAh3tKiV6w4cGxSaLx/6MiXmyG1XgMWJYVHJv4CoOu359N5+WxEHJHN67Dhn8dARvYcK6Oe2zlz3Zachtv9p6VlLrJpTIGxyU9rDUmAnxpXL/Mw1W13LTE5xl0rwL62SFaWDFl2Vp7bFJymCFmdE/E9VvuimjlpiU+xSDBenSO65spnhJuy0lL7A3QMwSdEui3ohAb+bR4ny8k/ZylNT5WSpw0cYCZ29v2YNdq2zRH3A3QDbZdtQdwf6FGa4UnCCOeBqif1tQyFBokUt5RnwpzJ8B7LCtFvBmiSZrrKClOr6sty75RcAY+36iGzNTats94M3L+UQ1Mk1+P+C84F1jW0A0RD4dRgqlpYVnes/KAlh7P8PaGocR47SXLGvxAXmx8vhFXi8NsbIIg/hiOQ+I7s8SyUg4nxV7vU62U8ixmpuG2PcitPPp8o9MA3ZeIrg4GB0WryhMq+3y5ErP9ljWoWUnYESVNEGKIiEf9SMSQyFTjQK65T0Q1sAStVd0gPh+wBR4xYTrEyM1iOCHAGwAOxZm46J/1kRUqVYKwFaSGYu+O/ytkJeMudUowtF/nEPGNJ2dpzIQajlLWxhR4YyK8djE0uQUg+RE9joypsk9VcEvuOgCGGh0jXPMNtK8Nlr18ouhHhJZdxVtiLKL64UcGRtvgOIMRxpslKKEXH1/X6vg4WQyuhPAmKf11i1Hm24Gw3bbAPfwIje1FgHrFJAhLsa9i+0KrPS26V4bp6hcMiUkAZcXXD+nTjzgqCt21Ehy3NJ3U4woYWADt9EOD3GeKrCJEgHszALrLDRbzZ8jJ6XQ4WWzZpQuURypUebHMQDjUGZnnby22LF989Is5orOBVnFCHZS90CP7gIxVsJ07sKqkKpvCRPhxeAzIVjA0b0OFehTLqIgdoeB9KP5TUL4tMO16fED3QnoJ/VZcbQX1IjiPpSHwHxYp2BextH7v445rMQmC6B8EcqvsoCiQ0L3dspcfX2UeA9coQqbvULAtGjdxrM3r32BQq2C2bh4IeM5ipS8lwm1a49PA1qxnaNJ6F8x2aHRic8Ogrxl4n8L6scCgFZt4fLtArmMtIcJu/6Hl18QCCINjkyZqxqNgnh/guHtpwJf5NOtz0pLeAvhyJ4QLKqRk/uKOcUyjCrkqfi2IcwhqTKDvMrfcHhzX4mGt1SQP6TZm3xWixorcscnDxGlRaX2Nf8CKBfLZttTkuDPiWSbjao4RujzhsdUFbFGND5hmcDYRKliWfRPwba5pJr5FBPFAmGvbKbcBqXGm6Ztu286jeSvqwh7gwhIEv3/EaGYacFSC4PH5TLnWvZY1qOFRCcIGAFK6v+EIENE1vroM4CvFEwLA5WJCdSRBcFf1bxHxbbHn8fuHXcHsESB4f8tKOQxE93hGXGkY9ElsghA1dxL2xVEJwogWSlEGM42w7UHy24ToKCgFAcX3sawUFwtSocLIqrYNifM3lpVSokV9SRIEQmK3DjBpexF0JoXWXcXdKg2cx8kv/D0jcsmdkw9iRq9t8ERzAJm5BWIgedr63R5c+XRdbDmQp4NS1DvLzezWAHwnMqYVzm1N7NoOKndNgUY0ZX5pFtBB5CUvgEHxRYg0xkE4uAmZ06Qkf6TJRBKfkApCb7B+FhmbBxajqS8y2M+B1EMxCcKz0L6+JUKkl+V6E++5Eh6v7JtFuPd5jYT+iJmwnP7Hbf8b6YvQ6u76IHM2mPN0JKJztytzK6W8wqkszR48A76cDJDQEw8PTqxGr0P6FPG2OLoRkrs/AsXPxCQIFlh3x9IZUqLLn1RGXAGFdy3ubGI4c+QhVTQVX091zWbQ5p5aYO9kaGeWW5527YrVNwDnQocTi5SrFqlrUl9EfFAoBxS+B+kzj3DzW3brBXHHO5IgyNB/BnQatPMpwsZe6HAODpq5iMvWv7qoVbvOAThxU8HuoiA2SdiAIK7FN9PkBVpEcyskPUCQcqgvCqJcgF82d8Km4xDgadWjL1iPQcTGJfoUqY0uGyFzijuhFdskoYfrfBcjL077gewLkfFm4Yl6cR0XkyDY45Imeb3ewQL8i+3q0LjE5oamdGEJkEef76dwbjBsZoJRSYF/cIBPDdA0M3v5N0ezBXLSkmQb4BECRgT6LXcpgAfTLqrugWedUvyM7/HMf8aei//VOCGY489g4AIQTwr0zXw0D/uwtU+7QNUa1mYiLA/0XX541Zo7Nrk9M0ulYENgS1YTSU5keyKYlrQAhOb+7Irn5CU90arC1wb4SV+/TBErQnBs8qOaOc0wnDt9j638T0Fh9PlGihLtmHAYNztOXpl8VD2teakYSTGz+IPUkhDZ9qBivS5OXIKQGufzmfOY6aBtWwKa1KY5UhKbW4moUTA4SCoOglW4gpk/ZubRtj3YvS+mOWoowH2U0ol5WxHyeVkTBMEgmKYpVbDdtj1IxNQ4UmkwPmemLradcriSU9QjXHSCIEhgsv4CwhhA3YWMKYXbqspKbKO/HQxjBJijyPqCT12jYhgvdduOZjVtVI13EB8XkWEO2YR92Qa2ZRl4e3kFpH1YBTlFVhFovwvK8vK4Ysu2rXsIfe1maKf3CaPnHX25yV0vhyLZE4yV+VwH1v+EouVwlJSHL4JHPQBGDTh6GCrSnBKAyATBPc+9HrcRg7kzlk6T/bcTXCWRl/uGxlAqBUy3RyfJvCuX95n8GF6DxpulAq4l/+VMwGwDwq3uZA6uGTF5471gWgSEZ8CmRYUmHxGzp2auWiYg7nex2aWQr9ZCh+/D0lnCac/fWnRvBROfgGOcChnboHUq2PwYZnAfHH8dUOheKKMLNK+HoyfCYzwL1rViOpPqjYCNhD1wYcRtMtzPTQZE2hhqWbSitAAG/Q1fFVC2jtgwC+e7t3srWU3H0iniUX/kvrbsmghSgniPKmjmuxxLXgoyJ4CQHVF4NA4IvThfczEuejeYhQK5DexsBat1cLIyj9HbKOhn7CoR1h4AZTweQ32UMQrXfCS0b3aByWpizxow9MMgfixC1yLRbXgdYR5S8BZQcTOwqFL+5UwY5pLDipQu/ZKGIGNqEfvaR/UbeX5eAFgqSVH5bJqH9KminFkqbnW+notIEDg1OS6YwF/5DX0p9VmRT+PklzGNKsSruPVgqhjwUgMrhDgtPh3geXH9M49gm466DE67KD4Xnk0E7D6ks1tXG/C9Ww3IHZvYhZmmkONcFhi48gvxdggF45qY/Ve5VNLcCS3qIawWyuo34PE1pceWuAySYFrSzRp4m0Gd4vstOxPUSEYAABqLSURBVOwkm5uWPIjBTyroW/39Vrif54xvXhNh4wdF+Je/33J537otgmtIbEtEQ8H4iYlXixuk1vqzsTkrVqUW6C+RWtHnM+VZOofZaWLbQ+X/XaaPz+d7FHBtloORSoItbIFilR1PTIIAbZrmTCJua1mBlsBjLjskL0GIrSBEbLyTBhJxB2bZwmJxEfUTGTMta0A+XYayJwiSZIy6QgCYRLSYmcW1siqgP7KsFZ8Wq0YbvXcFJwiSGHBOXShPXxC6w/XEdq5AejFgH+lUgEymtx8MEp/3ygUCGBkwFKNOlTCqxDuoFHDcuSDXVtiXo7DroAd7sjzCxCjs7RAGYx2IBiBj6jsleIUALXs8AtJSavkZxMMRMuYic4q8SE/chBrxshgGcukxstrMC7tgJbZHayaCPJ8Lx36q5AZSUp7dvBTQeXu3u0DcAenTZd/x5DQRczqkr4UyBrhJjqsbkCc77E7ssnJbAq3mgmRitLPg8R3h81I4AEdAj6op4FwJ0MUANQTBA8YBEG2Fdt4D6zmo0HDVMZr87lV2NtA60BeazgPJfjFfAAhqv8BbKkmCIO6/guLt0LQVCZvHuPvTEVGo5wDIRByTWLi7UrLvvz/C2DECgDMPFvdBFSMLOfQ/sBZhqqOam7hOha2HHN5yEVEew/g8ZhL7Dpr6wvAsw8ED2QjAgCehJhxnIIjujFJcJbn8W4FbTa169ABYNBOiXgLHc9vzBATlu+49CwH8DUDPwnPGG8XTg91tAvHrkP3jplFFT6kDyn0WAaJpYNEqCOcCqhIM3dG1WQc1didd1luh1QgEs6eVucohUtDgqNIg7YB22hTozVBUmCIumcIgqhqNR7cyW8IXkSAIhZA9aq2U72P39mWI1oSkC3UIS0FY7O+7/JrgxBZ1EVarwLzcn5F5JcVoHvDE5Dq2dhLNPivmh8a3bBHWernYNicMiOzrR4GHS0CoFgiFWgZhNIdHb1bkGWoeWv5XV/dA/OTTkl5g4LZsnd1AEgvRUQjGJ09h6JsCdTOr525ObhnIzs2k1DV2ztikd4jRzAqHEisPWr1PzhNNQiYz6fYeGAfNOg3WiZaCbG/YTm5/gjrgzd77Yh62oegnNrW6z2dukbmWCL2CwZQY+vZsw+dbL1sVlzNjNZFzm2UNjZrYPevzeLJahcNDjrjeRk/k842SWNc8WiipbFsMgYDPpwUTsdS27YsjWw6zDdNc/zYRrgfoAsvathWYZAmLwTAwy7LsxsUlNB7PsKsMw1hQui0GjLTtFGF0AJhQ2TRz3yfydCuOqVDUfcifILj7tz82cic0zZ3i4uOqBuICas+efRuRa7XE6tfcB6HYltcPk5T9rgK4cDfIgt7lhdY13D/sBetxcIxXSjXBt+x+tUjjnlOrhnfH1m02K7UR7LwEDs/Estf3nLBEQSbSHD0RLM5xiCYJ8pNVe6B5PsiehH37visVAjwifS0iMVG7X/oS2dlXlPklW+yNPXYmRKOeCUgINYeiblDqBmjJUqVs7L6aZOIJgdgCk5RQI7z2CF1VGBHi1S4Tt/xdaHifQQlbwl6H/b6tuOhgTtGI/2Qv2rQQgFpzMJUcsEIs8sLf49Ah2dePCIc06lQBFc/oA1J9wLpSPi1vd0WK9WA9ADm5Hxz+juvYqT4AR7zlhZ4G8LdgPOJaGC97+Qhgql2vKnDCH0UMf3gDlFEVzPEQPjS5dFYDzLXcKoa7oucRyFL/V6juv6x4f4zvAIL4weepKJb+Dhb0DVdhkd+BCv+1BHgAQqNOCUg4ox0MPA6oZDd+RKKXL9cv8c2NgAjlM7nXEOOxiQiGP8Kq87Yd9/5+7NhbdmkK5V0Z1XuYDe279zi22wite8wG+HYwvoflXFrG7bIihZJC4xM7hhz6LxgZQU3X5RkxubTAhKzXwOgAw2kpwMEIhiC4WJgJBJ58SMcNOFMd1BZ5uzHrWv44a6QIKWU/ndiTiP4tFOu4/ivcapkLZER4EymaZ4De9zp6geXhFlqriZZHtz4jWr3ITUsULM55/uyK18r2wOGtB8Z+j+E85IRVU3//zJnbn0wOVI7n9UT40P/48l55LItcAUEydXKIO3uYGwX6rXhFzn/o6eRrFPEHIH5XMSb5svd9UXySkOrxer0fK0WXS5JOFLoqGEz9EZjiM81tIkvdkgg1iCTZ5B2CitBafaFETRN437IGfXz0o+3zjRLQYQVmbmvbgw/LWft8o/4F8ENKoX1ubkq0wvisz+c7tDPCGKja8Aj40QUpbgL4e8sKXS0FDp9v70/CJtOae4VC++b4fFWHRbBkaKA130eEBrY9OMU0R04loZuC3tMaW4g4m4iymGm7bQc/AVIPb2WZ5vBbidRcgB+xrAgzwe8fXpeZJIFfalkph430vN4xbZVyZLvnWctKeVyONc2RfyLCW4BUX3k1M4nI1kGlsEdr/VXs9RefILhSr+GroOkeMF8TiA8k1G9Yn67/0w2YP3ueXrd23TQsnS4TXOma7FXa8TdB8SMgSgQfoxBXiv5oK0D/AXgKMqaK93vpVv6t7qoN7f329i53VDCUwqJPP8eu7b/ocDi0CYpmAfQGMqaJxGnp+i3JFURW2zeBVHtAVmlYA43PsWyarE5LX75M7tEGSssPoGJ0pTMRS6cJz/g3bOIfsf4sGCoZWl0I4vogqgHmBIBEEVImcEnEpBS4E6BtIN4Odn4Gmz9gf9w6rK8aKv1k0dnAZb+UBEuTPzb/q8YFeLYrJG9q4soHE+qB+UwQ7QbrVfB438eSo0x8JPjJ3a4GqetAWpwu03Fg5/yCkz0X3HcXtLZxYPd8VKhUFR6zA2A0AnHdSKlf/QzNGyCTRkn3zl3ApL4BUG3BwqdGA7dSwlAgSTryAYcVSExuYpr7tBeYpQvNdiiW1htd4nsiScuW+AZgtABRXTi6Goiqg917vgOsfwZ4LULILJVIU0me6ki1rgsMjw86vPC4f8stu7aGx0hGyFmLZQ0WlvjaCxtjERWEnKcTbwNULSJdlYEmYNqqCCEQztda/svjYisL1vjmTbRjiKpjc8EzEfAtE+b4D1lvyKpehpA7NnEINF3md0KdKbqyzx6TWIOU8PJplwIP8ffL/CQ7Lek+FRFZ26DAaxlUicGJxCrN33+ZiyHZldo4oUKCfx4YdVjz5J25+56pn7opKNUNJ4yXPQr9zMeXi+Kr23LSkscR8Z/Beqrfd2g09Y6AJoNPJ13HwNNMqCZVDGKIcZ7QLD8FnJmBfqsi7Jxj2vCaPp8S0bBLXIVGYK0UOkQDwLZt2WIIm6Y5EYBQAqWSJpPg65bl7QP0c22ypcro8SRdrhR3JGKpzMmrSKzS37GszI98vuQbmJ0hRCR08XcdB3NN09gQCjk3K8XiYiwrmslE9lxm02TGn4i4JxEOSoJl2/SuaYYvI1LjmVGZiNY4jko1DKcJs+gz0ELbRi9g0L4odXEqQAcBDkQSZpakWRaOQRFaCgZTJns8oy9RSj9KhBbMWKa18YrHozYyh24DWCpwOVpjQihkv+PxmBcqhfuJXNO2jQA9Z1n2+4Cnts9HHwBUkQh+Zvcc0XMRtOaZoZD/4YL0ImJvA7n7d+SbDMLNftOrWndoizbt2+DCJhdg/4EDGDNklL1z+67rsGz6ZyX5nRZyjPDApZLQF0q1B2thOxT/UicVBvM+eeBAnheR8aoL9jiulnxzHLjS/6655fpWd3a903WCzEzPxMJPFuLHHzYK2XUPEO6HjIbTyvxSOK4BluJLroQs5fGyGcSdkD793VL0UH7o7y0CbbqfB81z3JWvE34C7DVhOD4YsuXivuQE0GBCG9XBopbrpmyVwao6CLJF09pNiPLZutMBKLsVvn4tWr79vQXtJFxPkRiEev7YlTQ/27AinErxP20x99eeEMEAFNS2jm8XqJV1wMlLCkpyFfy3ZC9qLHPyAI3yb8qTR06t58c5VR26PyKXHNt4NgzsS1YF/e2YY1Oh1u9p6D0vyqb4LPUyz8XxBx7XoPr+fssfQmrjuGCcP5GJbyfQNQw0JMZ3/hxqS4WbPxEwrKHPp+pprXaHQr61x05qY2r4/eELg0GhH/YrJNkoSZTKckyfAFAzHugr29YRVVSgMpAqVXc3AzfNUXcKod+2bQEcVwwEEMfsM7XWsoiS5P7Ptl31kqKomiUdod8/rL7W3r/advAJIDc+Lq5inNbKp3U4AHhEWGs8s7rOtgcWKXAm1LX7xbylTr1aRrf7u+GcWjXg8XjAzK7E8eihow5sXrspEauiHOySjrCg4wStXyHQAGHVEYqFv9zKLT0ye13PZyYHkkEzywrzA2h8grDOwBlbdhbLZS5uXAKq2nfO0Fu73fXPG2653r02qXRbQRvpi9PxxtT/gx0KZ4Odtlg6w+XXnpJN9ssrH3wFJKU0t4S/Dl6nPRbPOOkGKqdkfP54gyIk3dseHs9zYKxB0H6oxFuBkqRfdpmBg+eb0OHK8Di3A/TUEVwDCU5gGJZOd6lT5e04IlBKHYTjOMMp+5VgWuJVDJpqZ1sXVUr99rC0swxYaI6VA3wdFGYqpmZ5VYtT9mLKODCPZ+QlhoFRlmVfUbBHw0ten2/vm5blsiBc74zjbyOrmSY+Ztb3hUJDChQJ8/lGSZLS94jyYsFnE2+FiWD9aPcHu+PijpfkO0opwoJ3P9n27tx3k7P/9/zxU30KThZMGN54+L3NwHwhFMVB6+3wYCVysAWrgsGSIi1LGEgVd3GvBx4Z8vi/Gp6f32sqFArhpYkvYlXmt5Lg3YWM6UJvOzWbVHyUT2idsjIUG+jhSJ9+RJb31Bx1+ahORARE4MdrdIGBMWB+Fft2DSwVluXoMbm4hsBjUDTqsHkRGbNwQ52uSD0JNuknIka/dZ9/5ARhbOLfNTA4wM5FdJQDpAAgD/laXOox1BB/tb03UY+IKNPvtJFpjpwC8M1E3N2y1FdAQhawVywBPIGAp5rjqIcAY5ltDygR/bCoOJnmyNuJ8H/MGKGU+ncwKHoOa8NADapQwawQDOIGpTjZskKPFVctF7rcM+LIVu/cemjbvi2qVKsCisF75eTk/vL2rLn/2Ld/Tz4nsdPvRipqmtj0uos7XvKA13uEUGBbFjZv2oLPFyxE0BKMmdMFGdNL5C/+m8RA9kiV+jqif1CEkdNvMrjyk560CLjaGYGXQEZnaD0fOTndfxX10NZdq4JJTIkiWTSp2ah76O5i5aFP2oWfZif6AycIPPb8M3M5QZQySSn8U4e9KwIB28rJRV1DoZuru+CoXoGBy4St8LtupjnmQiJHVu3inbOHGT8TcQ6gKgA6wXH038LhIZ+VRN2w+ECNrmSaLNTL69jFe2ArEbKYXUZIDYAmWNa5E4E7inU+jCQIEIEe2aJkeEyZPPPDA8JhxwK5M9Jp3RQZhlIUQzcUp0gHOiRUcSWP8WmQIHR7GASh5Ml9mgpt/u040Nqn9X38ww++VY/agH4JjGtBJE6PlyFzlgBsy96EzVGpqhiNibuiEJKfRsaropp42v/+yx6c4+jhD5wgSLRcoGMFXxvt0AVEOg6kwqSxz1DGt94KekVJsA3HEfVT9CujzjBN7ghJjEAVARajpe9t2xIwbBS78GsNPdX0+802zJzErM4CtK0UbWZ2vrAsZ0NxlYO8URxJEGLSgrw3wdEowgjgWeT3ycUoROlqkakq2mNh3418NfLdaDcRM+M8MtxRcckDV7taOXl/c/UTIueOhf7HaigfM+aYc7rnjfZVoHb0KZ8guL4Bb4H4Ty4q3OaOWHkStQ9+rWe3vJ8yRIAF8PsKSKSh5Teo1iB9imgQ/DoTuEin+410MNcFUTZC+uoiXS3LcCV/iK/+wROEP8Q9/h1fZL4KQp2zz8T1FzfD/M8zse9gDu64qhXW/7QL59c5G2s3bcdXq9bjovNr4+KLzsOSVeuxct2WSJKgNa5q0xRnVa2ENz76CufWOQtXtW6C9G82omXj+m4S8O2Grfhx227ceGkLOA5jxdrNWLd1B269vCU+W74WTRvURM3qZ7ih3vjTLixYshqXt26Cc2tVx9z/ZmBPVjbOq30Wut3UHtt378er7yxCrhWC6TFw5zVt8P2m7Uj/ZgNu7JAIn+lBbtBGnN+HpWt/xLVtm0IphXBY4z+fLoUyCH++vCV+2LoTn6WvAUT72c1yTvEKQpt7GoO9XwBcGQ73xbIGE0uaCf6On+E/1qUld64DFSec5zrRzPwnGNy2WCXRkkUp4reh6GUXg0A0A4ey//ob6GuUbLSnw1HlCcLpcJfKx1hIBGISBKDu2VWwaPIQPPv6R1i0Yh3mj/8H7h81BZP6dcEbH6dj4DOv47VRD+PmDon4b8YadB74HHLtEOBo/OOea5HSsxPadXkCA3p1Qvvm5+PZNxZgfJ+/4N1FK/DBohXYuWc/Xhv9CDZt241qZ1RElydewty03vjrU5PRIbERutxwCfYdzMa0+Ysw/vWP8L+XUnB+3bPw97SZbpLw4XP94DEMrPlxG/qMm4n92UH4DANvpfWG11D48+MTsXhaKj5asgr1a1RD/ZrV8OjYmXhhUHecV/tsLF7xPR4cMQXXd0xC6n1/wtrN29Gx5zDXYPyUTxAiALIJrv8C8DXC9KcSc+XLH//fTwREEIgMSRIjCooREadUxNcfXbDaZCkuXbYuiD8Esygd/gSHb8Ty6YcFZUrRU/mheREoTxDKn4XTOAL5thgMAl4e0hN1zqqK737cjjpnV8H9I6cifdoTeGNBOsa8/B8sfu0pLFr+PXp0uhQX3j4AP2wRRiKhYY1qWPhKCia98Ql63NwBj0+YhUoJcXg19T6sXvcTnp+9ANt37cVzg3pg/qIVuOf6duj6xMuYNfwBPPDkZHy4eDXmPfsYFmZ8hydfmIP2bZpg8uCe+Oir1Ui8oB5ufPhpvP/8ADSsWQ0ffPUN/jF2BrKyI8DXTpcm4vmB3dBr2L/xypCeuPHvYzG4Zye3ktHqriG496b2eOrh29Hklr6Az4uFLw/GpxlrcOfVbXDbgElYvnZTVPX4ZFYQmND4jnh4/IxVM4TzXLRg0iVd6sA2xEzGhrZaYdnrv/Ke1Wn8FP+Rhi5VJO1dnE9iWfRCwuFrsXxGQWZUJYtO8t/iYNii3if+Hr8AoZuRMct14ytvZYhAeYJQhuCVf/W3jkC+BEHwBe2anYv/jH0UftNE73Ez8d7C5Vj+2nC8/vFXbtl/TlpvfLFyHa5vdxEeGDUFr/xnoVuiFwzj+Mfuxl3XtMXu/QfRvtdw3Ny+OZ5P6YEX53yKD79YCZ/HwNwJfeBojSdffhvvLcrEoleHugnCR+nfYt6Ex7Bw6XcY+e95eC6lO65rdxEy1mzEpYmNcGPvcTin+hmoe05V/PO+W9E7bQZe+2AxoBQq+E0seH4A6pxTFZ+mr0GXwS/g9dGP4Nza1dHq7qHo2qkDUh+4DU1vG4C2zc/D/PF98P6XK91+X5r7GYZNnoewi6k4SQmCvIyVLf7q18I1zaGF8ISHY8lMUTA7di9ZkOVa/RsKLUHcE19PO0ZG9Ld+kMrPf5IiIIJfqurHAOfnJIseBvRQ1Mt9q3SMg1SFpA2N4DEmgHE1iDYBeAjpUwR9Xt7KGoFW3c+GCnnw9ayfytpV+ffLI3CyI5A/QZCzOw7efaYvmpxbE5f2HIacUBjp01Ixe8HXqFI5AU0b1MLc/6bjhvYtsG33fvR88hWExOoDwPk1q2PRv4dg2ntfYsDE13HXde3cisQ367di7oJ0rF6/FaP+8Rf8vGsv6tWohgdGTsWctL/joWGv4uOMNZg77lF8vmwtXnzzv1g5eyQ+XboG36zbiofuuBqzPlzsbm1I8iFYiXuGvoAlK9dH8ANa4+E7rkLao3fhtv6T8MGXK93KRIOa1dGuayruuak9nrjvVrToPAB9e92Cnjd3wL/eWIA2zRqiWcPaaNfjKew9lHPyEoSWvRKhwl/ml8GljdD8IA5UXIj1k6KmRqkKiT/Uhsc7AmR0hNZdsHTq/072Q1J+vlMsAq269QDUC4A+2uMkB4yX4YRfQaXzfih6y6GzgTbmOXDU7SBjIAgVofkLGPRwEbbup1ggyodTHoHyCJzICBybIABoWLM6qlVOwNdrfoTHIFzaohF27c1CxYQAduw9gPVbduLc2mehVvUz8OXKdQhHEwSPodD+ovPww5Yd2LbnAGpUrYTE8+u4VIXN2/Zg574sNK5/Dn7cvscFJX678Wc0qnM2Vm/4Cb/sP4iWF9TH3oOHsGP3AbRvcR6WfrcZu/dluaDIA9m5sMMOzq15JrbvycKqdVtFHvlwbKpUiEOrxvXxxYp1yA7aSGpUB3F+0/23gB8F4ChbI83Orw2/6XUBjdXPrITkRnXx2bLvkWPZJzFB6JoIpRaD2Z/v5pIYFkEc/GZADIU0dwTRX0C0EcwPIaP+d+WgxBP5czhN+hbfgfj4BwGxYT/GCE0kQsWL4XMwfwTH8wmUsQ0VfmDsqqbgMavD57kaUNcBui3IOAvsbAcwAJZ+77D75GkSivJhlkegPAInLgKSIAwDaDDARxiCriaCqLJHPxIv+Twgn4zF5R4edUzeGPMm7cPHuII+xzov5NEko38+3Kfbj/QfPWdeP4f7j3IqY8eT9zcZp4qa+uUbhxwQpWUWNL6875CSSflmLJ36/okLOQDXvImfA+FugAJH7SoIF1R8wsUBbwegpyPIU8rsKndCL6i885MeAZEOP1T3Fih6CIykiHEXH+1oaQMqB0QhsJMFMipFjxG8Sy5An7uW2t6cj7DkzcOa8Sf9WspPWB6B8gickhEgtLy3kVuuJGoGQv4V7Sk55BMxKDGy0XvB9BYs/cRJWUVF7Ho7A7oHiOrErATFFnkjHJqDrIpvHdluOBHXXd7n7yAChOTuTaHQC6ybgOgcgOOOuq4QQOKkuQNM38HQn+Dr3M9/ZSnz30Eoyy+hPALlEYiNQKREIJru8VQZYZET/IM2K2xhVXDPSX9pSjUhR8cjyIYbeXZCMBMOlasj/kGfw7Jcttiro2IA2bbYuh5p3rCGP2DBWye3zFTIsoyv/LvlESiPwGkVgf8HpXAEisLx5XgAAAAASUVORK5CYII=;" parent="WIyWlLk6GJQsqaUBKTNV-1" vertex="1">
          <mxGeometry x="545" y="10.45999999999998" width="230" height="49.54" as="geometry" />
        </mxCell>
        <mxCell id="5MIRYiNxWabYfLPJPBUw-26" value="" style="shape=image;verticalLabelPosition=bottom;labelBackgroundColor=default;verticalAlign=top;aspect=fixed;imageAspect=0;image=https://i.ytimg.com/vi/9DHUyz54flA/maxresdefault.jpg;" parent="WIyWlLk6GJQsqaUBKTNV-1" vertex="1">
          <mxGeometry x="3.9968028886505635e-15" y="310" width="110" height="61.98" as="geometry" />
        </mxCell>
        <mxCell id="5MIRYiNxWabYfLPJPBUw-29" style="edgeStyle=orthogonalEdgeStyle;rounded=0;orthogonalLoop=1;jettySize=auto;html=1;entryX=0;entryY=0.75;entryDx=0;entryDy=0;" parent="WIyWlLk6GJQsqaUBKTNV-1" edge="1">
          <mxGeometry relative="1" as="geometry">
            <Array as="points">
              <mxPoint x="453" y="425" />
              <mxPoint x="453" y="260" />
            </Array>
            <mxPoint x="363" y="425.0666666666666" as="sourcePoint" />
            <mxPoint x="493" y="260" as="targetPoint" />
          </mxGeometry>
        </mxCell>
        <mxCell id="5MIRYiNxWabYfLPJPBUw-31" value="API key 2" style="edgeLabel;html=1;align=center;verticalAlign=middle;resizable=0;points=[];" parent="5MIRYiNxWabYfLPJPBUw-29" vertex="1" connectable="0">
          <mxGeometry x="0.1634" relative="1" as="geometry">
            <mxPoint as="offset" />
          </mxGeometry>
        </mxCell>
        <mxCell id="5MIRYiNxWabYfLPJPBUw-27" value="Host Machine" style="rounded=1;whiteSpace=wrap;html=1;fontSize=12;glass=0;strokeWidth=1;shadow=0;" parent="WIyWlLk6GJQsqaUBKTNV-1" vertex="1">
          <mxGeometry x="240" y="360" width="120" height="70" as="geometry" />
        </mxCell>
        <mxCell id="R10aCHOrtXkOKoe5_AvA-0" value="&lt;font color=&quot;#ff3333&quot; style=&quot;font-size: 16px;&quot;&gt;Kinesis QTUG &lt;br&gt;Fall Risk Percentage&lt;/font&gt;" style="text;html=1;align=center;verticalAlign=middle;resizable=0;points=[];autosize=1;strokeColor=none;fillColor=none;" parent="WIyWlLk6GJQsqaUBKTNV-1" vertex="1">
          <mxGeometry x="-200" y="95" width="170" height="50" as="geometry" />
        </mxCell>
        <mxCell id="R10aCHOrtXkOKoe5_AvA-1" value="&lt;font color=&quot;#ff3333&quot;&gt;&lt;span style=&quot;font-size: 16px;&quot;&gt;Machine Learning &lt;br&gt;Fall Risk Classification&lt;/span&gt;&lt;/font&gt;" style="text;html=1;align=center;verticalAlign=middle;resizable=0;points=[];autosize=1;strokeColor=none;fillColor=none;" parent="WIyWlLk6GJQsqaUBKTNV-1" vertex="1">
          <mxGeometry x="-200" y="400" width="180" height="50" as="geometry" />
        </mxCell>
        <mxCell id="iBOz8OGd0gswToYnIVc9-0" value="Kinesis wearable measures &lt;br&gt;gait parameters" style="text;html=1;align=center;verticalAlign=middle;resizable=0;points=[];autosize=1;strokeColor=none;fillColor=none;" parent="WIyWlLk6GJQsqaUBKTNV-1" vertex="1">
          <mxGeometry x="-32.73" y="150" width="170" height="40" as="geometry" />
        </mxCell>
        <mxCell id="iBOz8OGd0gswToYnIVc9-1" value="The tablet Uses said &lt;br&gt;measurements to create &lt;br&gt;a fall risk estimate" style="text;html=1;align=center;verticalAlign=middle;resizable=0;points=[];autosize=1;strokeColor=none;fillColor=none;" parent="WIyWlLk6GJQsqaUBKTNV-1" vertex="1">
          <mxGeometry x="135" y="145" width="150" height="60" as="geometry" />
        </mxCell>
        <mxCell id="iBOz8OGd0gswToYnIVc9-2" value="Analysis screenshot &lt;br&gt;with image to&amp;nbsp;text to &lt;br&gt;extrapolate the fall risk percentage" style="text;html=1;align=center;verticalAlign=middle;resizable=0;points=[];autosize=1;strokeColor=none;fillColor=none;" parent="WIyWlLk6GJQsqaUBKTNV-1" vertex="1">
          <mxGeometry x="254" y="205" width="210" height="60" as="geometry" />
        </mxCell>
        <mxCell id="iBOz8OGd0gswToYnIVc9-4" value="CSI data extraction&lt;br&gt;Machine learning" style="text;html=1;align=center;verticalAlign=middle;resizable=0;points=[];autosize=1;strokeColor=none;fillColor=none;" parent="WIyWlLk6GJQsqaUBKTNV-1" vertex="1">
          <mxGeometry x="-10" y="470" width="130" height="40" as="geometry" />
        </mxCell>
        <mxCell id="iBOz8OGd0gswToYnIVc9-5" value="The classification is shared in the txt file" style="text;html=1;align=center;verticalAlign=middle;resizable=0;points=[];autosize=1;strokeColor=none;fillColor=none;" parent="WIyWlLk6GJQsqaUBKTNV-1" vertex="1">
          <mxGeometry x="55" y="360" width="230" height="30" as="geometry" />
        </mxCell>
        <mxCell id="iBOz8OGd0gswToYnIVc9-6" value="The host machine is constantly&amp;nbsp;&lt;br&gt;scanning for changes to this text file&lt;br&gt;if present then it will upload the contents&lt;br&gt;to the google sheet." style="text;html=1;align=center;verticalAlign=middle;resizable=0;points=[];autosize=1;strokeColor=none;fillColor=none;" parent="WIyWlLk6GJQsqaUBKTNV-1" vertex="1">
          <mxGeometry x="180" y="470" width="240" height="70" as="geometry" />
        </mxCell>
        <mxCell id="iBOz8OGd0gswToYnIVc9-7" value="API key 1 passes the Fall Risk by the kinesis wearble&amp;nbsp;" style="text;html=1;align=center;verticalAlign=middle;resizable=0;points=[];autosize=1;strokeColor=none;fillColor=none;" parent="WIyWlLk6GJQsqaUBKTNV-1" vertex="1">
          <mxGeometry x="465" y="430" width="310" height="30" as="geometry" />
        </mxCell>
        <mxCell id="iBOz8OGd0gswToYnIVc9-8" value="&lt;span style=&quot;color: rgb(0, 0, 0); font-family: Helvetica; font-size: 12px; font-style: normal; font-variant-ligatures: normal; font-variant-caps: normal; font-weight: 400; letter-spacing: normal; orphans: 2; text-align: center; text-indent: 0px; text-transform: none; widows: 2; word-spacing: 0px; -webkit-text-stroke-width: 0px; background-color: rgb(248, 249, 250); text-decoration-thickness: initial; text-decoration-style: initial; text-decoration-color: initial; float: none; display: inline !important;&quot;&gt;API key 2 passes the classification from the virtual machine&lt;/span&gt;" style="text;whiteSpace=wrap;html=1;" parent="WIyWlLk6GJQsqaUBKTNV-1" vertex="1">
          <mxGeometry x="457.5" y="460" width="350" height="40" as="geometry" />
        </mxCell>
      </root>
    </mxGraphModel>
  </diagram>
</mxfile>
